G04 start of page 12 for group -4078 idx -4078 *
G04 Title: (unknown), bottomsilk *
G04 Creator: pcb 1.99z *
G04 CreationDate: Sat 29 Jun 2013 11:07:14 GMT UTC *
G04 For: rbarlow *
G04 Format: Gerber/RS-274X *
G04 PCB-Dimensions (mm): 70.00 90.00 *
G04 PCB-Coordinate-Origin: lower left *
%MOMM*%
%FSLAX43Y43*%
%LNBOTTOMSILK*%
%ADD177C,0.150*%
%ADD176C,0.200*%
%ADD175C,0.002*%
G54D175*G36*
X58766Y54682D02*X58557D01*
Y54936D01*
X58766D01*
Y54682D01*
G37*
G36*
Y55746D02*X58557D01*
Y56000D01*
X58766D01*
Y55746D01*
G37*
G36*
X57680Y55377D02*X58254D01*
Y55273D01*
X58225Y54962D01*
X58138Y54782D01*
X57963Y54691D01*
X57680Y54662D01*
Y54820D01*
X57681Y54820D01*
X57871Y54837D01*
X57984Y54886D01*
X58036Y54989D01*
X58055Y55162D01*
Y55228D01*
X57680D01*
Y55377D01*
G37*
G36*
X58055Y55603D02*Y55642D01*
X58036Y55755D01*
X57984Y55818D01*
X57876Y55847D01*
X57686Y55857D01*
X57680Y55856D01*
Y56021D01*
X57692Y56022D01*
X57956Y56002D01*
X58127Y55939D01*
X58221Y55825D01*
X58254Y55647D01*
Y55603D01*
X58055D01*
G37*
G36*
X57680Y55856D02*X57484Y55836D01*
X57372Y55774D01*
X57322Y55631D01*
X57306Y55377D01*
X57680D01*
Y55228D01*
X57306D01*
X57322Y55019D01*
X57377Y54898D01*
X57488Y54840D01*
X57680Y54820D01*
Y54662D01*
X57664Y54661D01*
X57381Y54695D01*
X57212Y54798D01*
X57128Y54997D01*
X57102Y55327D01*
X57128Y55680D01*
X57212Y55890D01*
X57390Y55989D01*
X57680Y56021D01*
Y55856D01*
G37*
G36*
X56804Y54120D02*X56611D01*
Y54848D01*
X56606D01*
X56461Y54707D01*
X56236Y54671D01*
Y54823D01*
X56411Y54845D01*
X56528Y54920D01*
X56585Y55064D01*
X56606Y55300D01*
X56586Y55591D01*
X56534Y55757D01*
X56420Y55832D01*
X56236Y55855D01*
Y56014D01*
X56461Y55974D01*
X56611Y55829D01*
X56617D01*
X56611Y56000D01*
X56804D01*
Y54120D01*
G37*
G36*
X56236Y54671D02*X56176Y54661D01*
X55931Y54698D01*
X55774Y54810D01*
X55689Y55009D01*
X55663Y55322D01*
X55689Y55661D01*
X55774Y55873D01*
X55935Y55985D01*
X56192Y56022D01*
X56236Y56014D01*
Y55855D01*
X56225Y55857D01*
X56041Y55832D01*
X55933Y55757D01*
X55884Y55596D01*
X55867Y55322D01*
X55884Y55070D01*
X55939Y54920D01*
X56043Y54845D01*
X56220Y54820D01*
X56236Y54823D01*
Y54671D01*
G37*
G36*
X54820Y56022D02*X55117Y55990D01*
X55288Y55895D01*
X55370Y55690D01*
X55398Y55339D01*
X55370Y54989D01*
X55288Y54787D01*
X55117Y54692D01*
X54820Y54661D01*
Y54820D01*
X55024Y54842D01*
X55134Y54909D01*
X55184Y55057D01*
X55200Y55339D01*
X55184Y55624D01*
X55134Y55774D01*
X55024Y55836D01*
X54820Y55857D01*
Y56022D01*
G37*
G36*
X54820Y54661D02*X54518Y54692D01*
X54346Y54787D01*
X54262Y54989D01*
X54235Y55339D01*
X54262Y55690D01*
X54346Y55895D01*
X54518Y55990D01*
X54820Y56022D01*
X54820Y56022D01*
Y55857D01*
X54820Y55857D01*
X54609Y55836D01*
X54500Y55774D01*
X54453Y55624D01*
X54439Y55339D01*
X54453Y55057D01*
X54500Y54909D01*
X54609Y54842D01*
X54820Y54820D01*
X54820Y54820D01*
Y54661D01*
X54820Y54661D01*
G37*
G36*
X53811Y55526D02*X53794Y55702D01*
X53750Y55802D01*
X53653Y55843D01*
X53475Y55857D01*
X53257Y55835D01*
X53139Y55769D01*
X53089Y55620D01*
X53072Y55350D01*
X53086Y55074D01*
X53133Y54920D01*
X53232Y54845D01*
X53414Y54820D01*
X53600Y54834D01*
X53712Y54876D01*
X53768Y54951D01*
X53789Y55080D01*
Y55112D01*
X53982D01*
X53953Y54895D01*
X53866Y54760D01*
X53697Y54685D01*
X53425Y54661D01*
X53151Y54697D01*
X52984Y54804D01*
X52897Y55005D01*
X52868Y55333D01*
X52894Y55682D01*
X52979Y55890D01*
X53154Y55989D01*
X53453Y56022D01*
X53693Y55994D01*
X53865Y55916D01*
X53968Y55784D01*
X54004Y55598D01*
Y55526D01*
X53811D01*
G37*
G36*
X54632Y49818D02*X54362D01*
X54081Y50717D01*
X53993Y50998D01*
X53954Y51141D01*
X53910Y51279D01*
X53905D01*
X53861Y51136D01*
X53817Y50998D01*
X53728Y50717D01*
X53436Y49818D01*
X53188D01*
X53734Y51466D01*
X54081D01*
X54632Y49818D01*
G37*
G36*
X52389Y50689D02*X53102D01*
Y50557D01*
X53066Y50169D01*
X52960Y49945D01*
X52740Y49833D01*
X52389Y49799D01*
Y49995D01*
X52626Y50015D01*
X52766Y50077D01*
X52831Y50203D01*
X52855Y50424D01*
Y50502D01*
X52389D01*
Y50689D01*
G37*
G36*
X52855Y50970D02*Y51020D01*
X52831Y51160D01*
X52766Y51240D01*
X52630Y51277D01*
X52392Y51290D01*
X52389Y51289D01*
Y51487D01*
X52403Y51488D01*
X52733Y51464D01*
X52949Y51389D01*
X53063Y51247D01*
X53102Y51031D01*
Y50970D01*
X52855D01*
G37*
G36*
X52389Y51289D02*X52138Y51264D01*
X52000Y51185D01*
X51938Y51006D01*
X51918Y50689D01*
X52389D01*
Y50502D01*
X51923D01*
X51944Y50238D01*
X52006Y50088D01*
X52144Y50018D01*
X52386Y49994D01*
X52389Y49995D01*
Y49799D01*
X52364Y49796D01*
X52017Y49839D01*
X51807Y49967D01*
X51699Y50214D01*
X51664Y50623D01*
X51697Y51065D01*
X51802Y51323D01*
X52022Y51447D01*
X52389Y51487D01*
Y51289D01*
G37*
G36*
X56878Y45585D02*Y47233D01*
X57121D01*
Y46246D01*
X57146Y46028D01*
X57220Y45874D01*
X57347Y45781D01*
X57524Y45750D01*
X57729Y45814D01*
X57799Y46004D01*
X57794Y46086D01*
X57788Y46131D01*
X58025D01*
Y46015D01*
X57996Y45810D01*
X57911Y45664D01*
X57770Y45575D01*
X57573Y45546D01*
X57288Y45606D01*
X57099Y45783D01*
X57094Y45778D01*
X57121Y45585D01*
X56878D01*
G37*
G36*
X55833Y46456D02*X56546D01*
Y46323D01*
X56510Y45936D01*
X56403Y45712D01*
X56184Y45600D01*
X55833Y45565D01*
Y45762D01*
X56070Y45782D01*
X56210Y45844D01*
X56275Y45969D01*
X56298Y46191D01*
Y46268D01*
X55833D01*
Y46456D01*
G37*
G36*
X56298Y46737D02*Y46786D01*
X56275Y46927D01*
X56210Y47007D01*
X56074Y47044D01*
X55835Y47057D01*
X55833Y47056D01*
Y47253D01*
X55846Y47255D01*
X56177Y47230D01*
X56392Y47156D01*
X56507Y47014D01*
X56546Y46798D01*
Y46737D01*
X56298D01*
G37*
G36*
X55833Y47056D02*X55582Y47030D01*
X55444Y46952D01*
X55382Y46773D01*
X55362Y46456D01*
X55833D01*
Y46268D01*
X55367D01*
X55388Y46005D01*
X55450Y45855D01*
X55587Y45785D01*
X55830Y45761D01*
X55833Y45762D01*
Y45565D01*
X55808Y45563D01*
X55461Y45606D01*
X55251Y45734D01*
X55142Y45980D01*
X55108Y46390D01*
X55141Y46832D01*
X55246Y47090D01*
X55466Y47214D01*
X55833Y47253D01*
Y47056D01*
G37*
G36*
X54752Y44879D02*X54510D01*
Y47233D01*
X54752D01*
Y44879D01*
G37*
G36*
X56470Y51466D02*X56712D01*
X57020Y51429D01*
X57219Y51317D01*
X57331Y51108D01*
X57368Y50788D01*
X57345Y50580D01*
X57274Y50419D01*
X57159Y50304D01*
X56999Y50237D01*
Y50231D01*
X57128Y50161D01*
X57222Y50055D01*
X57277Y49913D01*
X57296Y49735D01*
X57263Y49420D01*
X57164Y49234D01*
X56955Y49143D01*
X56596Y49112D01*
X56470D01*
Y49338D01*
X56591D01*
X56825Y49356D01*
X56960Y49410D01*
X57022Y49519D01*
X57043Y49713D01*
X57018Y49940D01*
X56949Y50072D01*
X56793Y50130D01*
X56519Y50149D01*
X56470D01*
Y50375D01*
X56508D01*
X56844Y50393D01*
X57021Y50446D01*
X57090Y50576D01*
X57114Y50832D01*
X57090Y51041D01*
X57021Y51163D01*
X56873Y51221D01*
X56624Y51240D01*
X56470D01*
Y51466D01*
G37*
G36*
X55560D02*X56470D01*
Y51240D01*
X55825D01*
Y50375D01*
X56470D01*
Y50149D01*
X55825D01*
Y49338D01*
X56470D01*
Y49112D01*
X55560D01*
Y51466D01*
G37*
G36*
X54280Y41351D02*Y43000D01*
X54522D01*
Y42013D01*
X54547Y41795D01*
X54622Y41641D01*
X54748Y41547D01*
X54924Y41517D01*
X55130Y41580D01*
X55200Y41770D01*
X55195Y41853D01*
X55189Y41897D01*
X55426D01*
Y41781D01*
X55397Y41576D01*
X55312Y41430D01*
X55171Y41342D01*
X54974Y41313D01*
X54689Y41372D01*
X54500Y41550D01*
X54495Y41544D01*
X54522Y41351D01*
X54280D01*
G37*
G36*
X53223Y41330D02*X53223Y41330D01*
Y41528D01*
X53223Y41528D01*
X53480Y41554D01*
X53619Y41632D01*
X53676Y41821D01*
X53697Y42178D01*
X53676Y42531D01*
X53619Y42718D01*
X53480Y42797D01*
X53223Y42823D01*
X53223Y42823D01*
Y43022D01*
X53223Y43022D01*
X53598Y42983D01*
X53812Y42867D01*
X53914Y42615D01*
X53950Y42178D01*
X53914Y41739D01*
X53812Y41489D01*
X53598Y41369D01*
X53223Y41330D01*
G37*
G36*
X53223Y41330D02*X52844Y41369D01*
X52628Y41489D01*
X52528Y41739D01*
X52495Y42178D01*
X52528Y42615D01*
X52628Y42867D01*
X52844Y42983D01*
X53223Y43022D01*
Y42823D01*
X52962Y42797D01*
X52826Y42718D01*
X52766Y42531D01*
X52748Y42178D01*
X52766Y41821D01*
X52826Y41632D01*
X52962Y41554D01*
X53223Y41528D01*
Y41330D01*
G37*
G36*
X52310Y41351D02*X51676D01*
Y40955D01*
X51434D01*
Y41351D01*
X51208D01*
Y41550D01*
X51434D01*
Y42619D01*
X51463Y42794D01*
X51554Y42921D01*
X51703Y42996D01*
X51914Y43022D01*
X52114Y42991D01*
X52255Y42900D01*
X52342Y42749D01*
X52371Y42537D01*
Y42415D01*
X52151D01*
X52145Y42509D01*
Y42586D01*
X52084Y42764D01*
X51908Y42823D01*
X51734Y42757D01*
X51676Y42559D01*
Y41550D01*
X52310D01*
Y41351D01*
G37*
G36*
X50405Y43022D02*X50779Y42983D01*
X50995Y42867D01*
X51096Y42615D01*
X51132Y42178D01*
X51096Y41739D01*
X50995Y41489D01*
X50779Y41369D01*
X50405Y41330D01*
Y41528D01*
X50662Y41554D01*
X50802Y41632D01*
X50858Y41821D01*
X50879Y42178D01*
X50858Y42531D01*
X50802Y42718D01*
X50662Y42797D01*
X50405Y42823D01*
Y43022D01*
G37*
G36*
X50405Y41330D02*X50026Y41369D01*
X49809Y41489D01*
X49710Y41739D01*
X49677Y42178D01*
X49710Y42615D01*
X49809Y42867D01*
X50026Y42983D01*
X50405Y43022D01*
X50405Y43022D01*
Y42823D01*
X50405Y42823D01*
X50144Y42797D01*
X50008Y42718D01*
X49948Y42531D01*
X49931Y42178D01*
X49948Y41821D01*
X50008Y41632D01*
X50144Y41554D01*
X50405Y41528D01*
X50405Y41528D01*
Y41330D01*
X50405Y41330D01*
G37*
G36*
X42000Y56999D02*Y62000D01*
X60000D01*
Y56999D01*
X42000D01*
G37*
G36*
X41350Y69953D02*X41617D01*
X41788Y69980D01*
X41909Y70066D01*
X41983Y70206D01*
X42008Y70405D01*
Y71000D01*
X42300D01*
Y70339D01*
X42274Y70132D01*
X42197Y69979D01*
X42070Y69880D01*
X41892Y69837D01*
Y69831D01*
X42109Y69767D01*
X42245Y69650D01*
X42314Y69452D01*
X42339Y69148D01*
X42295Y68805D01*
X42168Y68580D01*
X41934Y68456D01*
X41578Y68415D01*
X41350D01*
Y68657D01*
X41584D01*
X41824Y68685D01*
X41964Y68768D01*
X42033Y68934D01*
X42058Y69225D01*
X42026Y69458D01*
X41936Y69606D01*
X41761Y69680D01*
X41485Y69705D01*
X41350D01*
Y69953D01*
G37*
G36*
X40349Y71000D02*X40641D01*
Y69953D01*
X41350D01*
Y69705D01*
X40641D01*
Y68657D01*
X41350D01*
Y68415D01*
X40349D01*
Y71000D01*
G37*
G36*
X51015Y68415D02*X50596D01*
X49880Y69192D01*
X50067Y69363D01*
X50728Y68630D01*
Y71000D01*
X51015D01*
Y68415D01*
G37*
G36*
X49181D02*X48663D01*
X47979Y70090D01*
X47869Y70355D01*
X47814Y70493D01*
X47764Y70625D01*
X47753D01*
X47704Y70493D01*
X47648Y70355D01*
X47538Y70085D01*
X46844Y68415D01*
X46342D01*
Y71000D01*
X46634D01*
Y68790D01*
X46629Y68718D01*
Y68646D01*
X46634D01*
X46656Y68707D01*
X46684Y68768D01*
X46733Y68883D01*
X47616Y71000D01*
X47908D01*
X48790Y68861D01*
X48839Y68740D01*
X48861Y68679D01*
X48883Y68619D01*
X48889D01*
Y71000D01*
X49181D01*
Y68415D01*
G37*
G36*
X51981Y54682D02*X51474D01*
Y54363D01*
X51281D01*
Y54682D01*
X51094D01*
Y54842D01*
X51281D01*
Y55697D01*
X51304Y55839D01*
X51376Y55941D01*
X51495Y56002D01*
X51661Y56022D01*
X51821Y55997D01*
X51937Y55924D01*
X52007Y55802D01*
X52031Y55631D01*
Y55532D01*
X51849D01*
Y55603D01*
X51843Y55669D01*
X51798Y55810D01*
X51661Y55857D01*
X51519Y55804D01*
X51474Y55647D01*
Y54842D01*
X51981D01*
Y54682D01*
G37*
G36*
X50525Y50513D02*X50767D01*
X50923Y50538D01*
X51034Y50616D01*
X51102Y50744D01*
X51125Y50926D01*
Y51466D01*
X51390D01*
Y50865D01*
X51365Y50675D01*
X51295Y50536D01*
X51178Y50447D01*
X51015Y50408D01*
Y50402D01*
X51212Y50346D01*
X51335Y50243D01*
X51399Y50062D01*
X51423Y49785D01*
X51383Y49471D01*
X51269Y49267D01*
X51057Y49151D01*
X50734Y49112D01*
X50525D01*
Y49339D01*
X50734D01*
X50956Y49364D01*
X51087Y49438D01*
X51148Y49588D01*
X51169Y49851D01*
X51141Y50065D01*
X51059Y50198D01*
X50899Y50269D01*
X50646Y50292D01*
X50525D01*
Y50513D01*
G37*
G36*
X49615Y51466D02*X49880D01*
Y50513D01*
X50525D01*
Y50292D01*
X49880D01*
Y49339D01*
X50525D01*
Y49112D01*
X49615D01*
Y51466D01*
G37*
G36*
X48142Y49112D02*X47728D01*
X47329Y49625D01*
Y49988D01*
X47872Y49284D01*
X47877D01*
Y50700D01*
X47329D01*
Y50926D01*
X47877D01*
Y51466D01*
X48142D01*
Y50926D01*
X48495D01*
Y50700D01*
X48142D01*
Y49112D01*
G37*
G36*
X47329Y49625D02*X46560Y50612D01*
Y50926D01*
X47329D01*
Y50700D01*
X46780D01*
X47329Y49988D01*
Y49625D01*
G37*
G36*
X46280Y49112D02*X45663Y50893D01*
X45547Y51251D01*
X45536D01*
X45481Y51069D01*
X45420Y50893D01*
X44792Y49112D01*
X44511D01*
X45348Y51466D01*
X45729D01*
X46561Y49112D01*
X46280D01*
G37*
G36*
X50173Y54682D02*Y56000D01*
X50366D01*
Y55212D01*
X50385Y55035D01*
X50446Y54910D01*
X50548Y54834D01*
X50691Y54810D01*
X50855Y54860D01*
X50912Y55013D01*
X50906Y55085D01*
X50901Y55118D01*
X51094D01*
Y55024D01*
X51070Y54860D01*
X51002Y54743D01*
X50888Y54673D01*
X50730Y54650D01*
X50502Y54697D01*
X50355Y54837D01*
X50350Y54831D01*
X50366Y54682D01*
X50173D01*
G37*
G36*
X49244Y54817D02*X49275Y54815D01*
X49446Y54831D01*
X49544Y54881D01*
X49589Y54987D01*
X49605Y55173D01*
Y55333D01*
X49600D01*
X49464Y55230D01*
X49244Y55202D01*
Y55351D01*
X49418Y55364D01*
X49534Y55405D01*
X49596Y55481D01*
X49616Y55609D01*
X49590Y55716D01*
X49513Y55795D01*
X49386Y55840D01*
X49244Y55853D01*
Y56011D01*
X49448Y55981D01*
X49616Y55857D01*
X49622D01*
X49605Y56000D01*
X49798D01*
Y55129D01*
X49769Y54902D01*
X49682Y54760D01*
X49513Y54685D01*
X49244Y54661D01*
Y54817D01*
G37*
G36*
Y55202D02*X49186Y55195D01*
X48937Y55219D01*
X48779Y55289D01*
X48694Y55416D01*
X48668Y55620D01*
X48699Y55795D01*
X48792Y55922D01*
X48949Y55996D01*
X49170Y56022D01*
X49244Y56011D01*
Y55853D01*
X49208Y55857D01*
X49038Y55844D01*
X48938Y55807D01*
X48889Y55730D01*
X48872Y55598D01*
X48889Y55471D01*
X48938Y55399D01*
X49043Y55362D01*
X49231Y55350D01*
X49244Y55351D01*
Y55202D01*
G37*
G36*
X48916Y55052D02*Y55013D01*
X48938Y54927D01*
X49004Y54865D01*
X49116Y54827D01*
X49244Y54817D01*
Y54661D01*
X49236Y54661D01*
X48981Y54681D01*
X48828Y54743D01*
X48754Y54859D01*
X48729Y55052D01*
X48916D01*
G37*
G36*
X47841Y56011D02*X47908Y56022D01*
X48145Y55986D01*
X48299Y55879D01*
X48386Y55675D01*
X48415Y55361D01*
X48386Y55022D01*
X48304Y54810D01*
X48147Y54698D01*
X47902Y54661D01*
X47841Y54671D01*
Y54821D01*
X47847Y54820D01*
X48037Y54845D01*
X48145Y54920D01*
X48194Y55078D01*
X48211Y55355D01*
X48191Y55611D01*
X48139Y55763D01*
X48033Y55833D01*
X47852Y55857D01*
X47841Y55855D01*
Y56011D01*
G37*
G36*
X47279Y54682D02*Y56568D01*
X47472D01*
Y55846D01*
X47478D01*
X47636Y55978D01*
X47841Y56011D01*
Y55855D01*
X47662Y55832D01*
X47549Y55757D01*
X47490Y55606D01*
X47472Y55350D01*
X47489Y55081D01*
X47544Y54925D01*
X47654Y54847D01*
X47841Y54821D01*
Y54671D01*
X47624Y54709D01*
X47467Y54854D01*
X47461Y54848D01*
X47472Y54682D01*
X47279D01*
G37*
G36*
X45551Y55239D02*X45747D01*
X45871Y55259D01*
X45960Y55321D01*
X46014Y55421D01*
X46034Y55565D01*
Y56000D01*
X46243D01*
Y55520D01*
X46224Y55369D01*
X46169Y55259D01*
X46075Y55187D01*
X45945Y55157D01*
Y55151D01*
X46105Y55102D01*
X46204Y55019D01*
X46254Y54876D01*
X46270Y54655D01*
X46237Y54403D01*
X46144Y54242D01*
X45976Y54151D01*
X45719Y54120D01*
X45551D01*
Y54297D01*
X45725D01*
X45900Y54316D01*
X46000Y54374D01*
X46050Y54495D01*
X46066Y54705D01*
X46043Y54877D01*
X45978Y54986D01*
X45850Y55040D01*
X45648Y55057D01*
X45551D01*
Y55239D01*
G37*
G36*
X44826Y56000D02*X45036D01*
Y55239D01*
X45551D01*
Y55057D01*
X45036D01*
Y54297D01*
X45551D01*
Y54120D01*
X44826D01*
Y56000D01*
G37*
G36*
X44534Y54627D02*X44501Y54355D01*
X44402Y54198D01*
X44201Y54123D01*
X43856Y54098D01*
X43506Y54126D01*
X43299Y54209D01*
X43195Y54367D01*
X43162Y54633D01*
X43190Y54837D01*
X43279Y54989D01*
X43428Y55085D01*
X43636Y55129D01*
X43845Y55140D01*
X44066Y55151D01*
X44214Y55174D01*
X44303Y55223D01*
X44347Y55307D01*
X44363Y55449D01*
X44343Y55666D01*
X44281Y55780D01*
X44125Y55825D01*
X43828Y55840D01*
X43572Y55825D01*
X43437Y55780D01*
X43378Y55671D01*
X43360Y55465D01*
Y55416D01*
X43145D01*
X43151Y55504D01*
X43184Y55762D01*
X43283Y55918D01*
X43483Y55996D01*
X43823Y56022D01*
X44208Y55996D01*
X44430Y55918D01*
X44531Y55752D01*
X44567Y55465D01*
X44536Y55204D01*
X44446Y55057D01*
X44248Y54982D01*
X43889Y54942D01*
X43588Y54917D01*
X43437Y54876D01*
X43378Y54782D01*
X43360Y54600D01*
X43382Y54433D01*
X43454Y54341D01*
X43611Y54295D01*
X43889Y54280D01*
X44116Y54295D01*
X44242Y54341D01*
X44298Y54443D01*
X44319Y54627D01*
X44534D01*
G37*
G36*
X54112Y44879D02*X53869D01*
Y47233D01*
X54112D01*
Y44879D01*
G37*
G36*
X52838Y47255D02*X53213Y47216D01*
X53428Y47101D01*
X53530Y46848D01*
X53566Y46412D01*
X53530Y45972D01*
X53428Y45723D01*
X53213Y45603D01*
X52838Y45563D01*
Y45761D01*
X53096Y45787D01*
X53235Y45866D01*
X53292Y46055D01*
X53312Y46412D01*
X53292Y46764D01*
X53235Y46952D01*
X53096Y47030D01*
X52838Y47057D01*
Y47255D01*
G37*
G36*
X52838Y45563D02*X52459Y45603D01*
X52243Y45723D01*
X52144Y45972D01*
X52111Y46412D01*
X52144Y46848D01*
X52243Y47101D01*
X52459Y47216D01*
X52838Y47255D01*
X52838Y47255D01*
Y47057D01*
X52838Y47057D01*
X52578Y47030D01*
X52441Y46952D01*
X52382Y46764D01*
X52364Y46412D01*
X52382Y46055D01*
X52441Y45866D01*
X52578Y45787D01*
X52838Y45761D01*
X52838Y45761D01*
Y45563D01*
X52838Y45563D01*
G37*
G36*
X50833Y45585D02*Y47233D01*
X51076D01*
Y46246D01*
X51101Y46028D01*
X51175Y45874D01*
X51302Y45781D01*
X51478Y45750D01*
X51684Y45814D01*
X51754Y46004D01*
X51748Y46086D01*
X51743Y46131D01*
X51980D01*
Y46015D01*
X51951Y45810D01*
X51866Y45664D01*
X51725Y45575D01*
X51528Y45546D01*
X51242Y45606D01*
X51054Y45783D01*
X51048Y45778D01*
X51076Y45585D01*
X50833D01*
G37*
G36*
X50578D02*X49944D01*
Y45188D01*
X49702D01*
Y45585D01*
X49476D01*
Y45783D01*
X49702D01*
Y46853D01*
X49731Y47028D01*
X49822Y47154D01*
X49970Y47229D01*
X50181Y47255D01*
X50381Y47225D01*
X50523Y47134D01*
X50610Y46982D01*
X50639Y46770D01*
Y46649D01*
X50418D01*
X50413Y46742D01*
Y46819D01*
X50352Y46997D01*
X50176Y47057D01*
X50002Y46990D01*
X49944Y46792D01*
Y45783D01*
X50578D01*
Y45585D01*
G37*
G36*
X47954D02*Y47233D01*
X48197D01*
Y46241D01*
X48227Y46030D01*
X48322Y45881D01*
X48481Y45790D01*
X48704Y45761D01*
X48898Y45781D01*
X49018Y45838D01*
X49080Y45944D01*
X49101Y46119D01*
Y47233D01*
X49338D01*
Y46164D01*
X49305Y45869D01*
X49211Y45690D01*
X49031Y45594D01*
X48737Y45563D01*
X48539Y45578D01*
X48382Y45626D01*
X48266Y45705D01*
X48191Y45816D01*
X48180Y45811D01*
X48191Y45585D01*
X47954D01*
G37*
G36*
X49414Y40646D02*X48945D01*
X48322Y42173D01*
X48223Y42415D01*
X48174Y42537D01*
X48124Y42658D01*
X48118D01*
X48019Y42415D01*
X47920Y42167D01*
X47292Y40646D01*
X46834D01*
Y43000D01*
X47099D01*
Y40988D01*
X47093Y40921D01*
Y40861D01*
X47099D01*
X47121Y40916D01*
X47143Y40971D01*
X47187Y41076D01*
X47992Y43000D01*
X48256D01*
X49056Y41054D01*
X49105Y40944D01*
X49122Y40888D01*
X49144Y40833D01*
X49149D01*
Y43000D01*
X49414D01*
Y40646D01*
G37*
G36*
X46925Y45563D02*X46925Y45563D01*
Y45761D01*
X46925Y45761D01*
X47183Y45787D01*
X47322Y45866D01*
X47378Y46055D01*
X47399Y46412D01*
X47378Y46764D01*
X47322Y46952D01*
X47183Y47030D01*
X46925Y47057D01*
X46925Y47057D01*
Y47255D01*
X46925Y47255D01*
X47300Y47216D01*
X47515Y47101D01*
X47617Y46848D01*
X47653Y46412D01*
X47617Y45972D01*
X47515Y45723D01*
X47300Y45603D01*
X46925Y45563D01*
G37*
G36*
X46925Y45563D02*X46546Y45603D01*
X46330Y45723D01*
X46231Y45972D01*
X46198Y46412D01*
X46231Y46848D01*
X46330Y47101D01*
X46546Y47216D01*
X46925Y47255D01*
Y47057D01*
X46665Y47030D01*
X46528Y46952D01*
X46469Y46764D01*
X46451Y46412D01*
X46469Y46055D01*
X46528Y45866D01*
X46665Y45787D01*
X46925Y45761D01*
Y45563D01*
G37*
G36*
X45772Y46445D02*X45777Y46588D01*
X45748Y46831D01*
X45661Y46963D01*
X45456Y47016D01*
X45077Y47035D01*
X44854Y47023D01*
X44684Y46992D01*
X44565Y46938D01*
X44498Y46864D01*
X44461Y46727D01*
X44436Y46488D01*
X44420Y46144D01*
X44416Y45701D01*
X44444Y45355D01*
X44537Y45177D01*
X44774Y45107D01*
X45237Y45083D01*
X45499Y45104D01*
X45650Y45166D01*
X45719Y45295D01*
X45744Y45530D01*
Y45601D01*
X46009D01*
Y45535D01*
X45967Y45203D01*
X45849Y45000D01*
X45619Y44893D01*
X45242Y44857D01*
X44941Y44865D01*
X44697Y44893D01*
X44511Y44937D01*
X44382Y45000D01*
X44243Y45136D01*
X44173Y45287D01*
X44148Y45556D01*
X44140Y46053D01*
X44150Y46409D01*
X44178Y46693D01*
X44228Y46905D01*
X44300Y47046D01*
X44406Y47136D01*
X44566Y47203D01*
X44781Y47241D01*
X45049Y47255D01*
X45348Y47247D01*
X45584Y47226D01*
X45758Y47189D01*
X45871Y47139D01*
X45995Y46928D01*
X46036Y46538D01*
Y46445D01*
X45772D01*
G37*
G36*
X31659Y77622D02*Y77947D01*
X34085D01*
Y77622D01*
X31659D01*
G37*
G36*
X39389Y78603D02*X39653D01*
Y77831D01*
X40414D01*
Y77583D01*
X39653D01*
Y76811D01*
X39389D01*
Y77583D01*
X38622D01*
Y77831D01*
X39389D01*
Y78603D01*
G37*
G36*
X41096Y66603D02*X41245Y67000D01*
X41465D01*
X40765Y65120D01*
X40622D01*
Y65306D01*
X41035Y66443D01*
X40622D01*
Y66603D01*
X41096D01*
G37*
G36*
X40622Y65120D02*X40468D01*
X39778Y67000D01*
X39999D01*
X40148Y66603D01*
X40622D01*
Y66443D01*
X40208D01*
X40616Y65291D01*
X40622Y65306D01*
Y65120D01*
G37*
G36*
X38897Y65098D02*Y65280D01*
X39211Y65306D01*
X39360Y65385D01*
X39412Y65602D01*
X39431Y66057D01*
X39426Y66316D01*
X39412Y66517D01*
X39390Y66658D01*
X39360Y66740D01*
X39211Y66815D01*
X38897Y66840D01*
Y67022D01*
X39125Y67011D01*
X39307Y66977D01*
X39442Y66922D01*
X39531Y66845D01*
X39574Y66744D01*
X39608Y66579D01*
X39628Y66349D01*
X39635Y66057D01*
X39627Y65751D01*
X39606Y65514D01*
X39572Y65343D01*
X39525Y65241D01*
X39445Y65178D01*
X39314Y65134D01*
X39131Y65106D01*
X38897Y65098D01*
G37*
G36*
Y65098D02*X38483Y65132D01*
X38268Y65236D01*
X38219Y65334D01*
X38184Y65493D01*
X38164Y65712D01*
X38158Y65991D01*
X38164Y66312D01*
X38183Y66563D01*
X38216Y66740D01*
X38263Y66845D01*
X38351Y66922D01*
X38486Y66977D01*
X38668Y67011D01*
X38897Y67022D01*
Y66840D01*
X38580Y66815D01*
X38428Y66740D01*
X38378Y66517D01*
X38362Y66057D01*
X38378Y65602D01*
X38428Y65385D01*
X38580Y65306D01*
X38897Y65280D01*
Y65098D01*
G37*
G36*
X37811Y66818D02*X36664D01*
Y66757D01*
X36681Y66519D01*
X36730Y66399D01*
X36872Y66341D01*
X37160Y66300D01*
X37495Y66239D01*
X37689Y66145D01*
X37783Y65974D01*
X37816Y65693D01*
X37783Y65398D01*
X37684Y65219D01*
X37490Y65128D01*
X37171Y65098D01*
X36812Y65127D01*
X36598Y65214D01*
X36493Y65380D01*
X36460Y65660D01*
X36455Y65759D01*
X36664D01*
Y65616D01*
X36685Y65437D01*
X36752Y65340D01*
X36901Y65295D01*
X37177Y65280D01*
X37402Y65298D01*
X37530Y65351D01*
X37592Y65466D01*
X37612Y65666D01*
X37593Y65889D01*
X37540Y66007D01*
X37399Y66067D01*
X37122Y66112D01*
X36765Y66173D01*
X36570Y66256D01*
X36484Y66400D01*
X36455Y66647D01*
Y67000D01*
X37811D01*
Y66818D01*
G37*
G36*
X35380Y65120D02*X34889Y66542D01*
X34795Y66829D01*
X34790D01*
X34746Y66685D01*
X34696Y66536D01*
X34195Y65120D01*
X33963D01*
X34641Y67000D01*
X34944D01*
X35606Y65120D01*
X35380D01*
G37*
G36*
X33759Y66818D02*X32613D01*
Y66757D01*
X32629Y66519D01*
X32679Y66399D01*
X32821Y66341D01*
X33109Y66300D01*
X33444Y66239D01*
X33638Y66145D01*
X33732Y65974D01*
X33765Y65693D01*
X33732Y65398D01*
X33632Y65219D01*
X33438Y65128D01*
X33120Y65098D01*
X32760Y65127D01*
X32547Y65214D01*
X32442Y65380D01*
X32409Y65660D01*
X32403Y65759D01*
X32613D01*
Y65616D01*
X32633Y65437D01*
X32701Y65340D01*
X32850Y65295D01*
X33125Y65280D01*
X33350Y65298D01*
X33478Y65351D01*
X33540Y65466D01*
X33561Y65666D01*
X33542Y65889D01*
X33489Y66007D01*
X33347Y66067D01*
X33070Y66112D01*
X32713Y66173D01*
X32519Y66256D01*
X32432Y66400D01*
X32403Y66647D01*
Y67000D01*
X33759D01*
Y66818D01*
G37*
G36*
X38569Y68657D02*X39936D01*
Y68415D01*
X38277D01*
Y71000D01*
X39936D01*
Y70752D01*
X38569D01*
Y69787D01*
X39881D01*
Y69539D01*
X38569D01*
Y68657D01*
G37*
G36*
X38060Y68415D02*X37752D01*
X37184Y70267D01*
X37029Y70774D01*
X37024D01*
X36991Y70653D01*
X36958Y70526D01*
X36881Y70278D01*
X36335Y68415D01*
X35905D01*
X35354Y70272D01*
X35282Y70526D01*
X35243Y70647D01*
X35210Y70774D01*
X35205D01*
X35166Y70647D01*
X35128Y70526D01*
X35050Y70272D01*
X34494Y68415D01*
X34196D01*
X34990Y71000D01*
X35425D01*
X35982Y69142D01*
X36048Y68905D01*
X36114Y68674D01*
X36120D01*
X36153Y68790D01*
X36186Y68905D01*
X36258Y69137D01*
X36798Y71000D01*
X37244D01*
X38060Y68415D01*
G37*
G36*
X32957Y68387D02*X32957Y68387D01*
Y68635D01*
X32957Y68635D01*
X33393Y68664D01*
X33635Y68751D01*
X33741Y68944D01*
X33778Y69291D01*
Y69705D01*
X33772Y70066D01*
X33751Y70343D01*
X33718Y70537D01*
X33674Y70647D01*
X33591Y70705D01*
X33444Y70746D01*
X33233Y70771D01*
X32957Y70780D01*
X32957Y70779D01*
Y71027D01*
X32957Y71027D01*
X33295Y71014D01*
X33562Y70974D01*
X33758Y70906D01*
X33883Y70813D01*
X33959Y70658D01*
X34014Y70417D01*
X34047Y70088D01*
X34060Y69672D01*
X34047Y69284D01*
X34011Y68977D01*
X33954Y68750D01*
X33872Y68602D01*
X33746Y68507D01*
X33551Y68441D01*
X33288Y68400D01*
X32957Y68387D01*
G37*
G36*
X32957Y68387D02*X32665Y68398D01*
X32423Y68434D01*
X32232Y68492D01*
X32092Y68575D01*
X31990Y68689D01*
X31918Y68845D01*
X31874Y69042D01*
X31860Y69280D01*
X31855Y69523D01*
Y69705D01*
X31864Y70108D01*
X31898Y70428D01*
X31953Y70662D01*
X32031Y70813D01*
X32157Y70906D01*
X32353Y70974D01*
X32620Y71014D01*
X32957Y71027D01*
Y70779D01*
X32682Y70771D01*
X32471Y70746D01*
X32323Y70705D01*
X32241Y70647D01*
X32194Y70537D01*
X32161Y70343D01*
X32142Y70066D01*
X32136Y69705D01*
X32142Y69346D01*
X32161Y69072D01*
X32194Y68881D01*
X32241Y68773D01*
X32323Y68712D01*
X32471Y68670D01*
X32682Y68644D01*
X32957Y68635D01*
Y68387D01*
G37*
G36*
X30660Y69980D02*X30836D01*
X31219Y69940D01*
X31459Y69820D01*
X31583Y69586D01*
X31625Y69214D01*
X31583Y68826D01*
X31465Y68586D01*
X31235Y68457D01*
X30869Y68415D01*
X30660D01*
Y68657D01*
X30759D01*
X30869Y68663D01*
X31120Y68688D01*
X31261Y68762D01*
X31323Y68930D01*
X31344Y69236D01*
X31312Y69498D01*
X31222Y69644D01*
X31021Y69710D01*
X30665Y69732D01*
X30660D01*
Y69980D01*
G37*
G36*
X29684Y71000D02*X29977D01*
Y69980D01*
X30660D01*
Y69732D01*
X29977D01*
Y68657D01*
X30660D01*
Y68415D01*
X29684D01*
Y71000D01*
G37*
G36*
X24673Y68387D02*X24672Y68387D01*
Y68635D01*
X24673Y68635D01*
X24916Y68644D01*
X25104Y68671D01*
X25236Y68715D01*
X25312Y68778D01*
X25352Y68888D01*
X25381Y69079D01*
X25399Y69350D01*
X25406Y69705D01*
X25399Y70060D01*
X25381Y70336D01*
X25352Y70529D01*
X25312Y70642D01*
X25236Y70701D01*
X25104Y70745D01*
X24916Y70770D01*
X24673Y70780D01*
X24672Y70779D01*
Y71027D01*
X24673Y71027D01*
X24987Y71012D01*
X25236Y70967D01*
X25422Y70891D01*
X25543Y70785D01*
X25606Y70647D01*
X25650Y70421D01*
X25677Y70107D01*
X25687Y69705D01*
X25677Y69284D01*
X25650Y68958D01*
X25603Y68722D01*
X25538Y68580D01*
X25428Y68495D01*
X25246Y68435D01*
X24994Y68398D01*
X24673Y68387D01*
G37*
G36*
X24672Y68387D02*X24353Y68398D01*
X24103Y68434D01*
X23923Y68492D01*
X23812Y68575D01*
X23744Y68710D01*
X23695Y68927D01*
X23666Y69228D01*
X23658Y69611D01*
X23666Y70055D01*
X23691Y70398D01*
X23735Y70642D01*
X23796Y70785D01*
X23919Y70891D01*
X24106Y70967D01*
X24357Y71012D01*
X24672Y71027D01*
Y70779D01*
X24427Y70770D01*
X24238Y70745D01*
X24107Y70701D01*
X24033Y70642D01*
X23990Y70529D01*
X23961Y70336D01*
X23945Y70060D01*
X23939Y69705D01*
X23945Y69350D01*
X23961Y69079D01*
X23990Y68888D01*
X24033Y68778D01*
X24107Y68715D01*
X24238Y68671D01*
X24427Y68644D01*
X24672Y68635D01*
Y68387D01*
G37*
G36*
X23181Y68415D02*X22663D01*
X21980Y70090D01*
X21870Y70355D01*
X21814Y70493D01*
X21765Y70625D01*
X21754D01*
X21704Y70493D01*
X21649Y70355D01*
X21539Y70085D01*
X20844Y68415D01*
X20343D01*
Y71000D01*
X20635D01*
Y68790D01*
X20629Y68718D01*
Y68646D01*
X20635D01*
X20657Y68707D01*
X20684Y68768D01*
X20734Y68883D01*
X21616Y71000D01*
X21908D01*
X22790Y68861D01*
X22840Y68740D01*
X22862Y68679D01*
X22884Y68619D01*
X22889D01*
Y71000D01*
X23181D01*
Y68415D01*
G37*
G36*
X31637Y65120D02*X31328D01*
X30810Y65682D01*
X30943Y65809D01*
X31422Y65274D01*
Y67000D01*
X31637D01*
Y65120D01*
G37*
G36*
X23298Y61638D02*X23278Y61862D01*
X23222Y61985D01*
X23097Y62039D01*
X22874Y62057D01*
X22607Y62029D01*
X22461Y61946D01*
X22393Y61757D01*
X22373Y61423D01*
X22390Y61078D01*
X22450Y60882D01*
X22574Y60792D01*
X22797Y60761D01*
X23030Y60778D01*
X23172Y60827D01*
X23246Y60921D01*
X23271Y61081D01*
Y61125D01*
X23514D01*
X23476Y60852D01*
X23365Y60684D01*
X23154Y60593D01*
X22819Y60563D01*
X22474Y60607D01*
X22262Y60739D01*
X22153Y60990D01*
X22119Y61401D01*
X22153Y61835D01*
X22262Y62090D01*
X22478Y62214D01*
X22847Y62255D01*
X23150Y62222D01*
X23367Y62123D01*
X23497Y61957D01*
X23541Y61726D01*
Y61638D01*
X23298D01*
G37*
G36*
X19366Y60585D02*Y62233D01*
X19608D01*
Y61296D01*
X19639Y61062D01*
X19732Y60895D01*
X19886Y60794D01*
X20104Y60761D01*
X20263Y60780D01*
X20377Y60841D01*
X20445Y60940D01*
X20468Y61081D01*
Y62233D01*
X20711D01*
Y61279D01*
X20735Y61026D01*
X20810Y60872D01*
X20959Y60789D01*
X21201Y60761D01*
X21380Y60780D01*
X21493Y60838D01*
X21550Y60951D01*
X21570Y61136D01*
Y62233D01*
X21813D01*
Y61158D01*
X21776Y60898D01*
X21666Y60712D01*
X21484Y60600D01*
X21229Y60563D01*
X20879Y60632D01*
X20661Y60838D01*
X20656D01*
X20589Y60717D01*
X20483Y60632D01*
X20336Y60579D01*
X20148Y60563D01*
X19814Y60632D01*
X19608Y60838D01*
X19603Y60833D01*
X19608Y60585D01*
X19366D01*
G37*
G36*
X18995Y59879D02*X18802D01*
X16730Y62938D01*
X16928D01*
X18995Y59879D01*
G37*
G36*
X22800Y56330D02*X22800Y56330D01*
Y56528D01*
X22800Y56528D01*
X23057Y56554D01*
X23197Y56632D01*
X23253Y56821D01*
X23274Y57178D01*
X23253Y57531D01*
X23197Y57719D01*
X23057Y57797D01*
X22800Y57823D01*
X22800Y57823D01*
Y58022D01*
X22800Y58022D01*
X23174Y57983D01*
X23390Y57867D01*
X23492Y57615D01*
X23527Y57178D01*
X23492Y56739D01*
X23390Y56489D01*
X23174Y56369D01*
X22800Y56330D01*
G37*
G36*
X22800Y56330D02*X22421Y56369D01*
X22204Y56489D01*
X22105Y56739D01*
X22072Y57178D01*
X22105Y57615D01*
X22204Y57867D01*
X22421Y57983D01*
X22800Y58022D01*
Y57823D01*
X22539Y57797D01*
X22403Y57719D01*
X22344Y57531D01*
X22326Y57178D01*
X22344Y56821D01*
X22403Y56632D01*
X22539Y56554D01*
X22800Y56528D01*
Y56330D01*
G37*
G36*
X20439Y56781D02*Y56721D01*
X20398Y56548D01*
X20274Y56427D01*
X20070Y56353D01*
X19783Y56330D01*
X19442Y56353D01*
X19238Y56423D01*
X19138Y56560D01*
X19105Y56792D01*
X19147Y57035D01*
X19276Y57178D01*
X19541Y57244D01*
X19998Y57266D01*
X20174Y57332D01*
X20235Y57531D01*
X20210Y57678D01*
X20142Y57768D01*
X19995Y57810D01*
X19750Y57823D01*
X19546Y57810D01*
X19425Y57768D01*
X19363Y57687D01*
X19342Y57553D01*
X19337Y57476D01*
X19089D01*
Y57564D01*
X19126Y57787D01*
X19238Y57928D01*
X19452Y57998D01*
X19794Y58022D01*
X20129Y57997D01*
X20340Y57922D01*
X20452Y57775D01*
X20489Y57542D01*
X20460Y57345D01*
X20377Y57202D01*
X20236Y57111D01*
X20042Y57073D01*
X19794Y57057D01*
X19601Y57046D01*
X19415Y56974D01*
X19353Y56781D01*
X19370Y56646D01*
X19425Y56572D01*
X19548Y56539D01*
X19767Y56528D01*
X20001Y56539D01*
X20125Y56572D01*
X20177Y56644D01*
X20197Y56781D01*
X20439D01*
G37*
G36*
X18769Y57680D02*X18499D01*
Y58000D01*
X18769D01*
Y57680D01*
G37*
G36*
X20795Y56352D02*Y58000D01*
X21037D01*
Y57013D01*
X21062Y56795D01*
X21136Y56641D01*
X21263Y56547D01*
X21440Y56517D01*
X21645Y56580D01*
X21715Y56770D01*
X21710Y56853D01*
X21704Y56897D01*
X21941D01*
Y56781D01*
X21912Y56576D01*
X21827Y56430D01*
X21686Y56342D01*
X21489Y56313D01*
X21204Y56372D01*
X21015Y56550D01*
X21010Y56544D01*
X21037Y56352D01*
X20795D01*
G37*
G36*
X18373D02*X18114D01*
X17883Y57266D01*
X17811Y57548D01*
X17745Y57834D01*
X17740D01*
X17706Y57691D01*
X17673Y57553D01*
X17602Y57266D01*
X17381Y56352D01*
X17028D01*
X16802Y57266D01*
X16731Y57548D01*
X16665Y57834D01*
X16659D01*
X16626Y57691D01*
X16588Y57548D01*
X16516Y57266D01*
X16284Y56352D01*
X15846D01*
X15615Y57266D01*
X15543Y57548D01*
X15477Y57834D01*
X15471D01*
X15438Y57691D01*
X15405Y57553D01*
X15334Y57266D01*
X15113Y56352D01*
X14760D01*
X14534Y57266D01*
X14463Y57548D01*
X14396Y57834D01*
X14391D01*
X14358Y57691D01*
X14319Y57548D01*
X14248Y57266D01*
X14016Y56352D01*
X13578D01*
X13346Y57266D01*
X13275Y57548D01*
X13209Y57834D01*
X13203D01*
X13170Y57691D01*
X13137Y57553D01*
X13065Y57266D01*
X12845Y56352D01*
X12492D01*
X12266Y57266D01*
X12194Y57548D01*
X12128Y57834D01*
X12123D01*
X12090Y57691D01*
X12051Y57548D01*
X11979Y57266D01*
X11748Y56352D01*
X11494D01*
X11941Y58000D01*
X12305D01*
X12531Y57085D01*
X12597Y56803D01*
X12663Y56528D01*
X12668D01*
X12702Y56666D01*
X12729Y56803D01*
X12795Y57085D01*
X13016Y58000D01*
X13374D01*
X13799Y56486D01*
X14209Y58000D01*
X14573D01*
X14799Y57085D01*
X14865Y56803D01*
X14931Y56528D01*
X14937D01*
X14970Y56666D01*
X14997Y56803D01*
X15064Y57085D01*
X15284Y58000D01*
X15642D01*
X16067Y56486D01*
X16477Y58000D01*
X16841D01*
X17067Y57085D01*
X17133Y56803D01*
X17199Y56528D01*
X17205D01*
X17238Y56666D01*
X17265Y56803D01*
X17332Y57085D01*
X17552Y58000D01*
X17910D01*
X18373Y56352D01*
G37*
G36*
X22000Y41000D02*X21808Y41004D01*
Y43984D01*
X21893D01*
X21965Y44002D01*
X22000D01*
X22089Y44037D01*
X22251Y44073D01*
X22465Y44126D01*
X23012Y44288D01*
X23697Y44502D01*
X24466Y44751D01*
X25280Y45040D01*
X26103Y45369D01*
X26895Y45734D01*
X27043Y45827D01*
X27160Y45958D01*
X27238Y46115D01*
X27273Y46289D01*
X27255Y46463D01*
X27192Y46627D01*
X27087Y46769D01*
X26949Y46877D01*
X26253Y47273D01*
X25606Y47619D01*
X24989Y47929D01*
X24394Y48217D01*
X25007Y48513D01*
X25572Y48824D01*
X25865Y49004D01*
X26132Y49176D01*
X26370Y49336D01*
X26573Y49479D01*
X26740Y49599D01*
X26862Y49691D01*
X26939Y49749D01*
X26967Y49771D01*
X27130Y49963D01*
X27207Y50205D01*
X27192Y50459D01*
X27081Y50686D01*
X26883Y50843D01*
X26638Y50912D01*
X26385Y50890D01*
X26162Y50772D01*
X26137Y50752D01*
X26070Y50702D01*
X25961Y50622D01*
X25814Y50517D01*
X25632Y50390D01*
X25418Y50248D01*
X25177Y50094D01*
X24912Y49932D01*
X24325Y49604D01*
X23701Y49308D01*
X23078Y49078D01*
X22501Y48950D01*
X22302Y48884D01*
X22134Y48757D01*
X22014Y48586D01*
X21955Y48388D01*
X21966Y48180D01*
X22044Y47985D01*
X22178Y47826D01*
X22357Y47717D01*
X23081Y47428D01*
X23764Y47117D01*
X24430Y46778D01*
X25108Y46413D01*
X24183Y46048D01*
X23304Y45734D01*
X22650Y45530D01*
X22124Y45377D01*
X21922Y45316D01*
X21808Y45282D01*
Y54862D01*
X22481Y54826D01*
X23154Y54724D01*
X23812Y54557D01*
X24452Y54327D01*
X25066Y54038D01*
X25651Y53689D01*
X26198Y53287D01*
X26704Y52832D01*
X27158Y52326D01*
X27562Y51779D01*
X27910Y51195D01*
X28200Y50580D01*
X28430Y49939D01*
X28597Y49281D01*
X28699Y48610D01*
X28735Y47932D01*
X28702Y47263D01*
X28603Y46603D01*
X28443Y45956D01*
X28221Y45324D01*
X27941Y44718D01*
X27605Y44141D01*
X27215Y43599D01*
X26775Y43097D01*
X26286Y42641D01*
X25754Y42236D01*
X25188Y41885D01*
X24590Y41587D01*
X23965Y41348D01*
X23323Y41168D01*
X22666Y41051D01*
X22000Y41000D01*
G37*
G36*
X21808Y41004D02*X21307Y41015D01*
X20621Y41102D01*
X19946Y41255D01*
X19289Y41476D01*
X18656Y41758D01*
X18055Y42101D01*
X17490Y42501D01*
X16971Y42958D01*
X16499Y43465D01*
X16083Y44018D01*
X15723Y44611D01*
X15423Y45235D01*
X15186Y45885D01*
X15012Y46555D01*
X14906Y47240D01*
X14872Y47932D01*
X14906Y48610D01*
X15008Y49281D01*
X15175Y49939D01*
X15405Y50580D01*
X15696Y51195D01*
X16043Y51779D01*
X16447Y52326D01*
X16903Y52832D01*
X17407Y53287D01*
X17954Y53689D01*
X18539Y54038D01*
X19153Y54327D01*
X19793Y54557D01*
X20452Y54724D01*
X21124Y54826D01*
X21803Y54862D01*
X21808Y54862D01*
Y45282D01*
X21768Y45269D01*
X21635Y45308D01*
X21464Y45359D01*
X20939Y45510D01*
X20285Y45716D01*
X19406Y46038D01*
X18481Y46413D01*
X19174Y46790D01*
X19851Y47131D01*
X20530Y47428D01*
X21232Y47681D01*
X21423Y47777D01*
X21572Y47933D01*
X21664Y48127D01*
X21689Y48342D01*
X21634Y48549D01*
X21514Y48728D01*
X21344Y48862D01*
X21142Y48932D01*
X20814Y49001D01*
X20483Y49096D01*
X20154Y49212D01*
X19827Y49344D01*
X19509Y49490D01*
X19199Y49644D01*
X18904Y49803D01*
X18626Y49963D01*
X18368Y50119D01*
X18132Y50268D01*
X17926Y50404D01*
X17748Y50525D01*
X17604Y50627D01*
X17497Y50704D01*
X17431Y50754D01*
X17409Y50772D01*
X17184Y50890D01*
X16932Y50912D01*
X16687Y50843D01*
X16490Y50686D01*
X16378Y50459D01*
X16363Y50205D01*
X16440Y49963D01*
X16606Y49771D01*
X16655Y49730D01*
X16798Y49618D01*
X17027Y49449D01*
X17333Y49235D01*
X17708Y48993D01*
X18142Y48732D01*
X18628Y48469D01*
X19159Y48217D01*
X18570Y47927D01*
X17968Y47615D01*
X17334Y47266D01*
X16658Y46877D01*
X16524Y46770D01*
X16424Y46632D01*
X16360Y46474D01*
X16344Y46304D01*
X16371Y46135D01*
X16444Y45980D01*
X16553Y45848D01*
X16694Y45752D01*
X17485Y45382D01*
X18309Y45043D01*
X19124Y44742D01*
X19892Y44484D01*
X20574Y44277D01*
X21124Y44126D01*
X21335Y44064D01*
X21500Y44019D01*
X21624Y43984D01*
X21808D01*
Y41004D01*
G37*
G36*
X26632Y59879D02*X26219D01*
X25819Y60392D01*
Y60755D01*
X26362Y60050D01*
X26368D01*
Y61467D01*
X25819D01*
Y61693D01*
X26368D01*
Y62233D01*
X26632D01*
Y61693D01*
X26985D01*
Y61467D01*
X26632D01*
Y59879D01*
G37*
G36*
X25819Y60392D02*X25050Y61378D01*
Y61693D01*
X25819D01*
Y61467D01*
X25270D01*
X25819Y60755D01*
Y60392D01*
G37*
G36*
X25027Y60585D02*X24757D01*
X24476Y61483D01*
X24387Y61764D01*
X24349Y61908D01*
X24304Y62046D01*
X24299D01*
X24255Y61902D01*
X24211Y61764D01*
X24123Y61483D01*
X23831Y60585D01*
X23582D01*
X24128Y62233D01*
X24476D01*
X25027Y60585D01*
G37*
G36*
X27546Y57680D02*X27276D01*
Y58000D01*
X27546D01*
Y57680D01*
G37*
G36*
X29679Y56352D02*Y58000D01*
X29922D01*
Y57013D01*
X29946Y56795D01*
X30021Y56641D01*
X30148Y56547D01*
X30324Y56517D01*
X30529Y56580D01*
X30599Y56770D01*
X30594Y56853D01*
X30588Y56897D01*
X30825D01*
Y56781D01*
X30796Y56576D01*
X30711Y56430D01*
X30570Y56342D01*
X30373Y56313D01*
X30088Y56372D01*
X29899Y56550D01*
X29894Y56544D01*
X29922Y56352D01*
X29679D01*
G37*
G36*
X24542Y58014D02*X24586Y58022D01*
X24905Y57977D01*
X25109Y57845D01*
X25221Y57592D01*
X25258Y57195D01*
X25222Y56780D01*
X25120Y56517D01*
X24925Y56376D01*
X24619Y56330D01*
X24542Y56335D01*
Y56530D01*
X24558Y56528D01*
X24784Y56560D01*
X24916Y56655D01*
X24981Y56848D01*
X25005Y57184D01*
X24981Y57509D01*
X24916Y57702D01*
X24788Y57793D01*
X24569Y57823D01*
X24542Y57820D01*
Y58014D01*
G37*
G36*
X23831Y58000D02*X24073D01*
X24062Y57796D01*
X24068D01*
X24262Y57965D01*
X24542Y58014D01*
Y57820D01*
X24310Y57793D01*
X24167Y57702D01*
X24099Y57499D01*
X24078Y57134D01*
X24101Y56831D01*
X24172Y56649D01*
X24317Y56558D01*
X24542Y56530D01*
Y56335D01*
X24412Y56343D01*
X24254Y56389D01*
X24142Y56463D01*
X24078Y56566D01*
X24073Y56561D01*
Y55646D01*
X23831D01*
Y58000D01*
G37*
G36*
X32378Y56352D02*X32142D01*
X32152Y56577D01*
X32147D01*
X31950Y56391D01*
X31670Y56339D01*
Y56529D01*
X31898Y56558D01*
X32037Y56649D01*
X32106Y56828D01*
X32130Y57134D01*
X32106Y57486D01*
X32037Y57691D01*
X31898Y57790D01*
X31670Y57822D01*
Y58016D01*
X31796Y58006D01*
X31953Y57965D01*
X32066Y57895D01*
X32136Y57796D01*
X32142D01*
Y58126D01*
X32117Y58327D01*
X32042Y58452D01*
X31902Y58514D01*
X31673Y58534D01*
X31670Y58534D01*
Y58731D01*
X32004Y58697D01*
X32224Y58595D01*
X32339Y58405D01*
X32378Y58104D01*
Y56352D01*
G37*
G36*
X31670Y58534D02*X31454Y58518D01*
X31331Y58468D01*
X31272Y58368D01*
X31254Y58192D01*
X31023D01*
X31056Y58454D01*
X31155Y58617D01*
X31345Y58704D01*
X31656Y58733D01*
X31670Y58731D01*
Y58534D01*
G37*
G36*
Y56339D02*X31618Y56330D01*
X31295Y56375D01*
X31094Y56511D01*
X30989Y56770D01*
X30956Y57184D01*
X30989Y57589D01*
X31094Y57845D01*
X31287Y57977D01*
X31596Y58022D01*
X31670Y58016D01*
Y57822D01*
X31662Y57823D01*
X31428Y57793D01*
X31293Y57702D01*
X31231Y57509D01*
X31210Y57173D01*
X31231Y56841D01*
X31293Y56649D01*
X31428Y56558D01*
X31662Y56528D01*
X31670Y56529D01*
Y56339D01*
G37*
G36*
X28620Y56329D02*Y56528D01*
X28878Y56554D01*
X29018Y56632D01*
X29074Y56821D01*
X29094Y57178D01*
X29074Y57531D01*
X29018Y57719D01*
X28878Y57797D01*
X28620Y57823D01*
Y58022D01*
X28995Y57983D01*
X29210Y57867D01*
X29312Y57615D01*
X29348Y57178D01*
X29312Y56739D01*
X29210Y56489D01*
X28995Y56369D01*
X28620Y56329D01*
G37*
G36*
Y56330D02*X28242Y56369D01*
X28025Y56489D01*
X27926Y56739D01*
X27893Y57178D01*
X27926Y57615D01*
X28025Y57867D01*
X28242Y57983D01*
X28620Y58022D01*
Y57823D01*
X28360Y57797D01*
X28224Y57719D01*
X28164Y57531D01*
X28146Y57178D01*
X28164Y56821D01*
X28224Y56632D01*
X28360Y56554D01*
X28620Y56528D01*
Y56330D01*
G37*
G36*
X26246Y58022D02*X26621Y57983D01*
X26836Y57867D01*
X26938Y57615D01*
X26974Y57178D01*
X26938Y56739D01*
X26836Y56489D01*
X26621Y56369D01*
X26246Y56330D01*
Y56528D01*
X26504Y56554D01*
X26643Y56632D01*
X26700Y56821D01*
X26720Y57178D01*
X26700Y57531D01*
X26643Y57719D01*
X26504Y57797D01*
X26246Y57823D01*
Y58022D01*
G37*
G36*
X26246Y56330D02*X25867Y56369D01*
X25651Y56489D01*
X25552Y56739D01*
X25519Y57178D01*
X25552Y57615D01*
X25651Y57867D01*
X25867Y57983D01*
X26246Y58022D01*
X26246Y58022D01*
Y57823D01*
X26246Y57823D01*
X25986Y57797D01*
X25849Y57719D01*
X25790Y57531D01*
X25772Y57178D01*
X25790Y56821D01*
X25849Y56632D01*
X25986Y56554D01*
X26246Y56528D01*
X26246Y56528D01*
Y56330D01*
X26246Y56330D01*
G37*
G54D176*X10950Y34750D02*Y30050D01*
X11200Y29800D01*
X22900Y31550D02*X22550D01*
X21800Y30800D01*
G54D177*X19943Y19550D02*X19829Y19436D01*
Y19207D02*Y19436D01*
Y19207D02*X19943Y19093D01*
X20743Y19207D02*X20629Y19093D01*
X20743Y19207D02*Y19436D01*
X20629Y19550D02*X20743Y19436D01*
X20240Y19207D02*Y19436D01*
X19943Y19093D02*X20126D01*
X20354D02*X20629D01*
X20354D02*X20240Y19207D01*
X20126Y19093D02*X20240Y19207D01*
X20743Y18704D02*Y18818D01*
X19943Y18430D02*X19829Y18316D01*
Y18087D02*Y18316D01*
Y18087D02*X19943Y17973D01*
X20743Y18087D02*X20629Y17973D01*
X20743Y18087D02*Y18316D01*
X20629Y18430D02*X20743Y18316D01*
X20240Y18087D02*Y18316D01*
X19943Y17973D02*X20126D01*
X20354D02*X20629D01*
X20354D02*X20240Y18087D01*
X20126Y17973D02*X20240Y18087D01*
X20629Y17698D02*X19943Y17013D01*
X19829Y16281D02*Y16738D01*
X20286D01*
X20172Y16624D01*
Y16395D02*Y16624D01*
Y16395D02*X20286Y16281D01*
X20629D01*
X20743Y16395D02*X20629Y16281D01*
X20743Y16395D02*Y16624D01*
X20629Y16738D02*X20743Y16624D01*
X19829Y16007D02*X20743Y15778D01*
X19829Y15549D01*
X23629Y19536D02*X24543D01*
X23629Y19239D02*X23789Y19078D01*
X24383D01*
X24543Y19239D02*X24383Y19078D01*
X24543Y19239D02*Y19650D01*
X23629Y19239D02*Y19650D01*
X24200Y18804D02*X24429D01*
X24200D02*X24086Y18690D01*
Y18461D02*Y18690D01*
Y18461D02*X24200Y18347D01*
X24429D01*
X24543Y18461D02*X24429Y18347D01*
X24543Y18461D02*Y18690D01*
X24429Y18804D02*X24543Y18690D01*
X24086Y18073D02*X24429D01*
X24543Y17958D01*
Y17730D02*Y17958D01*
Y17730D02*X24429Y17615D01*
X24086D02*X24429D01*
X23629Y17227D02*X24429D01*
X24543Y17113D01*
X23972D02*Y17341D01*
X24086Y16015D02*Y16472D01*
X23857Y15741D02*X24086Y15512D01*
X24314Y15741D02*X24086Y15512D01*
X27474Y18538D02*X28368D01*
X27474Y18248D02*X27630Y18091D01*
X28211D01*
X28368Y18248D02*X28211Y18091D01*
X28368Y18248D02*Y18650D01*
X27474Y18248D02*Y18650D01*
X27697Y17823D02*X27719D01*
X28032D02*X28368D01*
X28032Y17488D02*X28368D01*
X28032D02*X27921Y17376D01*
Y17264D02*Y17376D01*
Y17264D02*X28032Y17152D01*
X28368D01*
X27921Y17599D02*X28032Y17488D01*
X27921Y16482D02*X27697Y16258D01*
X27921Y16482D02*X28144Y16258D01*
X27921Y15543D02*Y15990D01*
X31229Y17393D02*X31343Y17278D01*
X31229Y17393D02*Y17736D01*
X31343Y17850D02*X31229Y17736D01*
X31343Y17850D02*X32029D01*
X32143Y17736D01*
Y17393D02*Y17736D01*
Y17393D02*X32029Y17278D01*
X31800D02*X32029D01*
X31686Y17393D02*X31800Y17278D01*
X31686Y17393D02*Y17621D01*
X31229Y17004D02*X32143D01*
X31229D02*X32143Y16433D01*
X31229D02*X32143D01*
X31229Y16044D02*X32143D01*
X31229Y15747D02*X31389Y15587D01*
X31983D01*
X32143Y15747D02*X31983Y15587D01*
X32143Y15747D02*Y16158D01*
X31229Y15747D02*Y16158D01*
G54D176*X34200Y44000D02*G75*G03X34200Y44000I800J0D01*G01*
X36200Y42000D02*G75*G03X36200Y42000I800J0D01*G01*
X28200Y34000D02*G75*G03X28200Y34000I800J0D01*G01*
X27200Y32000D02*G75*G03X27200Y32000I800J0D01*G01*
X15200Y35000D02*G75*G03X15200Y35000I800J0D01*G01*
X12700Y32000D02*G75*G03X12700Y32000I800J0D01*G01*
X13200Y29000D02*G75*G03X13200Y29000I800J0D01*G01*
X11200D02*G75*G03X11200Y29000I800J0D01*G01*
X22650Y29550D02*G75*G03X22650Y29550I800J0D01*G01*
X24200Y77000D02*G75*G03X24200Y77000I800J0D01*G01*
X20200D02*G75*G03X20200Y77000I800J0D01*G01*
X50200D02*G75*G03X50200Y77000I800J0D01*G01*
X46200D02*G75*G03X46200Y77000I800J0D01*G01*
X34200Y56000D02*G75*G03X34200Y56000I800J0D01*G01*
X35200Y51000D02*G75*G03X35200Y51000I800J0D01*G01*
X36200Y49000D02*G75*G03X36200Y49000I800J0D01*G01*
X35200Y31000D02*G75*G03X35200Y31000I800J0D01*G01*
X32200D02*G75*G03X32200Y31000I800J0D01*G01*
X24200Y27000D02*G75*G03X24200Y27000I800J0D01*G01*
X32200Y29000D02*G75*G03X32200Y29000I800J0D01*G01*
X14200Y25000D02*G75*G03X14200Y25000I800J0D01*G01*
X20200Y30000D02*G75*G03X20200Y30000I800J0D01*G01*
X11200Y27000D02*G75*G03X11200Y27000I800J0D01*G01*
X18200Y30000D02*G75*G03X18200Y30000I800J0D01*G01*
X17200Y28000D02*G75*G03X17200Y28000I800J0D01*G01*
X18450Y26050D02*G75*G03X18450Y26050I800J0D01*G01*
X11250Y25000D02*G75*G03X11250Y25000I800J0D01*G01*
X37200Y13000D02*G75*G03X37200Y13000I800J0D01*G01*
X35200D02*G75*G03X35200Y13000I800J0D01*G01*
X53300Y18900D02*G75*G03X53300Y18900I800J0D01*G01*
X55200Y18000D02*G75*G03X55200Y18000I800J0D01*G01*
X59200D02*G75*G03X59200Y18000I800J0D01*G01*
X51200Y14000D02*G75*G03X51200Y14000I800J0D01*G01*
X53200Y23000D02*G75*G03X53200Y23000I800J0D01*G01*
X51200D02*G75*G03X51200Y23000I800J0D01*G01*
X57200Y33000D02*G75*G03X57200Y33000I800J0D01*G01*
X52200D02*G75*G03X52200Y33000I800J0D01*G01*
X40200Y24000D02*G75*G03X40200Y24000I800J0D01*G01*
X41200Y19000D02*G75*G03X41200Y19000I800J0D01*G01*
X40200Y33000D02*G75*G03X40200Y33000I800J0D01*G01*
X39200Y28000D02*G75*G03X39200Y28000I800J0D01*G01*
G54D177*X36150Y55454D02*X36658D01*
X36404D02*Y56470D01*
X37090Y55454D02*Y56470D01*
X36963Y55454D02*X37471D01*
X37598Y55581D01*
Y55835D01*
X37471Y55962D02*X37598Y55835D01*
X37090Y55962D02*X37471D01*
X37903Y56089D02*X38411Y55454D01*
X37903Y56089D02*X38538D01*
X38411Y55454D02*Y56470D01*
X38150Y48454D02*X38658D01*
X38404D02*Y49470D01*
X39090Y48454D02*Y49470D01*
X38963Y48454D02*X39471D01*
X39598Y48581D01*
Y48835D01*
X39471Y48962D02*X39598Y48835D01*
X39090Y48962D02*X39471D01*
X39903Y48657D02*X40106Y48454D01*
Y49470D01*
X39903D02*X40284D01*
X40715D02*X41223Y48454D01*
X40588D02*X41223D01*
X37150Y50454D02*X37658D01*
X37404D02*Y51470D01*
X38090Y50454D02*Y51470D01*
X37963Y50454D02*X38471D01*
X38598Y50581D01*
Y50835D01*
X38471Y50962D02*X38598Y50835D01*
X38090Y50962D02*X38471D01*
X38903Y50657D02*X39106Y50454D01*
Y51470D01*
X38903D02*X39284D01*
X39969Y50454D02*X40096Y50581D01*
X39715Y50454D02*X39969D01*
X39588Y50581D02*X39715Y50454D01*
X39588Y50581D02*Y51343D01*
X39715Y51470D01*
X39969Y50911D02*X40096Y51038D01*
X39588Y50911D02*X39969D01*
X39715Y51470D02*X39969D01*
X40096Y51343D01*
Y51038D02*Y51343D01*
X36150Y43454D02*X36658D01*
X36404D02*Y44470D01*
X37090Y43454D02*Y44470D01*
X36963Y43454D02*X37471D01*
X37598Y43581D01*
Y43835D01*
X37471Y43962D02*X37598Y43835D01*
X37090Y43962D02*X37471D01*
X37903Y43581D02*X38030Y43454D01*
X38284D01*
X38411Y43581D01*
X38284Y44470D02*X38411Y44343D01*
X38030Y44470D02*X38284D01*
X37903Y44343D02*X38030Y44470D01*
Y43911D02*X38284D01*
X38411Y43581D02*Y43784D01*
Y44038D02*Y44343D01*
Y44038D02*X38284Y43911D01*
X38411Y43784D02*X38284Y43911D01*
X38842Y44470D02*X39223Y43962D01*
Y43581D02*Y43962D01*
X39096Y43454D02*X39223Y43581D01*
X38842Y43454D02*X39096D01*
X38715Y43581D02*X38842Y43454D01*
X38715Y43581D02*Y43835D01*
X38842Y43962D01*
X39223D01*
X23450Y78154D02*X23958D01*
X23704D02*Y79170D01*
X24390Y78154D02*Y79170D01*
X24263Y78154D02*X24771D01*
X24898Y78281D01*
Y78535D01*
X24771Y78662D02*X24898Y78535D01*
X24390Y78662D02*X24771D01*
X25203Y78281D02*X25330Y78154D01*
X25584D01*
X25711Y78281D01*
X25584Y79170D02*X25711Y79043D01*
X25330Y79170D02*X25584D01*
X25203Y79043D02*X25330Y79170D01*
Y78611D02*X25584D01*
X25711Y78281D02*Y78484D01*
Y78738D02*Y79043D01*
Y78738D02*X25584Y78611D01*
X25711Y78484D02*X25584Y78611D01*
X26015Y79043D02*X26142Y79170D01*
X26015Y78840D02*Y79043D01*
Y78840D02*X26193Y78662D01*
X26346D01*
X26523Y78840D01*
Y79043D01*
X26396Y79170D02*X26523Y79043D01*
X26142Y79170D02*X26396D01*
X26015Y78484D02*X26193Y78662D01*
X26015Y78281D02*Y78484D01*
Y78281D02*X26142Y78154D01*
X26396D01*
X26523Y78281D01*
Y78484D01*
X26346Y78662D02*X26523Y78484D01*
X19450Y78154D02*X19958D01*
X19704D02*Y79170D01*
X20390Y78154D02*Y79170D01*
X20263Y78154D02*X20771D01*
X20898Y78281D01*
Y78535D01*
X20771Y78662D02*X20898Y78535D01*
X20390Y78662D02*X20771D01*
X21203Y78281D02*X21330Y78154D01*
X21584D01*
X21711Y78281D01*
X21584Y79170D02*X21711Y79043D01*
X21330Y79170D02*X21584D01*
X21203Y79043D02*X21330Y79170D01*
Y78611D02*X21584D01*
X21711Y78281D02*Y78484D01*
Y78738D02*Y79043D01*
Y78738D02*X21584Y78611D01*
X21711Y78484D02*X21584Y78611D01*
X22142Y79170D02*X22650Y78154D01*
X22015D02*X22650D01*
X56450Y34154D02*X56958D01*
X56704D02*Y35170D01*
X57390Y34154D02*Y35170D01*
X57263Y34154D02*X57771D01*
X57898Y34281D01*
Y34535D01*
X57771Y34662D02*X57898Y34535D01*
X57390Y34662D02*X57771D01*
X58203Y34357D02*X58406Y34154D01*
Y35170D01*
X58203D02*X58584D01*
X58888Y34789D02*X59396Y34154D01*
X58888Y34789D02*X59523D01*
X59396Y34154D02*Y35170D01*
X42150Y32454D02*X42658D01*
X42404D02*Y33470D01*
X43090Y32454D02*Y33470D01*
X42963Y32454D02*X43471D01*
X43598Y32581D01*
Y32835D01*
X43471Y32962D02*X43598Y32835D01*
X43090Y32962D02*X43471D01*
X43903Y32581D02*X44030Y32454D01*
X44284D01*
X44411Y32581D01*
X44284Y33470D02*X44411Y33343D01*
X44030Y33470D02*X44284D01*
X43903Y33343D02*X44030Y33470D01*
Y32911D02*X44284D01*
X44411Y32581D02*Y32784D01*
Y33038D02*Y33343D01*
Y33038D02*X44284Y32911D01*
X44411Y32784D02*X44284Y32911D01*
X44715Y32581D02*X44842Y32454D01*
X45223D01*
X45350Y32581D01*
Y32835D01*
X44715Y33470D02*X45350Y32835D01*
X44715Y33470D02*X45350D01*
X51800Y34154D02*X52308D01*
X52054D02*Y35170D01*
X52740Y34154D02*Y35170D01*
X52613Y34154D02*X53121D01*
X53248Y34281D01*
Y34535D01*
X53121Y34662D02*X53248Y34535D01*
X52740Y34662D02*X53121D01*
X53553Y34281D02*X53680Y34154D01*
X53934D01*
X54061Y34281D01*
X53934Y35170D02*X54061Y35043D01*
X53680Y35170D02*X53934D01*
X53553Y35043D02*X53680Y35170D01*
Y34611D02*X53934D01*
X54061Y34281D02*Y34484D01*
Y34738D02*Y35043D01*
Y34738D02*X53934Y34611D01*
X54061Y34484D02*X53934Y34611D01*
X38150Y41454D02*X38658D01*
X38404D02*Y42470D01*
X39090Y41454D02*Y42470D01*
X38963Y41454D02*X39471D01*
X39598Y41581D01*
Y41835D01*
X39471Y41962D02*X39598Y41835D01*
X39090Y41962D02*X39471D01*
X39903Y42089D02*X40411Y41454D01*
X39903Y42089D02*X40538D01*
X40411Y41454D02*Y42470D01*
X40842Y42343D02*X40969Y42470D01*
X40842Y41581D02*Y42343D01*
Y41581D02*X40969Y41454D01*
X41223D01*
X41350Y41581D01*
Y42343D01*
X41223Y42470D02*X41350Y42343D01*
X40969Y42470D02*X41223D01*
X40842Y42216D02*X41350Y41708D01*
X49450Y78154D02*X49958D01*
X49704D02*Y79170D01*
X50390Y78154D02*Y79170D01*
X50263Y78154D02*X50771D01*
X50898Y78281D01*
Y78535D01*
X50771Y78662D02*X50898Y78535D01*
X50390Y78662D02*X50771D01*
X51203Y78281D02*X51330Y78154D01*
X51711D01*
X51838Y78281D01*
Y78535D01*
X51203Y79170D02*X51838Y78535D01*
X51203Y79170D02*X51838D01*
X52142Y79043D02*X52269Y79170D01*
X52142Y78840D02*Y79043D01*
Y78840D02*X52320Y78662D01*
X52473D01*
X52650Y78840D01*
Y79043D01*
X52523Y79170D02*X52650Y79043D01*
X52269Y79170D02*X52523D01*
X52142Y78484D02*X52320Y78662D01*
X52142Y78281D02*Y78484D01*
Y78281D02*X52269Y78154D01*
X52523D01*
X52650Y78281D01*
Y78484D01*
X52473Y78662D02*X52650Y78484D01*
X45450Y78154D02*X45958D01*
X45704D02*Y79170D01*
X46390Y78154D02*Y79170D01*
X46263Y78154D02*X46771D01*
X46898Y78281D01*
Y78535D01*
X46771Y78662D02*X46898Y78535D01*
X46390Y78662D02*X46771D01*
X47203Y78281D02*X47330Y78154D01*
X47711D01*
X47838Y78281D01*
Y78535D01*
X47203Y79170D02*X47838Y78535D01*
X47203Y79170D02*X47838D01*
X48269D02*X48777Y78154D01*
X48142D02*X48777D01*
X27450Y35154D02*X27958D01*
X27704D02*Y36170D01*
X28390Y35154D02*Y36170D01*
X28263Y35154D02*X28771D01*
X28898Y35281D01*
Y35535D01*
X28771Y35662D02*X28898Y35535D01*
X28390Y35662D02*X28771D01*
X29203Y35281D02*X29330Y35154D01*
X29584D01*
X29711Y35281D01*
X29584Y36170D02*X29711Y36043D01*
X29330Y36170D02*X29584D01*
X29203Y36043D02*X29330Y36170D01*
Y35611D02*X29584D01*
X29711Y35281D02*Y35484D01*
Y35738D02*Y36043D01*
Y35738D02*X29584Y35611D01*
X29711Y35484D02*X29584Y35611D01*
X30396Y35154D02*X30523Y35281D01*
X30142Y35154D02*X30396D01*
X30015Y35281D02*X30142Y35154D01*
X30015Y35281D02*Y36043D01*
X30142Y36170D01*
X30396Y35611D02*X30523Y35738D01*
X30015Y35611D02*X30396D01*
X30142Y36170D02*X30396D01*
X30523Y36043D01*
Y35738D02*Y36043D01*
X23100Y31054D02*X23608D01*
X23354D02*Y32070D01*
X24040Y31054D02*Y32070D01*
X23913Y31054D02*X24421D01*
X24548Y31181D01*
Y31435D01*
X24421Y31562D02*X24548Y31435D01*
X24040Y31562D02*X24421D01*
X24853Y31181D02*X24980Y31054D01*
X25234D01*
X25361Y31181D01*
X25234Y32070D02*X25361Y31943D01*
X24980Y32070D02*X25234D01*
X24853Y31943D02*X24980Y32070D01*
Y31511D02*X25234D01*
X25361Y31181D02*Y31384D01*
Y31638D02*Y31943D01*
Y31638D02*X25234Y31511D01*
X25361Y31384D02*X25234Y31511D01*
X25665Y31054D02*X26173D01*
X25665D02*Y31562D01*
X25792Y31435D01*
X26046D01*
X26173Y31562D01*
Y31943D01*
X26046Y32070D02*X26173Y31943D01*
X25792Y32070D02*X26046D01*
X25665Y31943D02*X25792Y32070D01*
X24300Y32954D02*X24808D01*
X24554D02*Y33970D01*
X25240Y32954D02*Y33970D01*
X25113Y32954D02*X25621D01*
X25748Y33081D01*
Y33335D01*
X25621Y33462D02*X25748Y33335D01*
X25240Y33462D02*X25621D01*
X26053Y33081D02*X26180Y32954D01*
X26434D01*
X26561Y33081D01*
X26434Y33970D02*X26561Y33843D01*
X26180Y33970D02*X26434D01*
X26053Y33843D02*X26180Y33970D01*
Y33411D02*X26434D01*
X26561Y33081D02*Y33284D01*
Y33538D02*Y33843D01*
Y33538D02*X26434Y33411D01*
X26561Y33284D02*X26434Y33411D01*
X26865Y33589D02*X27373Y32954D01*
X26865Y33589D02*X27500D01*
X27373Y32954D02*Y33970D01*
X37150Y30454D02*X37658D01*
X37404D02*Y31470D01*
X38090Y30454D02*Y31470D01*
X37963Y30454D02*X38471D01*
X38598Y30581D01*
Y30835D01*
X38471Y30962D02*X38598Y30835D01*
X38090Y30962D02*X38471D01*
X38903Y30581D02*X39030Y30454D01*
X39411D01*
X39538Y30581D01*
Y30835D01*
X38903Y31470D02*X39538Y30835D01*
X38903Y31470D02*X39538D01*
X40223Y30454D02*X40350Y30581D01*
X39969Y30454D02*X40223D01*
X39842Y30581D02*X39969Y30454D01*
X39842Y30581D02*Y31343D01*
X39969Y31470D01*
X40223Y30911D02*X40350Y31038D01*
X39842Y30911D02*X40223D01*
X39969Y31470D02*X40223D01*
X40350Y31343D01*
Y31038D02*Y31343D01*
X34150Y28454D02*X34658D01*
X34404D02*Y29470D01*
X35090Y28454D02*Y29470D01*
X34963Y28454D02*X35471D01*
X35598Y28581D01*
Y28835D01*
X35471Y28962D02*X35598Y28835D01*
X35090Y28962D02*X35471D01*
X35903Y28581D02*X36030Y28454D01*
X36411D01*
X36538Y28581D01*
Y28835D01*
X35903Y29470D02*X36538Y28835D01*
X35903Y29470D02*X36538D01*
X36842Y28581D02*X36969Y28454D01*
X37223D01*
X37350Y28581D01*
X37223Y29470D02*X37350Y29343D01*
X36969Y29470D02*X37223D01*
X36842Y29343D02*X36969Y29470D01*
Y28911D02*X37223D01*
X37350Y28581D02*Y28784D01*
Y29038D02*Y29343D01*
Y29038D02*X37223Y28911D01*
X37350Y28784D02*X37223Y28911D01*
X31450Y32204D02*X31958D01*
X31704D02*Y33220D01*
X32390Y32204D02*Y33220D01*
X32263Y32204D02*X32771D01*
X32898Y32331D01*
Y32585D01*
X32771Y32712D02*X32898Y32585D01*
X32390Y32712D02*X32771D01*
X33203Y32407D02*X33406Y32204D01*
Y33220D01*
X33203D02*X33584D01*
X33888Y33093D02*X34015Y33220D01*
X33888Y32890D02*Y33093D01*
Y32890D02*X34066Y32712D01*
X34219D01*
X34396Y32890D01*
Y33093D01*
X34269Y33220D02*X34396Y33093D01*
X34015Y33220D02*X34269D01*
X33888Y32534D02*X34066Y32712D01*
X33888Y32331D02*Y32534D01*
Y32331D02*X34015Y32204D01*
X34269D01*
X34396Y32331D01*
Y32534D01*
X34219Y32712D02*X34396Y32534D01*
X43150Y18454D02*X43658D01*
X43404D02*Y19470D01*
X44090Y18454D02*Y19470D01*
X43963Y18454D02*X44471D01*
X44598Y18581D01*
Y18835D01*
X44471Y18962D02*X44598Y18835D01*
X44090Y18962D02*X44471D01*
X44903Y18657D02*X45106Y18454D01*
Y19470D01*
X44903D02*X45284D01*
X45588Y18581D02*X45715Y18454D01*
X45969D01*
X46096Y18581D01*
X45969Y19470D02*X46096Y19343D01*
X45715Y19470D02*X45969D01*
X45588Y19343D02*X45715Y19470D01*
Y18911D02*X45969D01*
X46096Y18581D02*Y18784D01*
Y19038D02*Y19343D01*
Y19038D02*X45969Y18911D01*
X46096Y18784D02*X45969Y18911D01*
X42150Y23454D02*X42658D01*
X42404D02*Y24470D01*
X43090Y23454D02*Y24470D01*
X42963Y23454D02*X43471D01*
X43598Y23581D01*
Y23835D01*
X43471Y23962D02*X43598Y23835D01*
X43090Y23962D02*X43471D01*
X43903Y23581D02*X44030Y23454D01*
X44411D01*
X44538Y23581D01*
Y23835D01*
X43903Y24470D02*X44538Y23835D01*
X43903Y24470D02*X44538D01*
X44842Y23581D02*X44969Y23454D01*
X45350D01*
X45477Y23581D01*
Y23835D01*
X44842Y24470D02*X45477Y23835D01*
X44842Y24470D02*X45477D01*
X41150Y27454D02*X41658D01*
X41404D02*Y28470D01*
X42090Y27454D02*Y28470D01*
X41963Y27454D02*X42471D01*
X42598Y27581D01*
Y27835D01*
X42471Y27962D02*X42598Y27835D01*
X42090Y27962D02*X42471D01*
X42903Y27581D02*X43030Y27454D01*
X43411D01*
X43538Y27581D01*
Y27835D01*
X42903Y28470D02*X43538Y27835D01*
X42903Y28470D02*X43538D01*
X43842Y27657D02*X44046Y27454D01*
Y28470D01*
X43842D02*X44223D01*
X50700Y15204D02*X51208D01*
X50954D02*Y16220D01*
X51640Y15204D02*Y16220D01*
X51513Y15204D02*X52021D01*
X52148Y15331D01*
Y15585D01*
X52021Y15712D02*X52148Y15585D01*
X51640Y15712D02*X52021D01*
X52453Y15331D02*X52580Y15204D01*
X52961D01*
X53088Y15331D01*
Y15585D01*
X52453Y16220D02*X53088Y15585D01*
X52453Y16220D02*X53088D01*
X50500Y24154D02*X51008D01*
X50754D02*Y25170D01*
X51440Y24154D02*Y25170D01*
X51313Y24154D02*X51821D01*
X51948Y24281D01*
Y24535D01*
X51821Y24662D02*X51948Y24535D01*
X51440Y24662D02*X51821D01*
X52253Y24357D02*X52456Y24154D01*
Y25170D01*
X52253D02*X52634D01*
X52938Y24357D02*X53142Y24154D01*
Y25170D01*
X52938D02*X53319D01*
X52000Y20054D02*X52508D01*
X52254D02*Y21070D01*
X52940Y20054D02*Y21070D01*
X52813Y20054D02*X53321D01*
X53448Y20181D01*
Y20435D01*
X53321Y20562D02*X53448Y20435D01*
X52940Y20562D02*X53321D01*
X53753Y20054D02*X54261D01*
X53753D02*Y20562D01*
X53880Y20435D01*
X54134D01*
X54261Y20562D01*
Y20943D01*
X54134Y21070D02*X54261Y20943D01*
X53880Y21070D02*X54134D01*
X53753Y20943D02*X53880Y21070D01*
X55150Y22454D02*X55658D01*
X55404D02*Y23470D01*
X56090Y22454D02*Y23470D01*
X55963Y22454D02*X56471D01*
X56598Y22581D01*
Y22835D01*
X56471Y22962D02*X56598Y22835D01*
X56090Y22962D02*X56471D01*
X56903Y22657D02*X57106Y22454D01*
Y23470D01*
X56903D02*X57284D01*
X57588Y22581D02*X57715Y22454D01*
X58096D01*
X58223Y22581D01*
Y22835D01*
X57588Y23470D02*X58223Y22835D01*
X57588Y23470D02*X58223D01*
X55250Y19154D02*X55758D01*
X55504D02*Y20170D01*
X56190Y19154D02*Y20170D01*
X56063Y19154D02*X56571D01*
X56698Y19281D01*
Y19535D01*
X56571Y19662D02*X56698Y19535D01*
X56190Y19662D02*X56571D01*
X57003Y19357D02*X57206Y19154D01*
Y20170D01*
X57003D02*X57384D01*
X57688Y20043D02*X57815Y20170D01*
X57688Y19281D02*Y20043D01*
Y19281D02*X57815Y19154D01*
X58069D01*
X58196Y19281D01*
Y20043D01*
X58069Y20170D02*X58196Y20043D01*
X57815Y20170D02*X58069D01*
X57688Y19916D02*X58196Y19408D01*
X59050Y19154D02*X59558D01*
X59304D02*Y20170D01*
X59990Y19154D02*Y20170D01*
X59863Y19154D02*X60371D01*
X60498Y19281D01*
Y19535D01*
X60371Y19662D02*X60498Y19535D01*
X59990Y19662D02*X60371D01*
X60803Y19357D02*X61006Y19154D01*
Y20170D01*
X60803D02*X61184D01*
X15250Y23004D02*X15758D01*
X15504D02*Y24020D01*
X16190Y23004D02*Y24020D01*
X16063Y23004D02*X16571D01*
X16698Y23131D01*
Y23385D01*
X16571Y23512D02*X16698Y23385D01*
X16190Y23512D02*X16571D01*
X17003Y23207D02*X17206Y23004D01*
Y24020D01*
X17003D02*X17384D01*
X17688Y23004D02*X18196D01*
X17688D02*Y23512D01*
X17815Y23385D01*
X18069D01*
X18196Y23512D01*
Y23893D01*
X18069Y24020D02*X18196Y23893D01*
X17815Y24020D02*X18069D01*
X17688Y23893D02*X17815Y24020D01*
X14300Y30054D02*X14808D01*
X14554D02*Y31070D01*
X15240Y30054D02*Y31070D01*
X15113Y30054D02*X15621D01*
X15748Y30181D01*
Y30435D01*
X15621Y30562D02*X15748Y30435D01*
X15240Y30562D02*X15621D01*
X16053Y30181D02*X16180Y30054D01*
X16434D01*
X16561Y30181D01*
X16434Y31070D02*X16561Y30943D01*
X16180Y31070D02*X16434D01*
X16053Y30943D02*X16180Y31070D01*
Y30511D02*X16434D01*
X16561Y30181D02*Y30384D01*
Y30638D02*Y30943D01*
Y30638D02*X16434Y30511D01*
X16561Y30384D02*X16434Y30511D01*
X16865Y30943D02*X16992Y31070D01*
X16865Y30181D02*Y30943D01*
Y30181D02*X16992Y30054D01*
X17246D01*
X17373Y30181D01*
Y30943D01*
X17246Y31070D02*X17373Y30943D01*
X16992Y31070D02*X17246D01*
X16865Y30816D02*X17373Y30308D01*
X20400Y25504D02*X20908D01*
X20654D02*Y26520D01*
X21340Y25504D02*Y26520D01*
X21213Y25504D02*X21721D01*
X21848Y25631D01*
Y25885D01*
X21721Y26012D02*X21848Y25885D01*
X21340Y26012D02*X21721D01*
X22153Y25707D02*X22356Y25504D01*
Y26520D01*
X22153D02*X22534D01*
X22965D02*X23346Y26012D01*
Y25631D02*Y26012D01*
X23219Y25504D02*X23346Y25631D01*
X22965Y25504D02*X23219D01*
X22838Y25631D02*X22965Y25504D01*
X22838Y25631D02*Y25885D01*
X22965Y26012D01*
X23346D01*
X37400Y14154D02*X37908D01*
X37654D02*Y15170D01*
X38340Y14154D02*Y15170D01*
X38213Y14154D02*X38721D01*
X38848Y14281D01*
Y14535D01*
X38721Y14662D02*X38848Y14535D01*
X38340Y14662D02*X38721D01*
X39280Y15170D02*X39788Y14154D01*
X39153D02*X39788D01*
X34300D02*X34808D01*
X34554D02*Y15170D01*
X35240Y14154D02*Y15170D01*
X35113Y14154D02*X35621D01*
X35748Y14281D01*
Y14535D01*
X35621Y14662D02*X35748Y14535D01*
X35240Y14662D02*X35621D01*
X36434Y14154D02*X36561Y14281D01*
X36180Y14154D02*X36434D01*
X36053Y14281D02*X36180Y14154D01*
X36053Y14281D02*Y15043D01*
X36180Y15170D01*
X36434Y14611D02*X36561Y14738D01*
X36053Y14611D02*X36434D01*
X36180Y15170D02*X36434D01*
X36561Y15043D01*
Y14738D02*Y15043D01*
X10900Y35104D02*X11408D01*
X11154D02*Y36120D01*
X11840Y35104D02*Y36120D01*
X11713Y35104D02*X12221D01*
X12348Y35231D01*
Y35485D01*
X12221Y35612D02*X12348Y35485D01*
X11840Y35612D02*X12221D01*
X12653Y35231D02*X12780Y35104D01*
X13161D01*
X13288Y35231D01*
Y35485D01*
X12653Y36120D02*X13288Y35485D01*
X12653Y36120D02*X13288D01*
X13719D02*X14100Y35612D01*
Y35231D02*Y35612D01*
X13973Y35104D02*X14100Y35231D01*
X13719Y35104D02*X13973D01*
X13592Y35231D02*X13719Y35104D01*
X13592Y35231D02*Y35485D01*
X13719Y35612D01*
X14100D01*
X19200Y27454D02*X19708D01*
X19454D02*Y28470D01*
X20140Y27454D02*Y28470D01*
X20013Y27454D02*X20521D01*
X20648Y27581D01*
Y27835D01*
X20521Y27962D02*X20648Y27835D01*
X20140Y27962D02*X20521D01*
X20953Y27581D02*X21080Y27454D01*
X21461D01*
X21588Y27581D01*
Y27835D01*
X20953Y28470D02*X21588Y27835D01*
X20953Y28470D02*X21588D01*
X21892Y28089D02*X22400Y27454D01*
X21892Y28089D02*X22527D01*
X22400Y27454D02*Y28470D01*
X13150Y26454D02*X13658D01*
X13404D02*Y27470D01*
X14090Y26454D02*Y27470D01*
X13963Y26454D02*X14471D01*
X14598Y26581D01*
Y26835D01*
X14471Y26962D02*X14598Y26835D01*
X14090Y26962D02*X14471D01*
X14903Y27343D02*X15030Y27470D01*
X14903Y27140D02*Y27343D01*
Y27140D02*X15080Y26962D01*
X15233D01*
X15411Y27140D01*
Y27343D01*
X15284Y27470D02*X15411Y27343D01*
X15030Y27470D02*X15284D01*
X14903Y26784D02*X15080Y26962D01*
X14903Y26581D02*Y26784D01*
Y26581D02*X15030Y26454D01*
X15284D01*
X15411Y26581D01*
Y26784D01*
X15233Y26962D02*X15411Y26784D01*
X10900Y22804D02*X11408D01*
X11154D02*Y23820D01*
X11840Y22804D02*Y23820D01*
X11713Y22804D02*X12221D01*
X12348Y22931D01*
Y23185D01*
X12221Y23312D02*X12348Y23185D01*
X11840Y23312D02*X12221D01*
X12780Y23820D02*X13161Y23312D01*
Y22931D02*Y23312D01*
X13034Y22804D02*X13161Y22931D01*
X12780Y22804D02*X13034D01*
X12653Y22931D02*X12780Y22804D01*
X12653Y22931D02*Y23185D01*
X12780Y23312D01*
X13161D01*
X17150Y34454D02*X17658D01*
X17404D02*Y35470D01*
X18090Y34454D02*Y35470D01*
X17963Y34454D02*X18471D01*
X18598Y34581D01*
Y34835D01*
X18471Y34962D02*X18598Y34835D01*
X18090Y34962D02*X18471D01*
X18903Y34581D02*X19030Y34454D01*
X19284D01*
X19411Y34581D01*
X19284Y35470D02*X19411Y35343D01*
X19030Y35470D02*X19284D01*
X18903Y35343D02*X19030Y35470D01*
Y34911D02*X19284D01*
X19411Y34581D02*Y34784D01*
Y35038D02*Y35343D01*
Y35038D02*X19284Y34911D01*
X19411Y34784D02*X19284Y34911D01*
X19715Y34581D02*X19842Y34454D01*
X20096D01*
X20223Y34581D01*
X20096Y35470D02*X20223Y35343D01*
X19842Y35470D02*X20096D01*
X19715Y35343D02*X19842Y35470D01*
Y34911D02*X20096D01*
X20223Y34581D02*Y34784D01*
Y35038D02*Y35343D01*
Y35038D02*X20096Y34911D01*
X20223Y34784D02*X20096Y34911D01*
X12000Y33154D02*X12508D01*
X12254D02*Y34170D01*
X12940Y33154D02*Y34170D01*
X12813Y33154D02*X13321D01*
X13448Y33281D01*
Y33535D01*
X13321Y33662D02*X13448Y33535D01*
X12940Y33662D02*X13321D01*
X13753Y33281D02*X13880Y33154D01*
X14134D01*
X14261Y33281D01*
X14134Y34170D02*X14261Y34043D01*
X13880Y34170D02*X14134D01*
X13753Y34043D02*X13880Y34170D01*
Y33611D02*X14134D01*
X14261Y33281D02*Y33484D01*
Y33738D02*Y34043D01*
Y33738D02*X14134Y33611D01*
X14261Y33484D02*X14134Y33611D01*
X14565Y33357D02*X14769Y33154D01*
Y34170D01*
X14565D02*X14946D01*
X17950Y31154D02*X18458D01*
X18204D02*Y32170D01*
X18890Y31154D02*Y32170D01*
X18763Y31154D02*X19271D01*
X19398Y31281D01*
Y31535D01*
X19271Y31662D02*X19398Y31535D01*
X18890Y31662D02*X19271D01*
X19703Y31281D02*X19830Y31154D01*
X20211D01*
X20338Y31281D01*
Y31535D01*
X19703Y32170D02*X20338Y31535D01*
X19703Y32170D02*X20338D01*
X20642Y31154D02*X21150D01*
X20642D02*Y31662D01*
X20769Y31535D01*
X21023D01*
X21150Y31662D01*
Y32043D01*
X21023Y32170D02*X21150Y32043D01*
X20769Y32170D02*X21023D01*
X20642Y32043D02*X20769Y32170D01*
X24600Y29004D02*X25108D01*
X24854D02*Y30020D01*
X25540Y29004D02*Y30020D01*
X25413Y29004D02*X25921D01*
X26048Y29131D01*
Y29385D01*
X25921Y29512D02*X26048Y29385D01*
X25540Y29512D02*X25921D01*
X26353Y29639D02*X26861Y29004D01*
X26353Y29639D02*X26988D01*
X26861Y29004D02*Y30020D01*
X27292Y29207D02*X27496Y29004D01*
Y30020D01*
X27292D02*X27673D01*
X26150Y26454D02*X26658D01*
X26404D02*Y27470D01*
X27090Y26454D02*Y27470D01*
X26963Y26454D02*X27471D01*
X27598Y26581D01*
Y26835D01*
X27471Y26962D02*X27598Y26835D01*
X27090Y26962D02*X27471D01*
X27903Y26581D02*X28030Y26454D01*
X28411D01*
X28538Y26581D01*
Y26835D01*
X27903Y27470D02*X28538Y26835D01*
X27903Y27470D02*X28538D01*
X28842Y27343D02*X28969Y27470D01*
X28842Y26581D02*Y27343D01*
Y26581D02*X28969Y26454D01*
X29223D01*
X29350Y26581D01*
Y27343D01*
X29223Y27470D02*X29350Y27343D01*
X28969Y27470D02*X29223D01*
X28842Y27216D02*X29350Y26708D01*
M02*
