M48
METRIC,000.000
T122C0.300
T121C0.650
T120C0.800
T119C1.200
T118C1.500
T117C1.600
T116C1.300
T115C1.000
%
T122
X010750Y025950
X010750Y024950
X010750Y022350
X011000Y031350
X011000Y030450
X011700Y064550
X011700Y063850
X011700Y063150
X011700Y062450
X011700Y061750
X011700Y061050
X011750Y035150
X011850Y032950
X012050Y051200
X012050Y050550
X012050Y049900
X012100Y042100
X012300Y064900
X012300Y064200
X012300Y063500
X012300Y062800
X012300Y062100
X012300Y061400
X012300Y060700
X012500Y041300
X012600Y032500
X012700Y071150
X013000Y070000
X013000Y067700
X013250Y027700
X013250Y026500
X013350Y034250
X013550Y030500
X013550Y025150
X013900Y058100
X013900Y057400
X013900Y056700
X013900Y056000
X013900Y055300
X014100Y049450
X014200Y067650
X014200Y067000
X014200Y031050
X014500Y058450
X014500Y057750
X014500Y057050
X014500Y056350
X014500Y055650
X014500Y054950
X014550Y047550
X014550Y046900
X014550Y046250
X014550Y045600
X014550Y044950
X014550Y044300
X014550Y042500
X014550Y039700
X014550Y039050
X014550Y038400
X014550Y037750
X014550Y037100
X014550Y036450
X014600Y032750
X014850Y067650
X014850Y067000
X014950Y021100
X015000Y051850
X015000Y049450
X015050Y029200
X015500Y067650
X015500Y067000
X016100Y028700
X016150Y067650
X016150Y067000
X016300Y041900
X016500Y023500
X016750Y031450
X016800Y067650
X016800Y067000
X017000Y051850
X017300Y065800
X017350Y032150
X017350Y030800
X017350Y029900
X017450Y046900
X017450Y046250
X017450Y045600
X017450Y044950
X017450Y044300
X017450Y039700
X017450Y039100
X017450Y038500
X017450Y036650
X017450Y035300
X017650Y066400
X017750Y048100
X018000Y070000
X018000Y067700
X018000Y065800
X018000Y039400
X018000Y038800
X018250Y053700
X018300Y035200
X018350Y066400
X018550Y039700
X018550Y039100
X018550Y038500
X018600Y053100
X018700Y065800
X018700Y048100
X018950Y053700
X019000Y015150
X019150Y035300
X019300Y053100
X019450Y036800
X019450Y019700
X019500Y077350
X019500Y076650
X019550Y027050
X019600Y018800
X019600Y017900
X019650Y067100
X019650Y059700
X019650Y053700
X019650Y032550
X020000Y070000
X020000Y067700
X020000Y060300
X020000Y053100
X020000Y051850
X020150Y037350
X020150Y025600
X020350Y067100
X020350Y059700
X020350Y053700
X020450Y020550
X020500Y018800
X020550Y047400
X020550Y041900
X020550Y032750
X020700Y053100
X020950Y028850
X020950Y027950
X020950Y027050
X021000Y051850
X021050Y053700
X021100Y025600
X021100Y019650
X021150Y021100
X021300Y065800
X021400Y053100
X021450Y047400
X021650Y066400
X021750Y053700
X021850Y030600
X022000Y070000
X022000Y067700
X022000Y065800
X022200Y026450
X022200Y021400
X022350Y066400
X022400Y047400
X022400Y034150
X022500Y041650
X022500Y030000
X022500Y025650
X022500Y016700
X022500Y016000
X022700Y065800
X022900Y021400
X023200Y071950
X023200Y067650
X023200Y067000
X023300Y047400
X023300Y042000
X023850Y067650
X023850Y067000
X023850Y034450
X023950Y049450
X023950Y048750
X024000Y051850
X024500Y067650
X024500Y067000
X024550Y019250
X024650Y018400
X024750Y037300
X024750Y034450
X024850Y033100
X024850Y032100
X025000Y051850
X025150Y067650
X025150Y067000
X025200Y015900
X025450Y039700
X025450Y039100
X025450Y038500
X025500Y058450
X025500Y057750
X025500Y057050
X025500Y056350
X025500Y055650
X025500Y054950
X025650Y036950
X025800Y067650
X025800Y067000
X025900Y051850
X026000Y039400
X026000Y038800
X026050Y035300
X026100Y058100
X026100Y057400
X026100Y056700
X026100Y056000
X026100Y055300
X026400Y077350
X026400Y076650
X026550Y047550
X026550Y046900
X026550Y046250
X026550Y045600
X026550Y044950
X026550Y044300
X026550Y039700
X026550Y039100
X026550Y038500
X026550Y036700
X026900Y030700
X027000Y070000
X027000Y067700
X027000Y031600
X027050Y035300
X027700Y065150
X027700Y064450
X027700Y063750
X027700Y063050
X027700Y062350
X027700Y061650
X027700Y049500
X027700Y048800
X028100Y051450
X028300Y064800
X028300Y064100
X028300Y063400
X028300Y062700
X028300Y062000
X028300Y061300
X028550Y051850
X028700Y051250
X028850Y077850
X028950Y027300
X029300Y015200
X029450Y047550
X029450Y046900
X029450Y046250
X029450Y045600
X029450Y044950
X029450Y044300
X029450Y039700
X029450Y039100
X029450Y038500
X029450Y036700
X029550Y079300
X029550Y071950
X029600Y035300
X029800Y070050
X029800Y066400
X029800Y056050
X030000Y039400
X030000Y038800
X030200Y062350
X030200Y061450
X030200Y057000
X030300Y015200
X030350Y036700
X030350Y032950
X030350Y029650
X030450Y051550
X030450Y050850
X030500Y056050
X030550Y039700
X030550Y039100
X030550Y038500
X031050Y034850
X031050Y033900
X031050Y032950
X031050Y031550
X031050Y030600
X031050Y029650
X031150Y037100
X032000Y023200
X032150Y052450
X032150Y051750
X032150Y051050
X032150Y050350
X032150Y049650
X032150Y048950
X032350Y033900
X032500Y017800
X033000Y045250
X033000Y044550
X033000Y043850
X033250Y033900
X033350Y034900
X033600Y044900
X033600Y044200
X033600Y043500
X033850Y042000
X034100Y067800
X034100Y067150
X034100Y066500
X034200Y014500
X034200Y013000
X034350Y042900
X034400Y052450
X034400Y051750
X034400Y051050
X034400Y050350
X034400Y049650
X034400Y048950
X034400Y010850
X034550Y018900
X035150Y042000
X035400Y047900
X035750Y047450
X035900Y029100
X035950Y028250
X036100Y047900
X036250Y034850
X036400Y032950
X036450Y047450
X036700Y029650
X036750Y024950
X036750Y024250
X036800Y047900
X036850Y022000
X037000Y010850
X037050Y028850
X037050Y023000
X037100Y032950
X037150Y047450
X037150Y034850
X037300Y021050
X037400Y031550
X037400Y030600
X037400Y029650
X037400Y026350
X037500Y047900
X037550Y022000
X037750Y023000
X037850Y047450
X037850Y045400
X037850Y044800
X037900Y067800
X037900Y067150
X037900Y066500
X037900Y010850
X038100Y042000
X038200Y047900
X038400Y045100
X038400Y025450
X038800Y010850
X039500Y033400
X039500Y032500
X039500Y029800
X039500Y026900
X039500Y026000
X039500Y024200
X039500Y023300
X039550Y031600
X039550Y011300
X039600Y025100
X039800Y052200
X039800Y051500
X039800Y050800
X039800Y050100
X039800Y049400
X039800Y048700
X039800Y021800
X040150Y035500
X040350Y018700
X040400Y051850
X040400Y051150
X040400Y050450
X040400Y049750
X040400Y049050
X040950Y053750
X041250Y054300
X041250Y028950
X041250Y021150
X041450Y039700
X041450Y039100
X041450Y038500
X041550Y053750
X041800Y062350
X041800Y061450
X041800Y057000
X041850Y054300
X042000Y039400
X042000Y038800
X042150Y053750
X042150Y036100
X042200Y070050
X042200Y066400
X042450Y071950
X042550Y047500
X042550Y046850
X042550Y046200
X042550Y045550
X042550Y044900
X042550Y044250
X042550Y039700
X042550Y039100
X042550Y038500
X042600Y015700
X042650Y036800
X042750Y028050
X042750Y027350
X042750Y026050
X042750Y025350
X042750Y024650
X042750Y023950
X043150Y051450
X043250Y042650
X043300Y052050
X043700Y064800
X043700Y064100
X043700Y063400
X043700Y062700
X043700Y062000
X043700Y061300
X043750Y051600
X043900Y015700
X044300Y065150
X044300Y064450
X044300Y063750
X044300Y063050
X044300Y062350
X044300Y061650
X044700Y012900
X044800Y024100
X044800Y023400
X045000Y070050
X045000Y067700
X045450Y047500
X045450Y046850
X045450Y046200
X045450Y045550
X045450Y044900
X045450Y044250
X045450Y039700
X045450Y039100
X045450Y038500
X045650Y077350
X045650Y076700
X045900Y058100
X045900Y057400
X045900Y056700
X045900Y056000
X045900Y055300
X046000Y039400
X046000Y038800
X046100Y049450
X046200Y067650
X046200Y067000
X046500Y058450
X046500Y057750
X046500Y057050
X046500Y056350
X046500Y055650
X046500Y054950
X046550Y039700
X046550Y039100
X046550Y038500
X046700Y017950
X046850Y067650
X046850Y067000
X047000Y051850
X047000Y049450
X047500Y067650
X047500Y067000
X047500Y017550
X047650Y047400
X048150Y067650
X048150Y067000
X048700Y015600
X048800Y071950
X048800Y067650
X048800Y067000
X049000Y051850
X049000Y019050
X049150Y035050
X049200Y032800
X049250Y047400
X049300Y065800
X049300Y023200
X049650Y066400
X049800Y018750
X049850Y035050
X050000Y070000
X050000Y067700
X050000Y065800
X050000Y036750
X050000Y023200
X050200Y047400
X050250Y053700
X050350Y066400
X050500Y018750
X050600Y053100
X050700Y065800
X050750Y020700
X050950Y053700
X051000Y014650
X051150Y047400
X051200Y032800
X051300Y053100
X051300Y011800
X051650Y067100
X051650Y059700
X051650Y053700
X051650Y020700
X052000Y070000
X052000Y067700
X052000Y060300
X052000Y053100
X052000Y051850
X052000Y034200
X052300Y035100
X052350Y077350
X052350Y076650
X052350Y067100
X052350Y059700
X052350Y053700
X052600Y036750
X052700Y053100
X053000Y051850
X053000Y048100
X053050Y053700
X053050Y015200
X053300Y065800
X053400Y053100
X053650Y066400
X053700Y013350
X053700Y012050
X053750Y053700
X053900Y048100
X053900Y042000
X054000Y070000
X054000Y067700
X054000Y065800
X054300Y033500
X054350Y066400
X054400Y013350
X054400Y012050
X054550Y047500
X054550Y046850
X054550Y046200
X054550Y045550
X054550Y044900
X054550Y044250
X054550Y039700
X054550Y039050
X054550Y038400
X054550Y037750
X054550Y037100
X054550Y036450
X054700Y065800
X055200Y073750
X055200Y067650
X055200Y067000
X055200Y042000
X055200Y033500
X055400Y016450
X055400Y015550
X055850Y067650
X055850Y067000
X055900Y049400
X055900Y048750
X056000Y051900
X056450Y033350
X056500Y067650
X056500Y067000
X056750Y016900
X057000Y051850
X057150Y067650
X057150Y067000
X057200Y023500
X057450Y047500
X057450Y046850
X057450Y046200
X057450Y045550
X057450Y044900
X057450Y044250
X057450Y039700
X057450Y039050
X057450Y038400
X057450Y037750
X057450Y037100
X057450Y036450
X057500Y058450
X057500Y057750
X057500Y057050
X057500Y056350
X057500Y055650
X057500Y054950
X057800Y067650
X057800Y067000
X057800Y022850
X057850Y017900
X057850Y017200
X058000Y051850
X058100Y058100
X058100Y057400
X058100Y056700
X058100Y056000
X058100Y055300
X058400Y020600
X059000Y070000
X059000Y067700
X059700Y064900
X059700Y064200
X059700Y063500
X059700Y062800
X059700Y062100
X059700Y061400
X059700Y060700
X059700Y049500
X059700Y048800
X059850Y022100
X059850Y021450
X059850Y019750
X059850Y019100
X059850Y016800
X059900Y051050
X059950Y034750
X059950Y033350
X060300Y064550
X060300Y063850
X060300Y063150
X060300Y062450
X060300Y061750
X060300Y061050
X060350Y051500
X060750Y019450
X060800Y051950
X061150Y022950
X061150Y021750
X061250Y052400
X061350Y043250
X061350Y042550
T121
X013033Y020099
X013033Y018829
X014303Y020099
X014303Y018829
X015573Y020099
X015573Y018829
X016843Y020099
X016843Y018829
X018113Y020099
X018113Y018829
T120
X043575Y014330
X048425Y014330
T115
X025780Y022350
X025780Y019810
X028320Y022350
X028320Y019810
X030860Y022350
X030860Y019810
X033400Y022350
X033400Y019810
X058150Y030650
X058150Y026150
T119
X020285Y014000
X024095Y014000
X027905Y014000
X031715Y014000
X041900Y011250
X050100Y011250
T116
X055650Y031900
X055650Y024900
T118
X034730Y063130
X034730Y059070
X037270Y063130
X037270Y059070
T117
X020400Y074000
X025400Y074000
X032250Y074000
X039750Y074000
X046600Y074000
X051600Y074000
M30
