G04 start of page 9 for group -4063 idx -4063 *
G04 Title: (unknown), componentmask *
G04 Creator: pcb 1.99z *
G04 CreationDate: Sat 29 Jun 2013 11:07:13 GMT UTC *
G04 For: rbarlow *
G04 Format: Gerber/RS-274X *
G04 PCB-Dimensions (mm): 70.00 90.00 *
G04 PCB-Coordinate-Origin: lower left *
%MOMM*%
%FSLAX43Y43*%
%LNTOPMASK*%
%ADD157R,2.300X2.300*%
%ADD156R,0.700X0.700*%
%ADD155R,1.760X1.760*%
%ADD154R,1.650X1.650*%
%ADD153R,1.675X1.675*%
%ADD152R,1.000X1.000*%
%ADD151R,1.925X1.925*%
%ADD150R,1.210X1.210*%
%ADD149R,0.500X0.500*%
%ADD148R,3.300X3.300*%
%ADD147R,1.350X1.350*%
%ADD146R,5.550X5.550*%
%ADD145R,0.900X0.900*%
%ADD144R,0.600X0.600*%
%ADD143R,1.700X1.700*%
%ADD142R,1.100X1.100*%
%ADD141R,1.500X1.500*%
%ADD140R,3.830X3.830*%
%ADD139R,1.900X1.900*%
%ADD138R,1.250X1.250*%
%ADD137R,0.920X0.920*%
%ADD136R,0.950X0.950*%
%ADD135R,0.750X0.750*%
%ADD134R,1.450X1.450*%
%ADD133C,1.300*%
%ADD132C,1.400*%
%ADD131C,2.650*%
%ADD130C,1.900*%
%ADD129C,0.002*%
%ADD128C,2.600*%
%ADD127C,3.500*%
%ADD126C,6.000*%
%ADD125C,2.500*%
%ADD124C,2.000*%
G54D124*X58150Y26150D03*
Y30650D03*
G54D125*X55650Y24900D03*
G54D126*X58500Y13500D03*
G54D125*X55650Y31900D03*
G54D127*X51600Y74000D03*
X46600D03*
X39750D03*
X25400D03*
X20400D03*
G54D128*X37270Y63130D03*
X34730D03*
Y59070D03*
X37270D03*
G54D127*X32250Y74000D03*
G54D126*X13500Y76500D03*
X58500D03*
G54D129*G36*
X32450Y23300D02*Y21400D01*
X34350D01*
Y23300D01*
X32450D01*
G37*
G54D130*X30860Y22350D03*
X28320D03*
X25780D03*
X33400Y19810D03*
X30860D03*
X28320D03*
X25780D03*
G54D131*X24095Y14000D03*
X27905D03*
X31715D03*
G54D130*X41900Y11250D03*
X50100D03*
G54D132*X43575Y14330D03*
X48425D03*
G54D131*X20285Y14000D03*
G54D126*X13500Y13500D03*
G54D129*G36*
X12383Y19479D02*Y18179D01*
X13683D01*
Y19479D01*
X12383D01*
G37*
G54D133*X13033Y20099D03*
X14303Y18829D03*
Y20099D03*
X15573Y18829D03*
Y20099D03*
X16843Y18829D03*
Y20099D03*
X18113Y18829D03*
Y20099D03*
G54D134*X35150Y54750D02*Y54450D01*
X30000Y54975D02*Y54325D01*
X33000Y54975D02*Y54325D01*
X36950Y54750D02*Y54450D01*
G54D135*X38475Y52265D02*X39025D01*
G54D136*X20000Y50975D02*Y50325D01*
X21000Y50975D02*Y50325D01*
G54D137*X21450Y48251D02*Y48249D01*
Y49151D02*Y49149D01*
X20450Y49151D02*Y49149D01*
Y48251D02*Y48249D01*
G54D136*X22000Y50975D02*Y50325D01*
G54D137*X22450Y49151D02*Y49149D01*
Y48251D02*Y48249D01*
G54D136*X23000Y50975D02*Y50325D01*
X24000Y50975D02*Y50325D01*
X25000Y50975D02*Y50325D01*
X26000Y50975D02*Y50325D01*
G54D138*X25000Y48975D02*Y48925D01*
G54D139*X28000Y47100D02*Y44800D01*
G54D136*X27000Y50975D02*Y50325D01*
G54D138*X26600Y48975D02*Y48925D01*
G54D134*X29725Y52650D02*X30375D01*
X29725Y49650D02*X30375D01*
G54D135*X32970Y52265D02*X33600D01*
X32970Y50995D02*X33600D01*
X32970Y49725D02*X33600D01*
X32970Y48455D02*X33600D01*
G54D140*X36830Y50725D02*Y49995D01*
G54D141*X35835Y51730D02*Y51360D01*
Y49360D02*Y48990D01*
G54D135*X38475Y48455D02*X39025D01*
X38475Y49725D02*X39025D01*
X38475Y50995D02*X39025D01*
G54D141*X37835Y51730D02*Y51360D01*
Y49360D02*Y48990D01*
G54D138*X37800Y46475D02*Y46425D01*
X36200Y46475D02*Y46425D01*
G54D137*X34949Y46700D02*X34951D01*
X34049D02*X34051D01*
G54D142*X35050Y44800D02*Y44700D01*
G54D137*X37449Y41250D02*X37451D01*
X36549D02*X36551D01*
X35449D02*X35451D01*
X34549D02*X34551D01*
G54D142*X36950Y44800D02*Y44700D01*
X36000Y42800D02*Y42700D01*
G54D137*X20899Y35300D02*X20901D01*
X19999D02*X20001D01*
X21949D02*X21951D01*
X22849D02*X22851D01*
G54D143*X30950Y27200D02*X31350D01*
X26550D02*X26950D01*
X26550Y24800D02*X26950D01*
X30950D02*X31350D01*
G54D139*X16000Y47100D02*Y44800D01*
Y39200D02*Y36900D01*
G54D136*Y50975D02*Y50325D01*
X17000Y50975D02*Y50325D01*
G54D137*X15999Y48950D02*X16001D01*
X16899D02*X16901D01*
G54D136*X18000Y50975D02*Y50325D01*
X19000Y50975D02*Y50325D01*
G54D137*X18899Y48950D02*X18901D01*
X17999D02*X18001D01*
X15699Y35300D02*X15701D01*
X14699D02*X14701D01*
X13799D02*X13801D01*
X16599D02*X16601D01*
G54D144*X19150Y34300D02*Y33400D01*
X18650Y34300D02*Y33400D01*
X18150Y34300D02*Y33400D01*
X17650Y34300D02*Y33400D01*
X17150Y34300D02*Y33400D01*
X16650Y34300D02*Y33400D01*
X16150Y34300D02*Y33400D01*
X11700Y31850D02*X12600D01*
X11700Y31350D02*X12600D01*
X11700Y30850D02*X12600D01*
G54D137*X10700Y32251D02*Y32249D01*
Y33151D02*Y33149D01*
Y35051D02*Y35049D01*
Y34151D02*Y34149D01*
G54D144*X11700Y28350D02*X12600D01*
X11700Y27850D02*X12600D01*
X11700Y27350D02*X12600D01*
X11700Y26850D02*X12600D01*
X11700Y26350D02*X12600D01*
G54D137*X10700Y26801D02*Y26799D01*
Y27701D02*Y27699D01*
G54D144*X11700Y25850D02*X12600D01*
X11700Y25350D02*X12600D01*
X11700Y24850D02*X12600D01*
X11700Y24350D02*X12600D01*
G54D137*X10700Y24101D02*Y24099D01*
Y23201D02*Y23199D01*
G54D144*X11700Y30350D02*X12600D01*
X11700Y29850D02*X12600D01*
X11700Y29350D02*X12600D01*
X11700Y28850D02*X12600D01*
G54D137*X10700Y29601D02*Y29599D01*
Y28701D02*Y28699D01*
G54D145*X16575Y71150D02*Y70550D01*
Y72950D02*Y72350D01*
X15625Y72950D02*Y72350D01*
Y71150D02*Y70550D01*
G54D136*X16000Y69175D02*Y68525D01*
G54D134*X11200Y71475D02*Y70825D01*
X14200Y71475D02*Y70825D01*
G54D136*X15000Y69175D02*Y68525D01*
X14000Y69175D02*Y68525D01*
X13000Y69175D02*Y68525D01*
X27000Y69175D02*Y68525D01*
X26000Y69175D02*Y68525D01*
X25000Y69175D02*Y68525D01*
X24000Y69175D02*Y68525D01*
X23000Y69175D02*Y68525D01*
G54D138*X24800Y70925D02*Y70875D01*
X23200Y70925D02*Y70875D01*
G54D136*X13000Y50975D02*Y50325D01*
X14000Y50975D02*Y50325D01*
X15000Y50975D02*Y50325D01*
G54D146*X17475Y56700D02*X22525D01*
G54D147*X20975Y58650D02*X21750D01*
X20975Y56700D02*X21750D01*
X18250D02*X19025D01*
X23700Y58650D02*X24475D01*
X23700Y56700D02*X24475D01*
X15525Y58650D02*X16300D01*
X18250D02*X19025D01*
X15525Y56700D02*X16300D01*
X15525Y54750D02*X16300D01*
X20975D02*X21750D01*
X23700D02*X24475D01*
X18250D02*X19025D01*
G54D134*X30050Y58100D02*X30350D01*
G54D146*X15275Y62800D02*X16325D01*
G54D147*X17925Y64750D02*X18275D01*
X15625D02*X15975D01*
X15625Y62800D02*X15975D01*
X13325Y60850D02*X13675D01*
X13325Y64750D02*X13675D01*
X13325Y62800D02*X13675D01*
X17925D02*X18275D01*
X17925Y60850D02*X18275D01*
X15625D02*X15975D01*
G54D146*X23675Y62800D02*X24725D01*
G54D147*X21725Y64750D02*X22075D01*
X24025D02*X24375D01*
X24025Y62800D02*X24375D01*
X26325Y60850D02*X26675D01*
G54D134*X30050Y59900D02*X30350D01*
G54D147*X26325Y64750D02*X26675D01*
X26325Y62800D02*X26675D01*
X21725D02*X22075D01*
X21725Y60850D02*X22075D01*
X24025D02*X24375D01*
G54D136*X22000Y69175D02*Y68525D01*
X21000Y69175D02*Y68525D01*
X20000Y69175D02*Y68525D01*
X19000Y69175D02*Y68525D01*
G54D138*X20800Y70925D02*Y70875D01*
X19200Y70925D02*Y70875D01*
G54D136*X18000Y69175D02*Y68525D01*
X17000Y69175D02*Y68525D01*
G54D142*X29900Y71000D02*X30000D01*
X29900Y69100D02*X30000D01*
X31900Y70050D02*X32000D01*
G54D143*X34000Y70070D02*Y69830D01*
G54D142*X42100Y71000D02*X42200D01*
X40100Y70050D02*X40200D01*
G54D143*X38000Y70070D02*Y69830D01*
G54D142*X42100Y69100D02*X42200D01*
G54D138*X35200Y67175D02*Y67125D01*
X36800Y67175D02*Y67125D01*
G54D134*X41650Y65250D02*X41950D01*
X41650Y63450D02*X41950D01*
X30050Y65250D02*X30350D01*
X30050Y63450D02*X30350D01*
G54D145*X56375Y71150D02*Y70550D01*
Y72950D02*Y72350D01*
X55425Y72950D02*Y72350D01*
Y71150D02*Y70550D01*
G54D134*X60800Y71475D02*Y70825D01*
X57800Y71475D02*Y70825D01*
G54D136*X59000Y69175D02*Y68525D01*
X58000Y69175D02*Y68525D01*
X57000Y69175D02*Y68525D01*
X56000Y69175D02*Y68525D01*
G54D138*X52800Y70925D02*Y70875D01*
X51200Y70925D02*Y70875D01*
X48800Y70925D02*Y70875D01*
X47200Y70925D02*Y70875D01*
G54D136*X55000Y69175D02*Y68525D01*
X54000Y69175D02*Y68525D01*
X53000Y69175D02*Y68525D01*
X52000Y69175D02*Y68525D01*
X51000Y69175D02*Y68525D01*
X50000Y69175D02*Y68525D01*
X49000Y69175D02*Y68525D01*
X48000Y69175D02*Y68525D01*
X47000Y69175D02*Y68525D01*
X46000Y69175D02*Y68525D01*
X45000Y69175D02*Y68525D01*
G54D144*X52350Y21750D02*X52650D01*
X52350Y21250D02*X52650D01*
X52350Y20750D02*X52650D01*
X52350Y20250D02*X52650D01*
X52350Y19750D02*X52650D01*
X52350Y19250D02*X52650D01*
X52350Y18750D02*X52650D01*
X56600Y18300D02*Y18000D01*
X56100Y18300D02*Y18000D01*
X55600Y18300D02*Y18000D01*
X55100Y18300D02*Y18000D01*
X54600Y18300D02*Y18000D01*
X54100Y18300D02*Y18000D01*
X53600Y18300D02*Y18000D01*
X57050Y19250D02*X57350D01*
X57050Y18750D02*X57350D01*
G54D134*X58950Y18100D02*Y17800D01*
X60750Y18100D02*Y17800D01*
G54D144*X57050Y19750D02*X57350D01*
G54D148*X54850Y20501D02*Y20499D01*
G54D149*X55100Y20650D02*Y20350D01*
X54600Y20650D02*Y20350D01*
X54100Y19650D02*Y19350D01*
X53600Y19650D02*Y19350D01*
X56100Y19650D02*Y19350D01*
X55600Y19650D02*Y19350D01*
X54100Y20650D02*Y20350D01*
X53600Y20650D02*Y20350D01*
X55100Y19650D02*Y19350D01*
X54600Y19650D02*Y19350D01*
G54D144*X57050Y22250D02*X57350D01*
X57050Y21750D02*X57350D01*
X57050Y21250D02*X57350D01*
G54D149*X56100Y21650D02*Y21350D01*
Y20650D02*Y20350D01*
X55600Y21650D02*Y21350D01*
Y20650D02*Y20350D01*
G54D144*X57050Y20750D02*X57350D01*
X57050Y20250D02*X57350D01*
G54D142*X58800Y21550D02*X58900D01*
X58800Y19650D02*X58900D01*
X60800Y20600D02*X60900D01*
G54D138*X52125Y12650D02*X52175D01*
G54D137*X52150Y14801D02*Y14799D01*
Y13901D02*Y13899D01*
G54D150*X53895Y14335D02*X54205D01*
G54D137*X54600Y16001D02*Y15999D01*
Y16901D02*Y16899D01*
X53600Y16001D02*Y15999D01*
Y16901D02*Y16899D01*
X50349Y17900D02*X50351D01*
X49449D02*X49451D01*
X50600Y16901D02*Y16899D01*
Y16001D02*Y15999D01*
X49600Y16001D02*Y15999D01*
Y16901D02*Y16899D01*
X52600Y16001D02*Y15999D01*
Y16901D02*Y16899D01*
X51600Y16901D02*Y16899D01*
Y16001D02*Y15999D01*
G54D138*X52125Y11050D02*X52175D01*
G54D150*X53895Y11065D02*X54205D01*
G54D151*X49937Y11487D02*Y11012D01*
G54D152*X47150Y16700D02*Y16400D01*
X48100Y16700D02*Y16400D01*
G54D153*X46937Y11613D02*Y10887D01*
G54D154*X48887Y12675D02*X49362D01*
G54D155*X48630Y14330D02*X49170D01*
G54D156*X47300Y14800D02*Y13600D01*
X46650Y14800D02*Y13600D01*
X46000Y14800D02*Y13600D01*
X45350Y14800D02*Y13600D01*
X44700Y14800D02*Y13600D01*
G54D137*X39949Y20050D02*X39951D01*
X39049D02*X39051D01*
X38049D02*X38051D01*
X37149D02*X37151D01*
X36149D02*X36151D01*
G54D145*X35695Y13750D02*Y12150D01*
G54D138*X35670Y14750D02*X35720D01*
G54D149*X35695Y14250D02*Y14050D01*
G54D145*X36965Y13750D02*Y12150D01*
G54D138*X36940Y14750D02*X36990D01*
G54D149*X36965Y14250D02*Y14050D01*
G54D145*X38235Y13750D02*Y12150D01*
G54D138*X38210Y14750D02*X38260D01*
G54D149*X38235Y14250D02*Y14050D01*
G54D145*X39505Y13750D02*Y12150D01*
G54D138*X39480Y14750D02*X39530D01*
G54D149*X39505Y14250D02*Y14050D01*
G54D134*X42100Y18600D02*X42400D01*
G54D155*X42830Y14330D02*X43370D01*
G54D153*X45063Y11613D02*Y10887D01*
G54D151*X42063Y11487D02*Y11012D01*
G54D137*X36149Y10850D02*X36151D01*
X35249D02*X35251D01*
G54D154*X42638Y12675D02*X43113D01*
G54D144*X56600Y23000D02*Y22700D01*
G54D137*X59549Y22950D02*X59551D01*
X58649D02*X58651D01*
G54D144*X56100Y23000D02*Y22700D01*
X55600Y23000D02*Y22700D01*
G54D137*X41249Y23300D02*X41251D01*
X40349D02*X40351D01*
G54D144*X55100Y23000D02*Y22700D01*
X54600Y23000D02*Y22700D01*
X54100Y23000D02*Y22700D01*
X53600Y23000D02*Y22700D01*
X53100Y23000D02*Y22700D01*
X52350Y22250D02*X52650D01*
G54D149*X55100Y21650D02*Y21350D01*
X54600Y21650D02*Y21350D01*
X54100Y21650D02*Y21350D01*
X53600Y21650D02*Y21350D01*
G54D144*X53100Y18300D02*Y18000D01*
G54D137*X51350Y17901D02*Y17899D01*
Y18801D02*Y18799D01*
G54D152*X48100Y19100D02*Y18800D01*
X47150Y19100D02*Y18800D01*
X46200Y19100D02*Y18800D01*
Y16700D02*Y16400D01*
G54D139*X44000Y47100D02*Y44800D01*
Y39200D02*Y36900D01*
X56000Y47100D02*Y44800D01*
Y39200D02*Y36900D01*
G54D137*X48500Y48251D02*Y48249D01*
X51500Y48251D02*Y48249D01*
X49500Y48251D02*Y48249D01*
X50500Y48251D02*Y48249D01*
G54D136*X45000Y50975D02*Y50325D01*
X46000Y50975D02*Y50325D01*
X47000Y50975D02*Y50325D01*
X48000Y50975D02*Y50325D01*
G54D134*X41475Y52650D02*X42125D01*
X41475Y49650D02*X42125D01*
G54D136*X49000Y50975D02*Y50325D01*
X50000Y50975D02*Y50325D01*
G54D137*X48500Y49151D02*Y49149D01*
X49500Y49151D02*Y49149D01*
G54D136*X51000Y50975D02*Y50325D01*
G54D137*X51500Y49151D02*Y49149D01*
X50500Y49151D02*Y49149D01*
G54D146*X49475Y56700D02*X54525D01*
G54D147*X52975Y58650D02*X53750D01*
X52975Y56700D02*X53750D01*
X50250D02*X51025D01*
X55700Y58650D02*X56475D01*
X55700Y56700D02*X56475D01*
X47525Y58650D02*X48300D01*
X50250D02*X51025D01*
X47525Y56700D02*X48300D01*
X47525Y54750D02*X48300D01*
X52975D02*X53750D01*
X55700D02*X56475D01*
X50250D02*X51025D01*
G54D134*X41650Y58100D02*X41950D01*
G54D146*X47275Y62800D02*X48325D01*
G54D147*X49925Y64750D02*X50275D01*
X47625D02*X47975D01*
X47625Y62800D02*X47975D01*
X45325Y60850D02*X45675D01*
G54D134*X41650Y59900D02*X41950D01*
G54D147*X45325Y64750D02*X45675D01*
X45325Y62800D02*X45675D01*
X49925D02*X50275D01*
X49925Y60850D02*X50275D01*
X47625D02*X47975D01*
G54D146*X55675Y62800D02*X56725D01*
G54D147*X53725Y64750D02*X54075D01*
X56025D02*X56375D01*
X56025Y62800D02*X56375D01*
X58325Y60850D02*X58675D01*
X58325Y64750D02*X58675D01*
X58325Y62800D02*X58675D01*
X53725D02*X54075D01*
X53725Y60850D02*X54075D01*
X56025D02*X56375D01*
G54D136*X52000Y50975D02*Y50325D01*
X53000Y50975D02*Y50325D01*
X54000Y50975D02*Y50325D01*
X55000Y50975D02*Y50325D01*
X56000Y50975D02*Y50325D01*
X57000Y50975D02*Y50325D01*
X58000Y50975D02*Y50325D01*
X59000Y50975D02*Y50325D01*
G54D138*X58600Y48975D02*Y48925D01*
X57000Y48975D02*Y48925D01*
G54D137*X53999Y48950D02*X54001D01*
X53099D02*X53101D01*
G54D142*X58900Y35000D02*X59000D01*
X60900Y34050D02*X61000D01*
G54D138*X57425Y34950D02*X57475D01*
G54D137*X56150Y34351D02*Y34349D01*
Y35251D02*Y35249D01*
G54D138*X57425Y33350D02*X57475D01*
G54D142*X58900Y33100D02*X59000D01*
G54D137*X53150Y35251D02*Y35249D01*
Y34351D02*Y34349D01*
X55150Y34351D02*Y34349D01*
Y35251D02*Y35249D01*
X54150Y35251D02*Y35249D01*
Y34351D02*Y34349D01*
G54D152*X50050Y33750D02*X50350D01*
G54D137*X51999Y31300D02*X52001D01*
X52899Y32300D02*X52901D01*
G54D152*X50050Y31850D02*X50350D01*
X50050Y32800D02*X50350D01*
G54D137*X51999Y32300D02*X52001D01*
X52899Y33300D02*X52901D01*
X51999D02*X52001D01*
G54D157*X48400Y25050D02*X52400D01*
G54D137*X48449Y23200D02*X48451D01*
X47549D02*X47551D01*
G54D134*X43900Y27600D02*X44200D01*
X43900Y25800D02*X44200D01*
X45900Y27600D02*X46200D01*
X45900Y25800D02*X46200D01*
G54D137*X41249Y25700D02*X41251D01*
X41249Y26900D02*X41251D01*
X41249Y24500D02*X41251D01*
X52899Y31300D02*X52901D01*
G54D157*X48400Y29350D02*X52400D01*
G54D142*X44250Y31050D02*X44350D01*
G54D137*X41249Y32200D02*X41251D01*
X41249Y31000D02*X41251D01*
G54D142*X44250Y29150D02*X44350D01*
X46250Y30100D02*X46350D01*
G54D137*X41249Y28100D02*X41251D01*
X41249Y29800D02*X41251D01*
X41249Y33400D02*X41251D01*
G54D152*X47650Y33750D02*X47950D01*
G54D137*X47549Y35050D02*X47551D01*
X48449D02*X48451D01*
G54D134*X46200Y34725D02*Y34075D01*
X43200Y34725D02*Y34075D01*
G54D152*X47650Y32800D02*X47950D01*
X47650Y31850D02*X47950D01*
G54D138*X44700Y32525D02*Y32475D01*
X46300Y32525D02*Y32475D01*
G54D137*X41249Y34600D02*X41251D01*
G54D139*X28000Y39200D02*Y36900D01*
G54D137*X27750Y32951D02*Y32949D01*
Y33851D02*Y33849D01*
X28750Y32951D02*Y32949D01*
Y33851D02*Y33849D01*
X28749Y31600D02*X28751D01*
X28750Y29651D02*Y29649D01*
Y30551D02*Y30549D01*
X27849Y34900D02*X27851D01*
X28749D02*X28751D01*
G54D144*X23200Y28850D02*X24100D01*
X23200Y29350D02*X24100D01*
X23200Y29850D02*X24100D01*
X23200Y30350D02*X24100D01*
X23200Y30850D02*X24100D01*
X23200Y31350D02*X24100D01*
X23200Y31850D02*X24100D01*
X21650Y34300D02*Y33400D01*
X21150Y34300D02*Y33400D01*
X20650Y34300D02*Y33400D01*
X20150Y34300D02*Y33400D01*
X19650Y34300D02*Y33400D01*
G54D142*X36350Y27300D02*X36450D01*
X36350Y30600D02*X36450D01*
X38350Y29650D02*X38450D01*
G54D137*X35100Y29651D02*Y29649D01*
Y30551D02*Y30549D01*
X34100Y29651D02*Y29649D01*
Y30551D02*Y30549D01*
G54D142*X32000Y29650D02*X32100D01*
X38350Y31550D02*X38450D01*
G54D137*X34199Y31600D02*X34201D01*
X35099D02*X35101D01*
G54D142*X32000Y32950D02*X32100D01*
X32000Y34850D02*X32100D01*
X30000Y33900D02*X30100D01*
X32000Y31550D02*X32100D01*
X30000Y30600D02*X30100D01*
G54D144*X15650Y34300D02*Y33400D01*
X15150Y34300D02*Y33400D01*
X14650Y34300D02*Y33400D01*
X14150Y34300D02*Y33400D01*
Y22800D02*Y21900D01*
X14650Y22800D02*Y21900D01*
X15150Y22800D02*Y21900D01*
X15650Y22800D02*Y21900D01*
X16150Y22800D02*Y21900D01*
X16650Y22800D02*Y21900D01*
X17150Y22800D02*Y21900D01*
X17650Y22800D02*Y21900D01*
X18150Y22800D02*Y21900D01*
X18650Y22800D02*Y21900D01*
X19150Y22800D02*Y21900D01*
X19650Y22800D02*Y21900D01*
X20150Y22800D02*Y21900D01*
X20650Y22800D02*Y21900D01*
X21150Y22800D02*Y21900D01*
X21650Y22800D02*Y21900D01*
G54D137*X19200Y15901D02*Y15899D01*
Y16801D02*Y16799D01*
X18200Y16801D02*Y16799D01*
Y15901D02*Y15899D01*
G54D142*X36950Y39800D02*Y39700D01*
X35050Y39800D02*Y39700D01*
X36000Y37800D02*Y37700D01*
X38350Y34850D02*X38450D01*
X36350Y33900D02*X36450D01*
G54D137*X35100Y32951D02*Y32949D01*
Y33851D02*Y33849D01*
X34100Y32951D02*Y32949D01*
Y33851D02*Y33849D01*
X34199Y34900D02*X34201D01*
X35099D02*X35101D01*
G54D138*X26025Y34350D02*X26075D01*
X26025Y32750D02*X26075D01*
G54D137*X24749Y35300D02*X24751D01*
X23849D02*X23851D01*
X25050Y29851D02*Y29849D01*
Y30751D02*Y30749D01*
X26050Y30551D02*Y30549D01*
Y31451D02*Y31449D01*
X34199Y28300D02*X34201D01*
X35099D02*X35101D01*
G54D142*X38350Y32950D02*X38450D01*
X38350Y28250D02*X38450D01*
G54D137*X40349Y28100D02*X40351D01*
X40349Y32200D02*X40351D01*
X40349Y31000D02*X40351D01*
X40349Y29800D02*X40351D01*
X40349Y33400D02*X40351D01*
X40349Y34600D02*X40351D01*
X25050Y27951D02*Y27949D01*
G54D144*X23200Y24350D02*X24100D01*
X23200Y24850D02*X24100D01*
X23200Y25350D02*X24100D01*
X23200Y25850D02*X24100D01*
X23200Y26350D02*X24100D01*
X23200Y26850D02*X24100D01*
X23200Y27350D02*X24100D01*
X23200Y27850D02*X24100D01*
X23200Y28350D02*X24100D01*
G54D134*X23600Y16675D02*Y16025D01*
X20600Y16675D02*Y16025D01*
X23250Y18350D02*X23550D01*
X23250Y20150D02*X23550D01*
G54D137*X21900Y19651D02*Y19649D01*
Y20551D02*Y20549D01*
X25050Y28851D02*Y28849D01*
G54D142*X27150Y15900D02*X27250D01*
X27150Y17800D02*X27250D01*
X25150Y16850D02*X25250D01*
G54D137*X25050Y24151D02*Y24149D01*
Y25051D02*Y25049D01*
Y26051D02*Y26049D01*
Y26951D02*Y26949D01*
X26050Y28651D02*Y28649D01*
Y29551D02*Y29549D01*
X27750Y29651D02*Y29649D01*
Y30551D02*Y30549D01*
X27849Y31600D02*X27851D01*
X28500Y16951D02*Y16949D01*
Y16051D02*Y16049D01*
X32850Y25201D02*Y25199D01*
Y26201D02*Y26199D01*
Y27101D02*Y27099D01*
X35100Y26351D02*Y26349D01*
Y27251D02*Y27249D01*
X34100Y26351D02*Y26349D01*
Y27251D02*Y27249D01*
G54D142*X38350Y26350D02*X38450D01*
G54D137*X40349Y25700D02*X40351D01*
X40349Y26900D02*X40351D01*
X40349Y24500D02*X40351D01*
X35249Y20050D02*X35251D01*
G54D134*X35650Y22025D02*Y21375D01*
G54D137*X36249Y23350D02*X36251D01*
X35349D02*X35351D01*
G54D138*X35750Y24675D02*Y24625D01*
X34150Y24675D02*Y24625D01*
G54D137*X32850Y24301D02*Y24299D01*
X31500Y16051D02*Y16049D01*
X29500Y16051D02*Y16049D01*
X30500Y16051D02*Y16049D01*
X31500Y16951D02*Y16949D01*
X29500Y16951D02*Y16949D01*
X30500Y16951D02*Y16949D01*
X32500Y16951D02*Y16949D01*
Y16051D02*Y16049D01*
X33500Y16951D02*Y16949D01*
Y16051D02*Y16049D01*
G54D145*X46199Y23750D02*X46201D01*
X43999D02*X44001D01*
G54D137*X43799Y19950D02*X43801D01*
X44699D02*X44701D01*
G54D134*X44100Y16800D02*X44400D01*
X44100Y18600D02*X44400D01*
X38650Y22025D02*Y21375D01*
G54D145*X38235Y18950D02*Y17350D01*
X36965Y18950D02*Y17350D01*
X35695Y18950D02*Y17350D01*
G54D138*X35670Y16350D02*X35720D01*
G54D149*X35695Y17050D02*Y16850D01*
G54D138*X36940Y16350D02*X36990D01*
G54D149*X36965Y17050D02*Y16850D01*
G54D138*X38210Y16350D02*X38260D01*
X39480D02*X39530D01*
G54D149*X39505Y17050D02*Y16850D01*
X38235Y17050D02*Y16850D01*
G54D145*X39505Y18950D02*Y17350D01*
G54D137*X41799Y19950D02*X41801D01*
X42699D02*X42701D01*
G54D134*X42100Y16800D02*X42400D01*
M02*
