G04 start of page 14 for group -3984 idx -3984 *
G04 Title: (unknown), fab *
G04 Creator: pcb 1.99z *
G04 CreationDate: Mon 27 May 2013 22:28:21 GMT UTC *
G04 For: rbarlow *
G04 Format: Gerber/RS-274X *
G04 PCB-Dimensions (mm): 70.00 90.00 *
G04 PCB-Coordinate-Origin: lower left *
%MOMM*%
%FSLAX43Y43*%
%LNFAB*%
%ADD200C,0.254*%
%ADD199C,0.191*%
%ADD198C,0.152*%
%ADD197R,0.203X0.203*%
G54D197*X13297Y76500D02*G75*G03X13703Y76500I203J0D01*G01*
G75*G03X13297Y76500I-203J0D01*G01*
X12890D02*G75*G03X14110Y76500I610J0D01*G01*
G75*G03X12890Y76500I-610J0D01*G01*
X13297Y13500D02*G75*G03X13703Y13500I203J0D01*G01*
G75*G03X13297Y13500I-203J0D01*G01*
X12890D02*G75*G03X14110Y13500I610J0D01*G01*
G75*G03X12890Y13500I-610J0D01*G01*
X58297D02*G75*G03X58703Y13500I203J0D01*G01*
G75*G03X58297Y13500I-203J0D01*G01*
X57890D02*G75*G03X59110Y13500I610J0D01*G01*
G75*G03X57890Y13500I-610J0D01*G01*
X58297Y76500D02*G75*G03X58703Y76500I203J0D01*G01*
G75*G03X58297Y76500I-203J0D01*G01*
X57890D02*G75*G03X59110Y76500I610J0D01*G01*
G75*G03X57890Y76500I-610J0D01*G01*
X3607Y92858D02*G75*G03X4013Y92858I203J0D01*G01*
G75*G03X3607Y92858I-203J0D01*G01*
X3200D02*G75*G03X4420Y92858I610J0D01*G01*
G75*G03X3200Y92858I-610J0D01*G01*
G54D198*X35560Y93429D02*Y91905D01*
Y93429D02*X36512Y91905D01*
Y93429D02*Y91905D01*
X36970Y93238D02*Y92096D01*
Y93238D02*X37160Y93429D01*
X37541D01*
X37732Y93238D01*
Y92096D01*
X37541Y91905D02*X37732Y92096D01*
X37160Y91905D02*X37541D01*
X36970Y92096D02*X37160Y91905D01*
X24892Y92476D02*X25654Y93429D01*
X24892Y92476D02*X25844D01*
X25654Y93429D02*Y91905D01*
X11430Y92096D02*X11620Y91905D01*
X11430Y93238D02*Y92096D01*
Y93238D02*X11620Y93429D01*
X12002D01*
X12192Y93238D01*
Y92096D01*
X12002Y91905D02*X12192Y92096D01*
X11620Y91905D02*X12002D01*
X11430Y92286D02*X12192Y93048D01*
X12649Y91905D02*X12840D01*
X13297Y93124D02*X13602Y93429D01*
Y91905D01*
X13297D02*X13868D01*
X14326Y93238D02*X14516Y93429D01*
X15088D01*
X15278Y93238D01*
Y92858D01*
X14326Y91905D02*X15278Y92858D01*
X14326Y91905D02*X15278D01*
X16307Y93429D02*X16497Y93238D01*
X15926Y93429D02*X16307D01*
X15735Y93238D02*X15926Y93429D01*
X15735Y93238D02*Y92096D01*
X15926Y91905D01*
X16307Y92743D02*X16497Y92553D01*
X15735Y92743D02*X16307D01*
X15926Y91905D02*X16307D01*
X16497Y92096D01*
Y92553D02*Y92096D01*
X24790Y74610D02*X26010Y73390D01*
X24790D02*X26010Y74610D01*
X24994Y74406D02*X25806D01*
X24994D02*Y73594D01*
X25806D01*
Y74406D02*Y73594D01*
X19790Y74610D02*X21010Y73390D01*
X19790D02*X21010Y74610D01*
X19994Y74406D02*X20806D01*
X19994D02*Y73594D01*
X20806D01*
Y74406D02*Y73594D01*
X50990Y74610D02*X52210Y73390D01*
X50990D02*X52210Y74610D01*
X51194Y74406D02*X52006D01*
X51194D02*Y73594D01*
X52006D01*
Y74406D02*Y73594D01*
X45990Y74610D02*X47210Y73390D01*
X45990D02*X47210Y74610D01*
X46194Y74406D02*X47006D01*
X46194D02*Y73594D01*
X47006D01*
Y74406D02*Y73594D01*
X39140Y74610D02*X40360Y73390D01*
X39140D02*X40360Y74610D01*
X39344Y74406D02*X40156D01*
X39344D02*Y73594D01*
X40156D01*
Y74406D02*Y73594D01*
X31640Y74610D02*X32860Y73390D01*
X31640D02*X32860Y74610D01*
X31844Y74406D02*X32656D01*
X31844D02*Y73594D01*
X32656D01*
Y74406D02*Y73594D01*
X3200Y97277D02*X4420Y96058D01*
X3200D02*X4420Y97277D01*
X3404Y97074D02*X4216D01*
X3404D02*Y96261D01*
X4216D01*
Y97074D02*Y96261D01*
X34290Y97239D02*X34671Y96477D01*
X35052Y97239D01*
X34671Y96477D02*Y95715D01*
X35509Y96553D02*X36081D01*
X35509Y95715D02*X36271D01*
X35509Y97239D02*Y95715D01*
Y97239D02*X36271D01*
X37490D02*X37681Y97048D01*
X36919Y97239D02*X37490D01*
X36728Y97048D02*X36919Y97239D01*
X36728Y97048D02*Y96668D01*
X36919Y96477D01*
X37490D01*
X37681Y96286D01*
Y95906D01*
X37490Y95715D02*X37681Y95906D01*
X36919Y95715D02*X37490D01*
X36728Y95906D02*X36919Y95715D01*
X25464Y97239D02*X25654Y97048D01*
X25082Y97239D02*X25464D01*
X24892Y97048D02*X25082Y97239D01*
X24892Y97048D02*Y95906D01*
X25082Y95715D01*
X25464Y96553D02*X25654Y96363D01*
X24892Y96553D02*X25464D01*
X25082Y95715D02*X25464D01*
X25654Y95906D01*
Y96363D02*Y95906D01*
X11430D02*X11620Y95715D01*
X11430Y97048D02*Y95906D01*
Y97048D02*X11620Y97239D01*
X12002D01*
X12192Y97048D01*
Y95906D01*
X12002Y95715D02*X12192Y95906D01*
X11620Y95715D02*X12002D01*
X11430Y96096D02*X12192Y96858D01*
X12649Y95715D02*X12840D01*
X13297Y95906D02*X13487Y95715D01*
X13297Y97048D02*Y95906D01*
Y97048D02*X13487Y97239D01*
X13868D01*
X14059Y97048D01*
Y95906D01*
X13868Y95715D02*X14059Y95906D01*
X13487Y95715D02*X13868D01*
X13297Y96096D02*X14059Y96858D01*
X15088Y97239D02*X15278Y97048D01*
X14707Y97239D02*X15088D01*
X14516Y97048D02*X14707Y97239D01*
X14516Y97048D02*Y95906D01*
X14707Y95715D01*
X15088Y96553D02*X15278Y96363D01*
X14516Y96553D02*X15088D01*
X14707Y95715D02*X15088D01*
X15278Y95906D01*
Y96363D02*Y95906D01*
X15735Y97048D02*X15926Y97239D01*
X16307D01*
X16497Y97048D01*
X16307Y95715D02*X16497Y95906D01*
X15926Y95715D02*X16307D01*
X15735Y95906D02*X15926Y95715D01*
Y96553D02*X16307D01*
X16497Y97048D02*Y96744D01*
Y96363D02*Y95906D01*
Y96363D02*X16307Y96553D01*
X16497Y96744D02*X16307Y96553D01*
X37270Y63943D02*Y62317D01*
X36457Y63130D02*X38083D01*
X36864Y63536D02*X37676D01*
X36864D02*Y62724D01*
X37676D01*
Y63536D02*Y62724D01*
X34730Y63943D02*Y62317D01*
X33917Y63130D02*X35543D01*
X34324Y63536D02*X35136D01*
X34324D02*Y62724D01*
X35136D01*
Y63536D02*Y62724D01*
X34730Y59883D02*Y58257D01*
X33917Y59070D02*X35543D01*
X34324Y59476D02*X35136D01*
X34324D02*Y58664D01*
X35136D01*
Y59476D02*Y58664D01*
X37270Y59883D02*Y58257D01*
X36457Y59070D02*X38083D01*
X36864Y59476D02*X37676D01*
X36864D02*Y58664D01*
X37676D01*
Y59476D02*Y58664D01*
X3810Y101290D02*Y99665D01*
X2997Y100478D02*X4623D01*
X3404Y100884D02*X4216D01*
X3404D02*Y100071D01*
X4216D01*
Y100884D02*Y100071D01*
X34290Y101049D02*X34671Y100287D01*
X35052Y101049D01*
X34671Y100287D02*Y99525D01*
X35509Y100363D02*X36081D01*
X35509Y99525D02*X36271D01*
X35509Y101049D02*Y99525D01*
Y101049D02*X36271D01*
X37490D02*X37681Y100858D01*
X36919Y101049D02*X37490D01*
X36728Y100858D02*X36919Y101049D01*
X36728Y100858D02*Y100478D01*
X36919Y100287D01*
X37490D01*
X37681Y100096D01*
Y99716D01*
X37490Y99525D02*X37681Y99716D01*
X36919Y99525D02*X37490D01*
X36728Y99716D02*X36919Y99525D01*
X24892Y100096D02*X25654Y101049D01*
X24892Y100096D02*X25844D01*
X25654Y101049D02*Y99525D01*
X11430Y99716D02*X11620Y99525D01*
X11430Y100858D02*Y99716D01*
Y100858D02*X11620Y101049D01*
X12002D01*
X12192Y100858D01*
Y99716D01*
X12002Y99525D02*X12192Y99716D01*
X11620Y99525D02*X12002D01*
X11430Y99906D02*X12192Y100668D01*
X12649Y99525D02*X12840D01*
X13297Y99716D02*X13487Y99525D01*
X13297Y100858D02*Y99716D01*
Y100858D02*X13487Y101049D01*
X13868D01*
X14059Y100858D01*
Y99716D01*
X13868Y99525D02*X14059Y99716D01*
X13487Y99525D02*X13868D01*
X13297Y99906D02*X14059Y100668D01*
X14516Y101049D02*X15278D01*
X14516D02*Y100287D01*
X14707Y100478D01*
X15088D01*
X15278Y100287D01*
Y99716D01*
X15088Y99525D02*X15278Y99716D01*
X14707Y99525D02*X15088D01*
X14516Y99716D02*X14707Y99525D01*
X15926D02*X16497Y100287D01*
Y100858D02*Y100287D01*
X16307Y101049D02*X16497Y100858D01*
X15926Y101049D02*X16307D01*
X15735Y100858D02*X15926Y101049D01*
X15735Y100858D02*Y100478D01*
X15926Y100287D01*
X16497D01*
X55650Y24900D02*Y24087D01*
Y24900D02*X56354Y25306D01*
X55650Y24900D02*X54946Y25306D01*
X55244Y24900D02*G75*G03X56056Y24900I406J0D01*G01*
G75*G03X55244Y24900I-406J0D01*G01*
X55650Y31900D02*Y31087D01*
Y31900D02*X56354Y32306D01*
X55650Y31900D02*X54946Y32306D01*
X55244Y31900D02*G75*G03X56056Y31900I406J0D01*G01*
G75*G03X55244Y31900I-406J0D01*G01*
X3810Y104288D02*Y103475D01*
Y104288D02*X4514Y104694D01*
X3810Y104288D02*X3106Y104694D01*
X3404Y104288D02*G75*G03X4216Y104288I406J0D01*G01*
G75*G03X3404Y104288I-406J0D01*G01*
X34290Y104859D02*X34671Y104097D01*
X35052Y104859D01*
X34671Y104097D02*Y103335D01*
X35509Y104173D02*X36081D01*
X35509Y103335D02*X36271D01*
X35509Y104859D02*Y103335D01*
Y104859D02*X36271D01*
X37490D02*X37681Y104668D01*
X36919Y104859D02*X37490D01*
X36728Y104668D02*X36919Y104859D01*
X36728Y104668D02*Y104288D01*
X36919Y104097D01*
X37490D01*
X37681Y103906D01*
Y103526D01*
X37490Y103335D02*X37681Y103526D01*
X36919Y103335D02*X37490D01*
X36728Y103526D02*X36919Y103335D01*
X24892Y104668D02*X25082Y104859D01*
X25654D01*
X25844Y104668D01*
Y104288D01*
X24892Y103335D02*X25844Y104288D01*
X24892Y103335D02*X25844D01*
X11430Y103526D02*X11620Y103335D01*
X11430Y104668D02*Y103526D01*
Y104668D02*X11620Y104859D01*
X12002D01*
X12192Y104668D01*
Y103526D01*
X12002Y103335D02*X12192Y103526D01*
X11620Y103335D02*X12002D01*
X11430Y103716D02*X12192Y104478D01*
X12649Y103335D02*X12840D01*
X13297Y103526D02*X13487Y103335D01*
X13297Y104668D02*Y103526D01*
Y104668D02*X13487Y104859D01*
X13868D01*
X14059Y104668D01*
Y103526D01*
X13868Y103335D02*X14059Y103526D01*
X13487Y103335D02*X13868D01*
X13297Y103716D02*X14059Y104478D01*
X14516Y104859D02*X15278D01*
X14516D02*Y104097D01*
X14707Y104288D01*
X15088D01*
X15278Y104097D01*
Y103526D01*
X15088Y103335D02*X15278Y103526D01*
X14707Y103335D02*X15088D01*
X14516Y103526D02*X14707Y103335D01*
X15735Y104554D02*X16040Y104859D01*
Y103335D01*
X15735D02*X16307D01*
X19879Y14406D02*X20691D01*
X19879D02*Y13594D01*
X20691D01*
Y14406D02*Y13594D01*
X23689Y14406D02*X24501D01*
X23689D02*Y13594D01*
X24501D01*
Y14406D02*Y13594D01*
X27499Y14406D02*X28311D01*
X27499D02*Y13594D01*
X28311D01*
Y14406D02*Y13594D01*
X31309Y14406D02*X32121D01*
X31309D02*Y13594D01*
X32121D01*
Y14406D02*Y13594D01*
X41494Y11656D02*X42306D01*
X41494D02*Y10844D01*
X42306D01*
Y11656D02*Y10844D01*
X49694Y11656D02*X50506D01*
X49694D02*Y10844D01*
X50506D01*
Y11656D02*Y10844D01*
X3404Y108504D02*X4216D01*
X3404D02*Y107691D01*
X4216D01*
Y108504D02*Y107691D01*
X34290Y108669D02*X34671Y107907D01*
X35052Y108669D01*
X34671Y107907D02*Y107145D01*
X35509Y107983D02*X36081D01*
X35509Y107145D02*X36271D01*
X35509Y108669D02*Y107145D01*
Y108669D02*X36271D01*
X37490D02*X37681Y108478D01*
X36919Y108669D02*X37490D01*
X36728Y108478D02*X36919Y108669D01*
X36728Y108478D02*Y108098D01*
X36919Y107907D01*
X37490D01*
X37681Y107716D01*
Y107336D01*
X37490Y107145D02*X37681Y107336D01*
X36919Y107145D02*X37490D01*
X36728Y107336D02*X36919Y107145D01*
X25464Y108669D02*X25654Y108478D01*
X25082Y108669D02*X25464D01*
X24892Y108478D02*X25082Y108669D01*
X24892Y108478D02*Y107336D01*
X25082Y107145D01*
X25464Y107983D02*X25654Y107793D01*
X24892Y107983D02*X25464D01*
X25082Y107145D02*X25464D01*
X25654Y107336D01*
Y107793D02*Y107336D01*
X11430D02*X11620Y107145D01*
X11430Y108478D02*Y107336D01*
Y108478D02*X11620Y108669D01*
X12002D01*
X12192Y108478D01*
Y107336D01*
X12002Y107145D02*X12192Y107336D01*
X11620Y107145D02*X12002D01*
X11430Y107526D02*X12192Y108288D01*
X12649Y107145D02*X12840D01*
X13297Y107336D02*X13487Y107145D01*
X13297Y108478D02*Y107336D01*
Y108478D02*X13487Y108669D01*
X13868D01*
X14059Y108478D01*
Y107336D01*
X13868Y107145D02*X14059Y107336D01*
X13487Y107145D02*X13868D01*
X13297Y107526D02*X14059Y108288D01*
X14516Y107716D02*X15278Y108669D01*
X14516Y107716D02*X15469D01*
X15278Y108669D02*Y107145D01*
X16116D02*X16878Y108669D01*
X15926D02*X16878D01*
X33197Y22350D02*G75*G03X33603Y22350I203J0D01*G01*
G75*G03X33197Y22350I-203J0D01*G01*
Y19810D02*G75*G03X33603Y19810I203J0D01*G01*
G75*G03X33197Y19810I-203J0D01*G01*
X30657Y22350D02*G75*G03X31063Y22350I203J0D01*G01*
G75*G03X30657Y22350I-203J0D01*G01*
Y19810D02*G75*G03X31063Y19810I203J0D01*G01*
G75*G03X30657Y19810I-203J0D01*G01*
X28117Y22350D02*G75*G03X28523Y22350I203J0D01*G01*
G75*G03X28117Y22350I-203J0D01*G01*
Y19810D02*G75*G03X28523Y19810I203J0D01*G01*
G75*G03X28117Y19810I-203J0D01*G01*
X25577Y22350D02*G75*G03X25983Y22350I203J0D01*G01*
G75*G03X25577Y22350I-203J0D01*G01*
Y19810D02*G75*G03X25983Y19810I203J0D01*G01*
G75*G03X25577Y19810I-203J0D01*G01*
X57947Y26150D02*G75*G03X58353Y26150I203J0D01*G01*
G75*G03X57947Y26150I-203J0D01*G01*
Y30650D02*G75*G03X58353Y30650I203J0D01*G01*
G75*G03X57947Y30650I-203J0D01*G01*
X3607Y111908D02*G75*G03X4013Y111908I203J0D01*G01*
G75*G03X3607Y111908I-203J0D01*G01*
X34290Y112479D02*X34671Y111717D01*
X35052Y112479D01*
X34671Y111717D02*Y110955D01*
X35509Y111793D02*X36081D01*
X35509Y110955D02*X36271D01*
X35509Y112479D02*Y110955D01*
Y112479D02*X36271D01*
X37490D02*X37681Y112288D01*
X36919Y112479D02*X37490D01*
X36728Y112288D02*X36919Y112479D01*
X36728Y112288D02*Y111908D01*
X36919Y111717D01*
X37490D01*
X37681Y111526D01*
Y111146D01*
X37490Y110955D02*X37681Y111146D01*
X36919Y110955D02*X37490D01*
X36728Y111146D02*X36919Y110955D01*
X24892Y112174D02*X25197Y112479D01*
Y110955D01*
X24892D02*X25464D01*
X25921Y111146D02*X26111Y110955D01*
X25921Y112288D02*Y111146D01*
Y112288D02*X26111Y112479D01*
X26492D01*
X26683Y112288D01*
Y111146D01*
X26492Y110955D02*X26683Y111146D01*
X26111Y110955D02*X26492D01*
X25921Y111336D02*X26683Y112098D01*
X11430Y111146D02*X11620Y110955D01*
X11430Y112288D02*Y111146D01*
Y112288D02*X11620Y112479D01*
X12002D01*
X12192Y112288D01*
Y111146D01*
X12002Y110955D02*X12192Y111146D01*
X11620Y110955D02*X12002D01*
X11430Y111336D02*X12192Y112098D01*
X12649Y110955D02*X12840D01*
X13297Y111146D02*X13487Y110955D01*
X13297Y112288D02*Y111146D01*
Y112288D02*X13487Y112479D01*
X13868D01*
X14059Y112288D01*
Y111146D01*
X13868Y110955D02*X14059Y111146D01*
X13487Y110955D02*X13868D01*
X13297Y111336D02*X14059Y112098D01*
X14516Y112288D02*X14707Y112479D01*
X15088D01*
X15278Y112288D01*
X15088Y110955D02*X15278Y111146D01*
X14707Y110955D02*X15088D01*
X14516Y111146D02*X14707Y110955D01*
Y111793D02*X15088D01*
X15278Y112288D02*Y111984D01*
Y111603D02*Y111146D01*
Y111603D02*X15088Y111793D01*
X15278Y111984D02*X15088Y111793D01*
X15926Y110955D02*X16497Y111717D01*
Y112288D02*Y111717D01*
X16307Y112479D02*X16497Y112288D01*
X15926Y112479D02*X16307D01*
X15735Y112288D02*X15926Y112479D01*
X15735Y112288D02*Y111908D01*
X15926Y111717D01*
X16497D01*
X43270Y14635D02*X43880Y14025D01*
X43270D02*X43880Y14635D01*
X48120D02*X48730Y14025D01*
X48120D02*X48730Y14635D01*
X3505Y116022D02*X4115Y115413D01*
X3505D02*X4115Y116022D01*
X34290Y116289D02*X34671Y115527D01*
X35052Y116289D01*
X34671Y115527D02*Y114765D01*
X35509Y115603D02*X36081D01*
X35509Y114765D02*X36271D01*
X35509Y116289D02*Y114765D01*
Y116289D02*X36271D01*
X37490D02*X37681Y116098D01*
X36919Y116289D02*X37490D01*
X36728Y116098D02*X36919Y116289D01*
X36728Y116098D02*Y115718D01*
X36919Y115527D01*
X37490D01*
X37681Y115336D01*
Y114956D01*
X37490Y114765D02*X37681Y114956D01*
X36919Y114765D02*X37490D01*
X36728Y114956D02*X36919Y114765D01*
X24892Y116098D02*X25082Y116289D01*
X25654D01*
X25844Y116098D01*
Y115718D01*
X24892Y114765D02*X25844Y115718D01*
X24892Y114765D02*X25844D01*
X11430Y114956D02*X11620Y114765D01*
X11430Y116098D02*Y114956D01*
Y116098D02*X11620Y116289D01*
X12002D01*
X12192Y116098D01*
Y114956D01*
X12002Y114765D02*X12192Y114956D01*
X11620Y114765D02*X12002D01*
X11430Y115146D02*X12192Y115908D01*
X12649Y114765D02*X12840D01*
X13297Y114956D02*X13487Y114765D01*
X13297Y116098D02*Y114956D01*
Y116098D02*X13487Y116289D01*
X13868D01*
X14059Y116098D01*
Y114956D01*
X13868Y114765D02*X14059Y114956D01*
X13487Y114765D02*X13868D01*
X13297Y115146D02*X14059Y115908D01*
X14516Y116098D02*X14707Y116289D01*
X15088D01*
X15278Y116098D01*
X15088Y114765D02*X15278Y114956D01*
X14707Y114765D02*X15088D01*
X14516Y114956D02*X14707Y114765D01*
Y115603D02*X15088D01*
X15278Y116098D02*Y115794D01*
Y115413D02*Y114956D01*
Y115413D02*X15088Y115603D01*
X15278Y115794D02*X15088Y115603D01*
X15735Y115984D02*X16040Y116289D01*
Y114765D01*
X15735D02*X16307D01*
X13033Y19236D02*Y18423D01*
X12627Y18829D02*X13440D01*
X13033Y20506D02*Y19693D01*
X12627Y20099D02*X13440D01*
X14303Y19236D02*Y18423D01*
X13897Y18829D02*X14710D01*
X14303Y20506D02*Y19693D01*
X13897Y20099D02*X14710D01*
X15573Y19236D02*Y18423D01*
X15167Y18829D02*X15980D01*
X15573Y20506D02*Y19693D01*
X15167Y20099D02*X15980D01*
X16843Y19236D02*Y18423D01*
X16437Y18829D02*X17250D01*
X16843Y20506D02*Y19693D01*
X16437Y20099D02*X17250D01*
X18113Y19236D02*Y18423D01*
X17707Y18829D02*X18520D01*
X18113Y20506D02*Y19693D01*
X17707Y20099D02*X18520D01*
X3810Y119934D02*Y119121D01*
X3404Y119528D02*X4216D01*
X34290Y120099D02*X34671Y119337D01*
X35052Y120099D01*
X34671Y119337D02*Y118575D01*
X35509Y119413D02*X36081D01*
X35509Y118575D02*X36271D01*
X35509Y120099D02*Y118575D01*
Y120099D02*X36271D01*
X37490D02*X37681Y119908D01*
X36919Y120099D02*X37490D01*
X36728Y119908D02*X36919Y120099D01*
X36728Y119908D02*Y119528D01*
X36919Y119337D01*
X37490D01*
X37681Y119146D01*
Y118766D01*
X37490Y118575D02*X37681Y118766D01*
X36919Y118575D02*X37490D01*
X36728Y118766D02*X36919Y118575D01*
X24892Y119794D02*X25197Y120099D01*
Y118575D01*
X24892D02*X25464D01*
X25921Y118766D02*X26111Y118575D01*
X25921Y119908D02*Y118766D01*
Y119908D02*X26111Y120099D01*
X26492D01*
X26683Y119908D01*
Y118766D01*
X26492Y118575D02*X26683Y118766D01*
X26111Y118575D02*X26492D01*
X25921Y118956D02*X26683Y119718D01*
X11430Y118766D02*X11620Y118575D01*
X11430Y119908D02*Y118766D01*
Y119908D02*X11620Y120099D01*
X12002D01*
X12192Y119908D01*
Y118766D01*
X12002Y118575D02*X12192Y118766D01*
X11620Y118575D02*X12002D01*
X11430Y118956D02*X12192Y119718D01*
X12649Y118575D02*X12840D01*
X13297Y118766D02*X13487Y118575D01*
X13297Y119908D02*Y118766D01*
Y119908D02*X13487Y120099D01*
X13868D01*
X14059Y119908D01*
Y118766D01*
X13868Y118575D02*X14059Y118766D01*
X13487Y118575D02*X13868D01*
X13297Y118956D02*X14059Y119718D01*
X14516Y119908D02*X14707Y120099D01*
X15278D01*
X15469Y119908D01*
Y119528D01*
X14516Y118575D02*X15469Y119528D01*
X14516Y118575D02*X15469D01*
X16497Y120099D02*X16688Y119908D01*
X16116Y120099D02*X16497D01*
X15926Y119908D02*X16116Y120099D01*
X15926Y119908D02*Y118766D01*
X16116Y118575D01*
X16497Y119413D02*X16688Y119223D01*
X15926Y119413D02*X16497D01*
X16116Y118575D02*X16497D01*
X16688Y118766D01*
Y119223D02*Y118766D01*
X52000Y70000D02*Y69594D01*
Y70000D02*X52352Y70203D01*
X52000Y70000D02*X51648Y70203D01*
X20000Y70000D02*Y69594D01*
Y70000D02*X20352Y70203D01*
X20000Y70000D02*X19648Y70203D01*
X42450Y71950D02*Y71544D01*
Y71950D02*X42802Y72153D01*
X42450Y71950D02*X42098Y72153D01*
X48800Y71950D02*Y71544D01*
Y71950D02*X49152Y72153D01*
X48800Y71950D02*X48448Y72153D01*
X46200Y67650D02*Y67244D01*
Y67650D02*X46552Y67853D01*
X46200Y67650D02*X45848Y67853D01*
X46200Y67000D02*Y66594D01*
Y67000D02*X46552Y67203D01*
X46200Y67000D02*X45848Y67203D01*
X46850Y67650D02*Y67244D01*
Y67650D02*X47202Y67853D01*
X46850Y67650D02*X46498Y67853D01*
X46850Y67000D02*Y66594D01*
Y67000D02*X47202Y67203D01*
X46850Y67000D02*X46498Y67203D01*
X47500Y67650D02*Y67244D01*
Y67650D02*X47852Y67853D01*
X47500Y67650D02*X47148Y67853D01*
X47500Y67000D02*Y66594D01*
Y67000D02*X47852Y67203D01*
X47500Y67000D02*X47148Y67203D01*
X48150Y67650D02*Y67244D01*
Y67650D02*X48502Y67853D01*
X48150Y67650D02*X47798Y67853D01*
X48150Y67000D02*Y66594D01*
Y67000D02*X48502Y67203D01*
X48150Y67000D02*X47798Y67203D01*
X48800Y67650D02*Y67244D01*
Y67650D02*X49152Y67853D01*
X48800Y67650D02*X48448Y67853D01*
X48800Y67000D02*Y66594D01*
Y67000D02*X49152Y67203D01*
X48800Y67000D02*X48448Y67203D01*
X57800Y67650D02*Y67244D01*
Y67650D02*X58152Y67853D01*
X57800Y67650D02*X57448Y67853D01*
X57800Y67000D02*Y66594D01*
Y67000D02*X58152Y67203D01*
X57800Y67000D02*X57448Y67203D01*
X57150Y67650D02*Y67244D01*
Y67650D02*X57502Y67853D01*
X57150Y67650D02*X56798Y67853D01*
X57150Y67000D02*Y66594D01*
Y67000D02*X57502Y67203D01*
X57150Y67000D02*X56798Y67203D01*
X56500Y67650D02*Y67244D01*
Y67650D02*X56852Y67853D01*
X56500Y67650D02*X56148Y67853D01*
X56500Y67000D02*Y66594D01*
Y67000D02*X56852Y67203D01*
X56500Y67000D02*X56148Y67203D01*
X55850Y67650D02*Y67244D01*
Y67650D02*X56202Y67853D01*
X55850Y67650D02*X55498Y67853D01*
X55850Y67000D02*Y66594D01*
Y67000D02*X56202Y67203D01*
X55850Y67000D02*X55498Y67203D01*
X55200Y67650D02*Y67244D01*
Y67650D02*X55552Y67853D01*
X55200Y67650D02*X54848Y67853D01*
X55200Y73750D02*Y73344D01*
Y73750D02*X55552Y73953D01*
X55200Y73750D02*X54848Y73953D01*
X49000Y51850D02*Y51444D01*
Y51850D02*X49352Y52053D01*
X49000Y51850D02*X48648Y52053D01*
X53000Y51850D02*Y51444D01*
Y51850D02*X53352Y52053D01*
X53000Y51850D02*X52648Y52053D01*
X53900Y48100D02*Y47694D01*
Y48100D02*X54252Y48303D01*
X53900Y48100D02*X53548Y48303D01*
X50700Y65800D02*Y65394D01*
Y65800D02*X51052Y66003D01*
X50700Y65800D02*X50348Y66003D01*
X50000Y65800D02*Y65394D01*
Y65800D02*X50352Y66003D01*
X50000Y65800D02*X49648Y66003D01*
X49300Y65800D02*Y65394D01*
Y65800D02*X49652Y66003D01*
X49300Y65800D02*X48948Y66003D01*
X50350Y66400D02*Y65994D01*
Y66400D02*X50702Y66603D01*
X50350Y66400D02*X49998Y66603D01*
X45900Y58100D02*Y57694D01*
Y58100D02*X46252Y58303D01*
X45900Y58100D02*X45548Y58303D01*
X46500Y58450D02*Y58044D01*
Y58450D02*X46852Y58653D01*
X46500Y58450D02*X46148Y58653D01*
X46500Y57750D02*Y57344D01*
Y57750D02*X46852Y57953D01*
X46500Y57750D02*X46148Y57953D01*
X46500Y57050D02*Y56644D01*
Y57050D02*X46852Y57253D01*
X46500Y57050D02*X46148Y57253D01*
X45900Y57400D02*Y56994D01*
Y57400D02*X46252Y57603D01*
X45900Y57400D02*X45548Y57603D01*
X45900Y56700D02*Y56294D01*
Y56700D02*X46252Y56903D01*
X45900Y56700D02*X45548Y56903D01*
X46500Y56350D02*Y55944D01*
Y56350D02*X46852Y56553D01*
X46500Y56350D02*X46148Y56553D01*
X46500Y55650D02*Y55244D01*
Y55650D02*X46852Y55853D01*
X46500Y55650D02*X46148Y55853D01*
X46500Y54950D02*Y54544D01*
Y54950D02*X46852Y55153D01*
X46500Y54950D02*X46148Y55153D01*
X45900Y56000D02*Y55594D01*
Y56000D02*X46252Y56203D01*
X45900Y56000D02*X45548Y56203D01*
X45900Y55300D02*Y54894D01*
Y55300D02*X46252Y55503D01*
X45900Y55300D02*X45548Y55503D01*
X50250Y53700D02*Y53294D01*
Y53700D02*X50602Y53903D01*
X50250Y53700D02*X49898Y53903D01*
X50950Y53700D02*Y53294D01*
Y53700D02*X51302Y53903D01*
X50950Y53700D02*X50598Y53903D01*
X51650Y53700D02*Y53294D01*
Y53700D02*X52002Y53903D01*
X51650Y53700D02*X51298Y53903D01*
X52350Y53700D02*Y53294D01*
Y53700D02*X52702Y53903D01*
X52350Y53700D02*X51998Y53903D01*
X53050Y53700D02*Y53294D01*
Y53700D02*X53402Y53903D01*
X53050Y53700D02*X52698Y53903D01*
X53750Y53700D02*Y53294D01*
Y53700D02*X54102Y53903D01*
X53750Y53700D02*X53398Y53903D01*
X57500Y54950D02*Y54544D01*
Y54950D02*X57852Y55153D01*
X57500Y54950D02*X57148Y55153D01*
X58100Y55300D02*Y54894D01*
Y55300D02*X58452Y55503D01*
X58100Y55300D02*X57748Y55503D01*
X58100Y58100D02*Y57694D01*
Y58100D02*X58452Y58303D01*
X58100Y58100D02*X57748Y58303D01*
X57500Y58450D02*Y58044D01*
Y58450D02*X57852Y58653D01*
X57500Y58450D02*X57148Y58653D01*
X57500Y57750D02*Y57344D01*
Y57750D02*X57852Y57953D01*
X57500Y57750D02*X57148Y57953D01*
X58100Y57400D02*Y56994D01*
Y57400D02*X58452Y57603D01*
X58100Y57400D02*X57748Y57603D01*
X57500Y57050D02*Y56644D01*
Y57050D02*X57852Y57253D01*
X57500Y57050D02*X57148Y57253D01*
X58100Y56700D02*Y56294D01*
Y56700D02*X58452Y56903D01*
X58100Y56700D02*X57748Y56903D01*
X58100Y56000D02*Y55594D01*
Y56000D02*X58452Y56203D01*
X58100Y56000D02*X57748Y56203D01*
X57500Y56350D02*Y55944D01*
Y56350D02*X57852Y56553D01*
X57500Y56350D02*X57148Y56553D01*
X57500Y55650D02*Y55244D01*
Y55650D02*X57852Y55853D01*
X57500Y55650D02*X57148Y55853D01*
X53300Y65800D02*Y65394D01*
Y65800D02*X53652Y66003D01*
X53300Y65800D02*X52948Y66003D01*
X54000Y65800D02*Y65394D01*
Y65800D02*X54352Y66003D01*
X54000Y65800D02*X53648Y66003D01*
X54700Y65800D02*Y65394D01*
Y65800D02*X55052Y66003D01*
X54700Y65800D02*X54348Y66003D01*
X54350Y66400D02*Y65994D01*
Y66400D02*X54702Y66603D01*
X54350Y66400D02*X53998Y66603D01*
X50000Y67700D02*Y67294D01*
Y67700D02*X50352Y67903D01*
X50000Y67700D02*X49648Y67903D01*
X50000Y70000D02*Y69594D01*
Y70000D02*X50352Y70203D01*
X50000Y70000D02*X49648Y70203D01*
X45000Y67700D02*Y67294D01*
Y67700D02*X45352Y67903D01*
X45000Y67700D02*X44648Y67903D01*
X45000Y70050D02*Y69644D01*
Y70050D02*X45352Y70253D01*
X45000Y70050D02*X44648Y70253D01*
X54000Y67700D02*Y67294D01*
Y67700D02*X54352Y67903D01*
X54000Y67700D02*X53648Y67903D01*
X54000Y70000D02*Y69594D01*
Y70000D02*X54352Y70203D01*
X54000Y70000D02*X53648Y70203D01*
X59000Y70000D02*Y69594D01*
Y70000D02*X59352Y70203D01*
X59000Y70000D02*X58648Y70203D01*
X59000Y67700D02*Y67294D01*
Y67700D02*X59352Y67903D01*
X59000Y67700D02*X58648Y67903D01*
X51650Y59700D02*Y59294D01*
Y59700D02*X52002Y59903D01*
X51650Y59700D02*X51298Y59903D01*
X52350Y59700D02*Y59294D01*
Y59700D02*X52702Y59903D01*
X52350Y59700D02*X51998Y59903D01*
X52000Y60300D02*Y59894D01*
Y60300D02*X52352Y60503D01*
X52000Y60300D02*X51648Y60503D01*
X52000Y67700D02*Y67294D01*
Y67700D02*X52352Y67903D01*
X52000Y67700D02*X51648Y67903D01*
X51650Y67100D02*Y66694D01*
Y67100D02*X52002Y67303D01*
X51650Y67100D02*X51298Y67303D01*
X52350Y67100D02*Y66694D01*
Y67100D02*X52702Y67303D01*
X52350Y67100D02*X51998Y67303D01*
X54550Y47500D02*Y47094D01*
Y47500D02*X54902Y47703D01*
X54550Y47500D02*X54198Y47703D01*
X54550Y46850D02*Y46444D01*
Y46850D02*X54902Y47053D01*
X54550Y46850D02*X54198Y47053D01*
X54550Y46200D02*Y45794D01*
Y46200D02*X54902Y46403D01*
X54550Y46200D02*X54198Y46403D01*
X54550Y45550D02*Y45144D01*
Y45550D02*X54902Y45753D01*
X54550Y45550D02*X54198Y45753D01*
X54550Y44900D02*Y44494D01*
Y44900D02*X54902Y45103D01*
X54550Y44900D02*X54198Y45103D01*
X54550Y44250D02*Y43844D01*
Y44250D02*X54902Y44453D01*
X54550Y44250D02*X54198Y44453D01*
X57450Y47500D02*Y47094D01*
Y47500D02*X57802Y47703D01*
X57450Y47500D02*X57098Y47703D01*
X57450Y46850D02*Y46444D01*
Y46850D02*X57802Y47053D01*
X57450Y46850D02*X57098Y47053D01*
X57450Y46200D02*Y45794D01*
Y46200D02*X57802Y46403D01*
X57450Y46200D02*X57098Y46403D01*
X57450Y45550D02*Y45144D01*
Y45550D02*X57802Y45753D01*
X57450Y45550D02*X57098Y45753D01*
X57450Y44900D02*Y44494D01*
Y44900D02*X57802Y45103D01*
X57450Y44900D02*X57098Y45103D01*
X57450Y44250D02*Y43844D01*
Y44250D02*X57802Y44453D01*
X57450Y44250D02*X57098Y44453D01*
X45450Y47500D02*Y47094D01*
Y47500D02*X45802Y47703D01*
X45450Y47500D02*X45098Y47703D01*
X45450Y46850D02*Y46444D01*
Y46850D02*X45802Y47053D01*
X45450Y46850D02*X45098Y47053D01*
X45450Y46200D02*Y45794D01*
Y46200D02*X45802Y46403D01*
X45450Y46200D02*X45098Y46403D01*
X45450Y45550D02*Y45144D01*
Y45550D02*X45802Y45753D01*
X45450Y45550D02*X45098Y45753D01*
X45450Y44900D02*Y44494D01*
Y44900D02*X45802Y45103D01*
X45450Y44900D02*X45098Y45103D01*
X45450Y44250D02*Y43844D01*
Y44250D02*X45802Y44453D01*
X45450Y44250D02*X45098Y44453D01*
X42550Y47500D02*Y47094D01*
Y47500D02*X42902Y47703D01*
X42550Y47500D02*X42198Y47703D01*
X42550Y46850D02*Y46444D01*
Y46850D02*X42902Y47053D01*
X42550Y46850D02*X42198Y47053D01*
X42550Y46200D02*Y45794D01*
Y46200D02*X42902Y46403D01*
X42550Y46200D02*X42198Y46403D01*
X42550Y45550D02*Y45144D01*
Y45550D02*X42902Y45753D01*
X42550Y45550D02*X42198Y45753D01*
X42550Y44900D02*Y44494D01*
Y44900D02*X42902Y45103D01*
X42550Y44900D02*X42198Y45103D01*
X42550Y44250D02*Y43844D01*
Y44250D02*X42902Y44453D01*
X42550Y44250D02*X42198Y44453D01*
X36100Y47900D02*Y47494D01*
Y47900D02*X36452Y48103D01*
X36100Y47900D02*X35748Y48103D01*
X36800Y47900D02*Y47494D01*
Y47900D02*X37152Y48103D01*
X36800Y47900D02*X36448Y48103D01*
X37500Y47900D02*Y47494D01*
Y47900D02*X37852Y48103D01*
X37500Y47900D02*X37148Y48103D01*
X38200Y47900D02*Y47494D01*
Y47900D02*X38552Y48103D01*
X38200Y47900D02*X37848Y48103D01*
X39800Y52200D02*Y51794D01*
Y52200D02*X40152Y52403D01*
X39800Y52200D02*X39448Y52403D01*
X39800Y51500D02*Y51094D01*
Y51500D02*X40152Y51703D01*
X39800Y51500D02*X39448Y51703D01*
X39800Y50800D02*Y50394D01*
Y50800D02*X40152Y51003D01*
X39800Y50800D02*X39448Y51003D01*
X39800Y50100D02*Y49694D01*
Y50100D02*X40152Y50303D01*
X39800Y50100D02*X39448Y50303D01*
X39800Y49400D02*Y48994D01*
Y49400D02*X40152Y49603D01*
X39800Y49400D02*X39448Y49603D01*
X39800Y48700D02*Y48294D01*
Y48700D02*X40152Y48903D01*
X39800Y48700D02*X39448Y48903D01*
X40400Y51850D02*Y51444D01*
Y51850D02*X40752Y52053D01*
X40400Y51850D02*X40048Y52053D01*
X34400Y51750D02*Y51344D01*
Y51750D02*X34752Y51953D01*
X34400Y51750D02*X34048Y51953D01*
X34400Y51050D02*Y50644D01*
Y51050D02*X34752Y51253D01*
X34400Y51050D02*X34048Y51253D01*
X34400Y50350D02*Y49944D01*
Y50350D02*X34752Y50553D01*
X34400Y50350D02*X34048Y50553D01*
X34400Y49650D02*Y49244D01*
Y49650D02*X34752Y49853D01*
X34400Y49650D02*X34048Y49853D01*
X34400Y48950D02*Y48544D01*
Y48950D02*X34752Y49153D01*
X34400Y48950D02*X34048Y49153D01*
X34400Y52450D02*Y52044D01*
Y52450D02*X34752Y52653D01*
X34400Y52450D02*X34048Y52653D01*
X32150Y51750D02*Y51344D01*
Y51750D02*X32502Y51953D01*
X32150Y51750D02*X31798Y51953D01*
X32150Y51050D02*Y50644D01*
Y51050D02*X32502Y51253D01*
X32150Y51050D02*X31798Y51253D01*
X32150Y50350D02*Y49944D01*
Y50350D02*X32502Y50553D01*
X32150Y50350D02*X31798Y50553D01*
X32150Y49650D02*Y49244D01*
Y49650D02*X32502Y49853D01*
X32150Y49650D02*X31798Y49853D01*
X32150Y48950D02*Y48544D01*
Y48950D02*X32502Y49153D01*
X32150Y48950D02*X31798Y49153D01*
X32150Y52450D02*Y52044D01*
Y52450D02*X32502Y52653D01*
X32150Y52450D02*X31798Y52653D01*
X34100Y67150D02*Y66744D01*
Y67150D02*X34452Y67353D01*
X34100Y67150D02*X33748Y67353D01*
X34100Y67800D02*Y67394D01*
Y67800D02*X34452Y68003D01*
X34100Y67800D02*X33748Y68003D01*
X34100Y66500D02*Y66094D01*
Y66500D02*X34452Y66703D01*
X34100Y66500D02*X33748Y66703D01*
X37900Y67150D02*Y66744D01*
Y67150D02*X38252Y67353D01*
X37900Y67150D02*X37548Y67353D01*
X37900Y67800D02*Y67394D01*
Y67800D02*X38252Y68003D01*
X37900Y67800D02*X37548Y68003D01*
X37900Y66500D02*Y66094D01*
Y66500D02*X38252Y66703D01*
X37900Y66500D02*X37548Y66703D01*
X47000Y51850D02*Y51444D01*
Y51850D02*X47352Y52053D01*
X47000Y51850D02*X46648Y52053D01*
X47000Y49450D02*Y49044D01*
Y49450D02*X47352Y49653D01*
X47000Y49450D02*X46648Y49653D01*
X56000Y51900D02*Y51494D01*
Y51900D02*X56352Y52103D01*
X56000Y51900D02*X55648Y52103D01*
X55900Y49400D02*Y48994D01*
Y49400D02*X56252Y49603D01*
X55900Y49400D02*X55548Y49603D01*
X57000Y51850D02*Y51444D01*
Y51850D02*X57352Y52053D01*
X57000Y51850D02*X56648Y52053D01*
X55900Y48750D02*Y48344D01*
Y48750D02*X56252Y48953D01*
X55900Y48750D02*X55548Y48953D01*
X50600Y53100D02*Y52694D01*
Y53100D02*X50952Y53303D01*
X50600Y53100D02*X50248Y53303D01*
X51300Y53100D02*Y52694D01*
Y53100D02*X51652Y53303D01*
X51300Y53100D02*X50948Y53303D01*
X52000Y53100D02*Y52694D01*
Y53100D02*X52352Y53303D01*
X52000Y53100D02*X51648Y53303D01*
X52700Y53100D02*Y52694D01*
Y53100D02*X53052Y53303D01*
X52700Y53100D02*X52348Y53303D01*
X53400Y53100D02*Y52694D01*
Y53100D02*X53752Y53303D01*
X53400Y53100D02*X53048Y53303D01*
X55200Y67000D02*Y66594D01*
Y67000D02*X55552Y67203D01*
X55200Y67000D02*X54848Y67203D01*
X53650Y66400D02*Y65994D01*
Y66400D02*X54002Y66603D01*
X53650Y66400D02*X53298Y66603D01*
X59700Y64900D02*Y64494D01*
Y64900D02*X60052Y65103D01*
X59700Y64900D02*X59348Y65103D01*
X60300Y61050D02*Y60644D01*
Y61050D02*X60652Y61253D01*
X60300Y61050D02*X59948Y61253D01*
X59700Y60700D02*Y60294D01*
Y60700D02*X60052Y60903D01*
X59700Y60700D02*X59348Y60903D01*
X59700Y64200D02*Y63794D01*
Y64200D02*X60052Y64403D01*
X59700Y64200D02*X59348Y64403D01*
X60300Y63850D02*Y63444D01*
Y63850D02*X60652Y64053D01*
X60300Y63850D02*X59948Y64053D01*
X59700Y63500D02*Y63094D01*
Y63500D02*X60052Y63703D01*
X59700Y63500D02*X59348Y63703D01*
X59700Y62800D02*Y62394D01*
Y62800D02*X60052Y63003D01*
X59700Y62800D02*X59348Y63003D01*
X59700Y62100D02*Y61694D01*
Y62100D02*X60052Y62303D01*
X59700Y62100D02*X59348Y62303D01*
X60300Y63150D02*Y62744D01*
Y63150D02*X60652Y63353D01*
X60300Y63150D02*X59948Y63353D01*
X60300Y62450D02*Y62044D01*
Y62450D02*X60652Y62653D01*
X60300Y62450D02*X59948Y62653D01*
X60300Y61750D02*Y61344D01*
Y61750D02*X60652Y61953D01*
X60300Y61750D02*X59948Y61953D01*
X59700Y61400D02*Y60994D01*
Y61400D02*X60052Y61603D01*
X59700Y61400D02*X59348Y61603D01*
X60300Y64550D02*Y64144D01*
Y64550D02*X60652Y64753D01*
X60300Y64550D02*X59948Y64753D01*
X49650Y66400D02*Y65994D01*
Y66400D02*X50002Y66603D01*
X49650Y66400D02*X49298Y66603D01*
X61250Y52400D02*Y51994D01*
Y52400D02*X61602Y52603D01*
X61250Y52400D02*X60898Y52603D01*
X60800Y51950D02*Y51544D01*
Y51950D02*X61152Y52153D01*
X60800Y51950D02*X60448Y52153D01*
X60350Y51500D02*Y51094D01*
Y51500D02*X60702Y51703D01*
X60350Y51500D02*X59998Y51703D01*
X59900Y51050D02*Y50644D01*
Y51050D02*X60252Y51253D01*
X59900Y51050D02*X59548Y51253D01*
X43300Y52050D02*Y51644D01*
Y52050D02*X43652Y52253D01*
X43300Y52050D02*X42948Y52253D01*
X43750Y51600D02*Y51194D01*
Y51600D02*X44102Y51803D01*
X43750Y51600D02*X43398Y51803D01*
X43150Y51450D02*Y51044D01*
Y51450D02*X43502Y51653D01*
X43150Y51450D02*X42798Y51653D01*
X40400Y51150D02*Y50744D01*
Y51150D02*X40752Y51353D01*
X40400Y51150D02*X40048Y51353D01*
X40400Y50450D02*Y50044D01*
Y50450D02*X40752Y50653D01*
X40400Y50450D02*X40048Y50653D01*
X40400Y49750D02*Y49344D01*
Y49750D02*X40752Y49953D01*
X40400Y49750D02*X40048Y49953D01*
X40400Y49050D02*Y48644D01*
Y49050D02*X40752Y49253D01*
X40400Y49050D02*X40048Y49253D01*
X35400Y47900D02*Y47494D01*
Y47900D02*X35752Y48103D01*
X35400Y47900D02*X35048Y48103D01*
X59700Y49500D02*Y49094D01*
Y49500D02*X60052Y49703D01*
X59700Y49500D02*X59348Y49703D01*
X59700Y48800D02*Y48394D01*
Y48800D02*X60052Y49003D01*
X59700Y48800D02*X59348Y49003D01*
X42200Y66400D02*Y65994D01*
Y66400D02*X42552Y66603D01*
X42200Y66400D02*X41848Y66603D01*
X29800Y66400D02*Y65994D01*
Y66400D02*X30152Y66603D01*
X29800Y66400D02*X29448Y66603D01*
X30200Y61450D02*Y61044D01*
Y61450D02*X30552Y61653D01*
X30200Y61450D02*X29848Y61653D01*
X41800Y61450D02*Y61044D01*
Y61450D02*X42152Y61653D01*
X41800Y61450D02*X41448Y61653D01*
X42150Y53750D02*Y53344D01*
Y53750D02*X42502Y53953D01*
X42150Y53750D02*X41798Y53953D01*
X41550Y53750D02*Y53344D01*
Y53750D02*X41902Y53953D01*
X41550Y53750D02*X41198Y53953D01*
X40950Y53750D02*Y53344D01*
Y53750D02*X41302Y53953D01*
X40950Y53750D02*X40598Y53953D01*
X41250Y54300D02*Y53894D01*
Y54300D02*X41602Y54503D01*
X41250Y54300D02*X40898Y54503D01*
X41850Y54300D02*Y53894D01*
Y54300D02*X42202Y54503D01*
X41850Y54300D02*X41498Y54503D01*
X49250Y47400D02*Y46994D01*
Y47400D02*X49602Y47603D01*
X49250Y47400D02*X48898Y47603D01*
X51150Y47400D02*Y46994D01*
Y47400D02*X51502Y47603D01*
X51150Y47400D02*X50798Y47603D01*
X26550Y39700D02*Y39294D01*
Y39700D02*X26902Y39903D01*
X26550Y39700D02*X26198Y39903D01*
X26550Y39100D02*Y38694D01*
Y39100D02*X26902Y39303D01*
X26550Y39100D02*X26198Y39303D01*
X26550Y38500D02*Y38094D01*
Y38500D02*X26902Y38703D01*
X26550Y38500D02*X26198Y38703D01*
X26000Y39400D02*Y38994D01*
Y39400D02*X26352Y39603D01*
X26000Y39400D02*X25648Y39603D01*
X26000Y38800D02*Y38394D01*
Y38800D02*X26352Y39003D01*
X26000Y38800D02*X25648Y39003D01*
X25450Y39100D02*Y38694D01*
Y39100D02*X25802Y39303D01*
X25450Y39100D02*X25098Y39303D01*
X29450Y39700D02*Y39294D01*
Y39700D02*X29802Y39903D01*
X29450Y39700D02*X29098Y39903D01*
X29450Y39100D02*Y38694D01*
Y39100D02*X29802Y39303D01*
X29450Y39100D02*X29098Y39303D01*
X29450Y38500D02*Y38094D01*
Y38500D02*X29802Y38703D01*
X29450Y38500D02*X29098Y38703D01*
X30000Y39400D02*Y38994D01*
Y39400D02*X30352Y39603D01*
X30000Y39400D02*X29648Y39603D01*
X30000Y38800D02*Y38394D01*
Y38800D02*X30352Y39003D01*
X30000Y38800D02*X29648Y39003D01*
X30550Y39100D02*Y38694D01*
Y39100D02*X30902Y39303D01*
X30550Y39100D02*X30198Y39303D01*
X14550Y39700D02*Y39294D01*
Y39700D02*X14902Y39903D01*
X14550Y39700D02*X14198Y39903D01*
X14550Y39050D02*Y38644D01*
Y39050D02*X14902Y39253D01*
X14550Y39050D02*X14198Y39253D01*
X14550Y38400D02*Y37994D01*
Y38400D02*X14902Y38603D01*
X14550Y38400D02*X14198Y38603D01*
X14550Y37750D02*Y37344D01*
Y37750D02*X14902Y37953D01*
X14550Y37750D02*X14198Y37953D01*
X14550Y37100D02*Y36694D01*
Y37100D02*X14902Y37303D01*
X14550Y37100D02*X14198Y37303D01*
X14550Y36450D02*Y36044D01*
Y36450D02*X14902Y36653D01*
X14550Y36450D02*X14198Y36653D01*
X17450Y39700D02*Y39294D01*
Y39700D02*X17802Y39903D01*
X17450Y39700D02*X17098Y39903D01*
X17450Y39100D02*Y38694D01*
Y39100D02*X17802Y39303D01*
X17450Y39100D02*X17098Y39303D01*
X17450Y38500D02*Y38094D01*
Y38500D02*X17802Y38703D01*
X17450Y38500D02*X17098Y38703D01*
X18000Y39400D02*Y38994D01*
Y39400D02*X18352Y39603D01*
X18000Y39400D02*X17648Y39603D01*
X18000Y38800D02*Y38394D01*
Y38800D02*X18352Y39003D01*
X18000Y38800D02*X17648Y39003D01*
X18550Y39100D02*Y38694D01*
Y39100D02*X18902Y39303D01*
X18550Y39100D02*X18198Y39303D01*
X54550Y39700D02*Y39294D01*
Y39700D02*X54902Y39903D01*
X54550Y39700D02*X54198Y39903D01*
X54550Y39050D02*Y38644D01*
Y39050D02*X54902Y39253D01*
X54550Y39050D02*X54198Y39253D01*
X54550Y38400D02*Y37994D01*
Y38400D02*X54902Y38603D01*
X54550Y38400D02*X54198Y38603D01*
X54550Y37750D02*Y37344D01*
Y37750D02*X54902Y37953D01*
X54550Y37750D02*X54198Y37953D01*
X54550Y37100D02*Y36694D01*
Y37100D02*X54902Y37303D01*
X54550Y37100D02*X54198Y37303D01*
X54550Y36450D02*Y36044D01*
Y36450D02*X54902Y36653D01*
X54550Y36450D02*X54198Y36653D01*
X57450Y39700D02*Y39294D01*
Y39700D02*X57802Y39903D01*
X57450Y39700D02*X57098Y39903D01*
X57450Y39050D02*Y38644D01*
Y39050D02*X57802Y39253D01*
X57450Y39050D02*X57098Y39253D01*
X57450Y38400D02*Y37994D01*
Y38400D02*X57802Y38603D01*
X57450Y38400D02*X57098Y38603D01*
X57450Y37750D02*Y37344D01*
Y37750D02*X57802Y37953D01*
X57450Y37750D02*X57098Y37953D01*
X57450Y37100D02*Y36694D01*
Y37100D02*X57802Y37303D01*
X57450Y37100D02*X57098Y37303D01*
X57450Y36450D02*Y36044D01*
Y36450D02*X57802Y36653D01*
X57450Y36450D02*X57098Y36653D01*
X42550Y39700D02*Y39294D01*
Y39700D02*X42902Y39903D01*
X42550Y39700D02*X42198Y39903D01*
X42550Y39100D02*Y38694D01*
Y39100D02*X42902Y39303D01*
X42550Y39100D02*X42198Y39303D01*
X42550Y38500D02*Y38094D01*
Y38500D02*X42902Y38703D01*
X42550Y38500D02*X42198Y38703D01*
X42000Y39400D02*Y38994D01*
Y39400D02*X42352Y39603D01*
X42000Y39400D02*X41648Y39603D01*
X42000Y38800D02*Y38394D01*
Y38800D02*X42352Y39003D01*
X42000Y38800D02*X41648Y39003D01*
X41450Y38500D02*Y38094D01*
Y38500D02*X41802Y38703D01*
X41450Y38500D02*X41098Y38703D01*
X45450Y39700D02*Y39294D01*
Y39700D02*X45802Y39903D01*
X45450Y39700D02*X45098Y39903D01*
X45450Y39100D02*Y38694D01*
Y39100D02*X45802Y39303D01*
X45450Y39100D02*X45098Y39303D01*
X45450Y38500D02*Y38094D01*
Y38500D02*X45802Y38703D01*
X45450Y38500D02*X45098Y38703D01*
X46000Y39400D02*Y38994D01*
Y39400D02*X46352Y39603D01*
X46000Y39400D02*X45648Y39603D01*
X46000Y38800D02*Y38394D01*
Y38800D02*X46352Y39003D01*
X46000Y38800D02*X45648Y39003D01*
X46550Y39100D02*Y38694D01*
Y39100D02*X46902Y39303D01*
X46550Y39100D02*X46198Y39303D01*
X14200Y67650D02*Y67244D01*
Y67650D02*X14552Y67853D01*
X14200Y67650D02*X13848Y67853D01*
X14200Y67000D02*Y66594D01*
Y67000D02*X14552Y67203D01*
X14200Y67000D02*X13848Y67203D01*
X14850Y67650D02*Y67244D01*
Y67650D02*X15202Y67853D01*
X14850Y67650D02*X14498Y67853D01*
X14850Y67000D02*Y66594D01*
Y67000D02*X15202Y67203D01*
X14850Y67000D02*X14498Y67203D01*
X15500Y67650D02*Y67244D01*
Y67650D02*X15852Y67853D01*
X15500Y67650D02*X15148Y67853D01*
X15500Y67000D02*Y66594D01*
Y67000D02*X15852Y67203D01*
X15500Y67000D02*X15148Y67203D01*
X16150Y67650D02*Y67244D01*
Y67650D02*X16502Y67853D01*
X16150Y67650D02*X15798Y67853D01*
X16150Y67000D02*Y66594D01*
Y67000D02*X16502Y67203D01*
X16150Y67000D02*X15798Y67203D01*
X16800Y67650D02*Y67244D01*
Y67650D02*X17152Y67853D01*
X16800Y67650D02*X16448Y67853D01*
X16800Y67000D02*Y66594D01*
Y67000D02*X17152Y67203D01*
X16800Y67000D02*X16448Y67203D01*
X25800Y67650D02*Y67244D01*
Y67650D02*X26152Y67853D01*
X25800Y67650D02*X25448Y67853D01*
X25800Y67000D02*Y66594D01*
Y67000D02*X26152Y67203D01*
X25800Y67000D02*X25448Y67203D01*
X25150Y67650D02*Y67244D01*
Y67650D02*X25502Y67853D01*
X25150Y67650D02*X24798Y67853D01*
X25150Y67000D02*Y66594D01*
Y67000D02*X25502Y67203D01*
X25150Y67000D02*X24798Y67203D01*
X24500Y67650D02*Y67244D01*
Y67650D02*X24852Y67853D01*
X24500Y67650D02*X24148Y67853D01*
X24500Y67000D02*Y66594D01*
Y67000D02*X24852Y67203D01*
X24500Y67000D02*X24148Y67203D01*
X23850Y67650D02*Y67244D01*
Y67650D02*X24202Y67853D01*
X23850Y67650D02*X23498Y67853D01*
X23850Y67000D02*Y66594D01*
Y67000D02*X24202Y67203D01*
X23850Y67000D02*X23498Y67203D01*
X23200Y67650D02*Y67244D01*
Y67650D02*X23552Y67853D01*
X23200Y67650D02*X22848Y67853D01*
X18700Y65800D02*Y65394D01*
Y65800D02*X19052Y66003D01*
X18700Y65800D02*X18348Y66003D01*
X18000Y65800D02*Y65394D01*
Y65800D02*X18352Y66003D01*
X18000Y65800D02*X17648Y66003D01*
X17300Y65800D02*Y65394D01*
Y65800D02*X17652Y66003D01*
X17300Y65800D02*X16948Y66003D01*
X18350Y66400D02*Y65994D01*
Y66400D02*X18702Y66603D01*
X18350Y66400D02*X17998Y66603D01*
X11700Y62450D02*Y62044D01*
Y62450D02*X12052Y62653D01*
X11700Y62450D02*X11348Y62653D01*
X11700Y63150D02*Y62744D01*
Y63150D02*X12052Y63353D01*
X11700Y63150D02*X11348Y63353D01*
X11700Y63850D02*Y63444D01*
Y63850D02*X12052Y64053D01*
X11700Y63850D02*X11348Y64053D01*
X12300Y64900D02*Y64494D01*
Y64900D02*X12652Y65103D01*
X12300Y64900D02*X11948Y65103D01*
X11700Y64550D02*Y64144D01*
Y64550D02*X12052Y64753D01*
X11700Y64550D02*X11348Y64753D01*
X12300Y64200D02*Y63794D01*
Y64200D02*X12652Y64403D01*
X12300Y64200D02*X11948Y64403D01*
X12300Y63500D02*Y63094D01*
Y63500D02*X12652Y63703D01*
X12300Y63500D02*X11948Y63703D01*
X12300Y62800D02*Y62394D01*
Y62800D02*X12652Y63003D01*
X12300Y62800D02*X11948Y63003D01*
X12300Y62100D02*Y61694D01*
Y62100D02*X12652Y62303D01*
X12300Y62100D02*X11948Y62303D01*
X12300Y61400D02*Y60994D01*
Y61400D02*X12652Y61603D01*
X12300Y61400D02*X11948Y61603D01*
X12300Y60700D02*Y60294D01*
Y60700D02*X12652Y60903D01*
X12300Y60700D02*X11948Y60903D01*
X11700Y61050D02*Y60644D01*
Y61050D02*X12052Y61253D01*
X11700Y61050D02*X11348Y61253D01*
X13900Y58100D02*Y57694D01*
Y58100D02*X14252Y58303D01*
X13900Y58100D02*X13548Y58303D01*
X14500Y58450D02*Y58044D01*
Y58450D02*X14852Y58653D01*
X14500Y58450D02*X14148Y58653D01*
X14500Y57750D02*Y57344D01*
Y57750D02*X14852Y57953D01*
X14500Y57750D02*X14148Y57953D01*
X14500Y57050D02*Y56644D01*
Y57050D02*X14852Y57253D01*
X14500Y57050D02*X14148Y57253D01*
X13900Y57400D02*Y56994D01*
Y57400D02*X14252Y57603D01*
X13900Y57400D02*X13548Y57603D01*
X13900Y56700D02*Y56294D01*
Y56700D02*X14252Y56903D01*
X13900Y56700D02*X13548Y56903D01*
X14500Y56350D02*Y55944D01*
Y56350D02*X14852Y56553D01*
X14500Y56350D02*X14148Y56553D01*
X14500Y55650D02*Y55244D01*
Y55650D02*X14852Y55853D01*
X14500Y55650D02*X14148Y55853D01*
X14500Y54950D02*Y54544D01*
Y54950D02*X14852Y55153D01*
X14500Y54950D02*X14148Y55153D01*
X13900Y56000D02*Y55594D01*
Y56000D02*X14252Y56203D01*
X13900Y56000D02*X13548Y56203D01*
X13900Y55300D02*Y54894D01*
Y55300D02*X14252Y55503D01*
X13900Y55300D02*X13548Y55503D01*
X18250Y53700D02*Y53294D01*
Y53700D02*X18602Y53903D01*
X18250Y53700D02*X17898Y53903D01*
X18950Y53700D02*Y53294D01*
Y53700D02*X19302Y53903D01*
X18950Y53700D02*X18598Y53903D01*
X19650Y53700D02*Y53294D01*
Y53700D02*X20002Y53903D01*
X19650Y53700D02*X19298Y53903D01*
X20350Y53700D02*Y53294D01*
Y53700D02*X20702Y53903D01*
X20350Y53700D02*X19998Y53903D01*
X21050Y53700D02*Y53294D01*
Y53700D02*X21402Y53903D01*
X21050Y53700D02*X20698Y53903D01*
X21750Y53700D02*Y53294D01*
Y53700D02*X22102Y53903D01*
X21750Y53700D02*X21398Y53903D01*
X25500Y54950D02*Y54544D01*
Y54950D02*X25852Y55153D01*
X25500Y54950D02*X25148Y55153D01*
X26100Y55300D02*Y54894D01*
Y55300D02*X26452Y55503D01*
X26100Y55300D02*X25748Y55503D01*
X26100Y58100D02*Y57694D01*
Y58100D02*X26452Y58303D01*
X26100Y58100D02*X25748Y58303D01*
X25500Y58450D02*Y58044D01*
Y58450D02*X25852Y58653D01*
X25500Y58450D02*X25148Y58653D01*
X25500Y57750D02*Y57344D01*
Y57750D02*X25852Y57953D01*
X25500Y57750D02*X25148Y57953D01*
X26100Y57400D02*Y56994D01*
Y57400D02*X26452Y57603D01*
X26100Y57400D02*X25748Y57603D01*
X25500Y57050D02*Y56644D01*
Y57050D02*X25852Y57253D01*
X25500Y57050D02*X25148Y57253D01*
X26100Y56700D02*Y56294D01*
Y56700D02*X26452Y56903D01*
X26100Y56700D02*X25748Y56903D01*
X26100Y56000D02*Y55594D01*
Y56000D02*X26452Y56203D01*
X26100Y56000D02*X25748Y56203D01*
X25500Y56350D02*Y55944D01*
Y56350D02*X25852Y56553D01*
X25500Y56350D02*X25148Y56553D01*
X25500Y55650D02*Y55244D01*
Y55650D02*X25852Y55853D01*
X25500Y55650D02*X25148Y55853D01*
X21300Y65800D02*Y65394D01*
Y65800D02*X21652Y66003D01*
X21300Y65800D02*X20948Y66003D01*
X22000Y65800D02*Y65394D01*
Y65800D02*X22352Y66003D01*
X22000Y65800D02*X21648Y66003D01*
X22700Y65800D02*Y65394D01*
Y65800D02*X23052Y66003D01*
X22700Y65800D02*X22348Y66003D01*
X22350Y66400D02*Y65994D01*
Y66400D02*X22702Y66603D01*
X22350Y66400D02*X21998Y66603D01*
X18000Y67700D02*Y67294D01*
Y67700D02*X18352Y67903D01*
X18000Y67700D02*X17648Y67903D01*
X13000Y67700D02*Y67294D01*
Y67700D02*X13352Y67903D01*
X13000Y67700D02*X12648Y67903D01*
X22000Y67700D02*Y67294D01*
Y67700D02*X22352Y67903D01*
X22000Y67700D02*X21648Y67903D01*
X27000Y67700D02*Y67294D01*
Y67700D02*X27352Y67903D01*
X27000Y67700D02*X26648Y67903D01*
X19650Y59700D02*Y59294D01*
Y59700D02*X20002Y59903D01*
X19650Y59700D02*X19298Y59903D01*
X20350Y59700D02*Y59294D01*
Y59700D02*X20702Y59903D01*
X20350Y59700D02*X19998Y59903D01*
X20000Y60300D02*Y59894D01*
Y60300D02*X20352Y60503D01*
X20000Y60300D02*X19648Y60503D01*
X20000Y67700D02*Y67294D01*
Y67700D02*X20352Y67903D01*
X20000Y67700D02*X19648Y67903D01*
X19650Y67100D02*Y66694D01*
Y67100D02*X20002Y67303D01*
X19650Y67100D02*X19298Y67303D01*
X20350Y67100D02*Y66694D01*
Y67100D02*X20702Y67303D01*
X20350Y67100D02*X19998Y67303D01*
X18600Y53100D02*Y52694D01*
Y53100D02*X18952Y53303D01*
X18600Y53100D02*X18248Y53303D01*
X19300Y53100D02*Y52694D01*
Y53100D02*X19652Y53303D01*
X19300Y53100D02*X18948Y53303D01*
X20000Y53100D02*Y52694D01*
Y53100D02*X20352Y53303D01*
X20000Y53100D02*X19648Y53303D01*
X20700Y53100D02*Y52694D01*
Y53100D02*X21052Y53303D01*
X20700Y53100D02*X20348Y53303D01*
X21400Y53100D02*Y52694D01*
Y53100D02*X21752Y53303D01*
X21400Y53100D02*X21048Y53303D01*
X23200Y67000D02*Y66594D01*
Y67000D02*X23552Y67203D01*
X23200Y67000D02*X22848Y67203D01*
X21650Y66400D02*Y65994D01*
Y66400D02*X22002Y66603D01*
X21650Y66400D02*X21298Y66603D01*
X17650Y66400D02*Y65994D01*
Y66400D02*X18002Y66603D01*
X17650Y66400D02*X17298Y66603D01*
X11700Y61750D02*Y61344D01*
Y61750D02*X12052Y61953D01*
X11700Y61750D02*X11348Y61953D01*
X18000Y70000D02*Y69594D01*
Y70000D02*X18352Y70203D01*
X18000Y70000D02*X17648Y70203D01*
X22000Y70000D02*Y69594D01*
Y70000D02*X22352Y70203D01*
X22000Y70000D02*X21648Y70203D01*
X13000Y70000D02*Y69594D01*
Y70000D02*X13352Y70203D01*
X13000Y70000D02*X12648Y70203D01*
X27000Y70000D02*Y69594D01*
Y70000D02*X27352Y70203D01*
X27000Y70000D02*X26648Y70203D01*
X15000Y51850D02*Y51444D01*
Y51850D02*X15352Y52053D01*
X15000Y51850D02*X14648Y52053D01*
X15000Y49450D02*Y49044D01*
Y49450D02*X15352Y49653D01*
X15000Y49450D02*X14648Y49653D01*
X24000Y51850D02*Y51444D01*
Y51850D02*X24352Y52053D01*
X24000Y51850D02*X23648Y52053D01*
X25000Y51850D02*Y51444D01*
Y51850D02*X25352Y52053D01*
X25000Y51850D02*X24648Y52053D01*
X23950Y49450D02*Y49044D01*
Y49450D02*X24302Y49653D01*
X23950Y49450D02*X23598Y49653D01*
X23950Y48750D02*Y48344D01*
Y48750D02*X24302Y48953D01*
X23950Y48750D02*X23598Y48953D01*
X26550Y47550D02*Y47144D01*
Y47550D02*X26902Y47753D01*
X26550Y47550D02*X26198Y47753D01*
X26550Y46900D02*Y46494D01*
Y46900D02*X26902Y47103D01*
X26550Y46900D02*X26198Y47103D01*
X26550Y46250D02*Y45844D01*
Y46250D02*X26902Y46453D01*
X26550Y46250D02*X26198Y46453D01*
X26550Y45600D02*Y45194D01*
Y45600D02*X26902Y45803D01*
X26550Y45600D02*X26198Y45803D01*
X26550Y44950D02*Y44544D01*
Y44950D02*X26902Y45153D01*
X26550Y44950D02*X26198Y45153D01*
X26550Y44300D02*Y43894D01*
Y44300D02*X26902Y44503D01*
X26550Y44300D02*X26198Y44503D01*
X29450Y47550D02*Y47144D01*
Y47550D02*X29802Y47753D01*
X29450Y47550D02*X29098Y47753D01*
X29450Y46900D02*Y46494D01*
Y46900D02*X29802Y47103D01*
X29450Y46900D02*X29098Y47103D01*
X29450Y46250D02*Y45844D01*
Y46250D02*X29802Y46453D01*
X29450Y46250D02*X29098Y46453D01*
X29450Y45600D02*Y45194D01*
Y45600D02*X29802Y45803D01*
X29450Y45600D02*X29098Y45803D01*
X29450Y44950D02*Y44544D01*
Y44950D02*X29802Y45153D01*
X29450Y44950D02*X29098Y45153D01*
X29450Y44300D02*Y43894D01*
Y44300D02*X29802Y44503D01*
X29450Y44300D02*X29098Y44503D01*
X17450Y46900D02*Y46494D01*
Y46900D02*X17802Y47103D01*
X17450Y46900D02*X17098Y47103D01*
X17450Y46250D02*Y45844D01*
Y46250D02*X17802Y46453D01*
X17450Y46250D02*X17098Y46453D01*
X17450Y45600D02*Y45194D01*
Y45600D02*X17802Y45803D01*
X17450Y45600D02*X17098Y45803D01*
X17450Y44950D02*Y44544D01*
Y44950D02*X17802Y45153D01*
X17450Y44950D02*X17098Y45153D01*
X17450Y44300D02*Y43894D01*
Y44300D02*X17802Y44503D01*
X17450Y44300D02*X17098Y44503D01*
X14550Y47550D02*Y47144D01*
Y47550D02*X14902Y47753D01*
X14550Y47550D02*X14198Y47753D01*
X14550Y46900D02*Y46494D01*
Y46900D02*X14902Y47103D01*
X14550Y46900D02*X14198Y47103D01*
X14550Y46250D02*Y45844D01*
Y46250D02*X14902Y46453D01*
X14550Y46250D02*X14198Y46453D01*
X14550Y45600D02*Y45194D01*
Y45600D02*X14902Y45803D01*
X14550Y45600D02*X14198Y45803D01*
X14550Y44950D02*Y44544D01*
Y44950D02*X14902Y45153D01*
X14550Y44950D02*X14198Y45153D01*
X14550Y44300D02*Y43894D01*
Y44300D02*X14902Y44503D01*
X14550Y44300D02*X14198Y44503D01*
X29550Y71950D02*Y71544D01*
Y71950D02*X29902Y72153D01*
X29550Y71950D02*X29198Y72153D01*
X23200Y71950D02*Y71544D01*
Y71950D02*X23552Y72153D01*
X23200Y71950D02*X22848Y72153D01*
X12700Y71150D02*Y70744D01*
Y71150D02*X13052Y71353D01*
X12700Y71150D02*X12348Y71353D01*
X18700Y48100D02*Y47694D01*
Y48100D02*X19052Y48303D01*
X18700Y48100D02*X18348Y48303D01*
X21450Y47400D02*Y46994D01*
Y47400D02*X21802Y47603D01*
X21450Y47400D02*X21098Y47603D01*
X27700Y49500D02*Y49094D01*
Y49500D02*X28052Y49703D01*
X27700Y49500D02*X27348Y49703D01*
X27700Y48800D02*Y48394D01*
Y48800D02*X28052Y49003D01*
X27700Y48800D02*X27348Y49003D01*
X30450Y51550D02*Y51144D01*
Y51550D02*X30802Y51753D01*
X30450Y51550D02*X30098Y51753D01*
X30450Y50850D02*Y50444D01*
Y50850D02*X30802Y51053D01*
X30450Y50850D02*X30098Y51053D01*
X29800Y56050D02*Y55644D01*
Y56050D02*X30152Y56253D01*
X29800Y56050D02*X29448Y56253D01*
X30500Y56050D02*Y55644D01*
Y56050D02*X30852Y56253D01*
X30500Y56050D02*X30148Y56253D01*
X28550Y51850D02*Y51444D01*
Y51850D02*X28902Y52053D01*
X28550Y51850D02*X28198Y52053D01*
X28100Y51450D02*Y51044D01*
Y51450D02*X28452Y51653D01*
X28100Y51450D02*X27748Y51653D01*
X28700Y51250D02*Y50844D01*
Y51250D02*X29052Y51453D01*
X28700Y51250D02*X28348Y51453D01*
X12050Y50550D02*Y50144D01*
Y50550D02*X12402Y50753D01*
X12050Y50550D02*X11698Y50753D01*
X12050Y49900D02*Y49494D01*
Y49900D02*X12402Y50103D01*
X12050Y49900D02*X11698Y50103D01*
X12050Y51200D02*Y50794D01*
Y51200D02*X12402Y51403D01*
X12050Y51200D02*X11698Y51403D01*
X17000Y51850D02*Y51444D01*
Y51850D02*X17352Y52053D01*
X17000Y51850D02*X16648Y52053D01*
X23300Y47400D02*Y46994D01*
Y47400D02*X23652Y47603D01*
X23300Y47400D02*X22948Y47603D01*
X21000Y51850D02*Y51444D01*
Y51850D02*X21352Y52053D01*
X21000Y51850D02*X20648Y52053D01*
X37850Y45400D02*Y44994D01*
Y45400D02*X38202Y45603D01*
X37850Y45400D02*X37498Y45603D01*
X37850Y44800D02*Y44394D01*
Y44800D02*X38202Y45003D01*
X37850Y44800D02*X37498Y45003D01*
X38400Y45100D02*Y44694D01*
Y45100D02*X38752Y45303D01*
X38400Y45100D02*X38048Y45303D01*
X35750Y47450D02*Y47044D01*
Y47450D02*X36102Y47653D01*
X35750Y47450D02*X35398Y47653D01*
X36450Y47450D02*Y47044D01*
Y47450D02*X36802Y47653D01*
X36450Y47450D02*X36098Y47653D01*
X37150Y47450D02*Y47044D01*
Y47450D02*X37502Y47653D01*
X37150Y47450D02*X36798Y47653D01*
X37850Y47450D02*Y47044D01*
Y47450D02*X38202Y47653D01*
X37850Y47450D02*X37498Y47653D01*
X33600Y43500D02*Y43094D01*
Y43500D02*X33952Y43703D01*
X33600Y43500D02*X33248Y43703D01*
X33600Y44200D02*Y43794D01*
Y44200D02*X33952Y44403D01*
X33600Y44200D02*X33248Y44403D01*
X33600Y44900D02*Y44494D01*
Y44900D02*X33952Y45103D01*
X33600Y44900D02*X33248Y45103D01*
X33000Y44550D02*Y44144D01*
Y44550D02*X33352Y44753D01*
X33000Y44550D02*X32648Y44753D01*
X33000Y45250D02*Y44844D01*
Y45250D02*X33352Y45453D01*
X33000Y45250D02*X32648Y45453D01*
X33000Y43850D02*Y43444D01*
Y43850D02*X33352Y44053D01*
X33000Y43850D02*X32648Y44053D01*
X23300Y42000D02*Y41594D01*
Y42000D02*X23652Y42203D01*
X23300Y42000D02*X22948Y42203D01*
X33850Y42000D02*Y41594D01*
Y42000D02*X34202Y42203D01*
X33850Y42000D02*X33498Y42203D01*
X35150Y42000D02*Y41594D01*
Y42000D02*X35502Y42203D01*
X35150Y42000D02*X34798Y42203D01*
X53900Y42000D02*Y41594D01*
Y42000D02*X54252Y42203D01*
X53900Y42000D02*X53548Y42203D01*
X38100Y42000D02*Y41594D01*
Y42000D02*X38452Y42203D01*
X38100Y42000D02*X37748Y42203D01*
X14950Y21100D02*Y20694D01*
Y21100D02*X15302Y21303D01*
X14950Y21100D02*X14598Y21303D01*
X10750Y24950D02*Y24544D01*
Y24950D02*X11102Y25153D01*
X10750Y24950D02*X10398Y25153D01*
X21150Y21100D02*Y20694D01*
Y21100D02*X21502Y21303D01*
X21150Y21100D02*X20798Y21303D01*
X21100Y19650D02*Y19244D01*
Y19650D02*X21452Y19853D01*
X21100Y19650D02*X20748Y19853D01*
X14600Y32750D02*Y32344D01*
Y32750D02*X14952Y32953D01*
X14600Y32750D02*X14248Y32953D01*
X20550Y32750D02*Y32344D01*
Y32750D02*X20902Y32953D01*
X20550Y32750D02*X20198Y32953D01*
X22400Y34150D02*Y33744D01*
Y34150D02*X22752Y34353D01*
X22400Y34150D02*X22048Y34353D01*
X22500Y30000D02*Y29594D01*
Y30000D02*X22852Y30203D01*
X22500Y30000D02*X22148Y30203D01*
X24750Y34450D02*Y34044D01*
Y34450D02*X25102Y34653D01*
X24750Y34450D02*X24398Y34653D01*
X26050Y35300D02*Y34894D01*
Y35300D02*X26402Y35503D01*
X26050Y35300D02*X25698Y35503D01*
X28950Y27300D02*Y26894D01*
Y27300D02*X29302Y27503D01*
X28950Y27300D02*X28598Y27503D01*
X13350Y34250D02*Y33844D01*
Y34250D02*X13702Y34453D01*
X13350Y34250D02*X12998Y34453D01*
X19150Y35300D02*Y34894D01*
Y35300D02*X19502Y35503D01*
X19150Y35300D02*X18798Y35503D01*
X10750Y22350D02*Y21944D01*
Y22350D02*X11102Y22553D01*
X10750Y22350D02*X10398Y22553D01*
X22900Y21400D02*Y20994D01*
Y21400D02*X23252Y21603D01*
X22900Y21400D02*X22548Y21603D01*
X22200Y21400D02*Y20994D01*
Y21400D02*X22552Y21603D01*
X22200Y21400D02*X21848Y21603D01*
X19000Y15150D02*Y14744D01*
Y15150D02*X19352Y15353D01*
X19000Y15150D02*X18648Y15353D01*
X37000Y10850D02*Y10444D01*
Y10850D02*X37352Y11053D01*
X37000Y10850D02*X36648Y11053D01*
X39550Y11300D02*Y10894D01*
Y11300D02*X39902Y11503D01*
X39550Y11300D02*X39198Y11503D01*
X60750Y19450D02*Y19044D01*
Y19450D02*X61102Y19653D01*
X60750Y19450D02*X60398Y19653D01*
X61150Y21750D02*Y21344D01*
Y21750D02*X61502Y21953D01*
X61150Y21750D02*X60798Y21953D01*
X34400Y10850D02*Y10444D01*
Y10850D02*X34752Y11053D01*
X34400Y10850D02*X34048Y11053D01*
X42750Y27350D02*Y26944D01*
Y27350D02*X43102Y27553D01*
X42750Y27350D02*X42398Y27553D01*
X42750Y28050D02*Y27644D01*
Y28050D02*X43102Y28253D01*
X42750Y28050D02*X42398Y28253D01*
X51200Y32800D02*Y32394D01*
Y32800D02*X51552Y33003D01*
X51200Y32800D02*X50848Y33003D01*
X49200Y32800D02*Y32394D01*
Y32800D02*X49552Y33003D01*
X49200Y32800D02*X48848Y33003D01*
X52000Y34200D02*Y33794D01*
Y34200D02*X52352Y34403D01*
X52000Y34200D02*X51648Y34403D01*
X49300Y23200D02*Y22794D01*
Y23200D02*X49652Y23403D01*
X49300Y23200D02*X48948Y23403D01*
X50000Y23200D02*Y22794D01*
Y23200D02*X50352Y23403D01*
X50000Y23200D02*X49648Y23403D01*
X42750Y26050D02*Y25644D01*
Y26050D02*X43102Y26253D01*
X42750Y26050D02*X42398Y26253D01*
X42750Y25350D02*Y24944D01*
Y25350D02*X43102Y25553D01*
X42750Y25350D02*X42398Y25553D01*
X42750Y24650D02*Y24244D01*
Y24650D02*X43102Y24853D01*
X42750Y24650D02*X42398Y24853D01*
X42750Y23950D02*Y23544D01*
Y23950D02*X43102Y24153D01*
X42750Y23950D02*X42398Y24153D01*
X44800Y24100D02*Y23694D01*
Y24100D02*X45152Y24303D01*
X44800Y24100D02*X44448Y24303D01*
X44800Y23400D02*Y22994D01*
Y23400D02*X45152Y23603D01*
X44800Y23400D02*X44448Y23603D01*
X52300Y35100D02*Y34694D01*
Y35100D02*X52652Y35303D01*
X52300Y35100D02*X51948Y35303D01*
X55200Y33500D02*Y33094D01*
Y33500D02*X55552Y33703D01*
X55200Y33500D02*X54848Y33703D01*
X59950Y33350D02*Y32944D01*
Y33350D02*X60302Y33553D01*
X59950Y33350D02*X59598Y33553D01*
X59950Y34750D02*Y34344D01*
Y34750D02*X60302Y34953D01*
X59950Y34750D02*X59598Y34953D01*
X56450Y33350D02*Y32944D01*
Y33350D02*X56802Y33553D01*
X56450Y33350D02*X56098Y33553D01*
X54300Y33500D02*Y33094D01*
Y33500D02*X54652Y33703D01*
X54300Y33500D02*X53948Y33703D01*
X29300Y15200D02*Y14794D01*
Y15200D02*X29652Y15403D01*
X29300Y15200D02*X28948Y15403D01*
X25200Y15900D02*Y15494D01*
Y15900D02*X25552Y16103D01*
X25200Y15900D02*X24848Y16103D01*
X30300Y15200D02*Y14794D01*
Y15200D02*X30652Y15403D01*
X30300Y15200D02*X29948Y15403D01*
X38800Y10850D02*Y10444D01*
Y10850D02*X39152Y11053D01*
X38800Y10850D02*X38448Y11053D01*
X37900Y10850D02*Y10444D01*
Y10850D02*X38252Y11053D01*
X37900Y10850D02*X37548Y11053D01*
X32500Y17800D02*Y17394D01*
Y17800D02*X32852Y18003D01*
X32500Y17800D02*X32148Y18003D01*
X34200Y13000D02*Y12594D01*
Y13000D02*X34552Y13203D01*
X34200Y13000D02*X33848Y13203D01*
X34550Y18900D02*Y18494D01*
Y18900D02*X34902Y19103D01*
X34550Y18900D02*X34198Y19103D01*
X40350Y18700D02*Y18294D01*
Y18700D02*X40702Y18903D01*
X40350Y18700D02*X39998Y18903D01*
X22500Y16000D02*Y15594D01*
Y16000D02*X22852Y16203D01*
X22500Y16000D02*X22148Y16203D01*
X59850Y21450D02*Y21044D01*
Y21450D02*X60202Y21653D01*
X59850Y21450D02*X59498Y21653D01*
X59850Y22100D02*Y21694D01*
Y22100D02*X60202Y22303D01*
X59850Y22100D02*X59498Y22303D01*
X48700Y15600D02*Y15194D01*
Y15600D02*X49052Y15803D01*
X48700Y15600D02*X48348Y15803D01*
X47500Y17550D02*Y17144D01*
Y17550D02*X47852Y17753D01*
X47500Y17550D02*X47148Y17753D01*
X44700Y12900D02*Y12494D01*
Y12900D02*X45052Y13103D01*
X44700Y12900D02*X44348Y13103D01*
X51300Y11800D02*Y11394D01*
Y11800D02*X51652Y12003D01*
X51300Y11800D02*X50948Y12003D01*
X51000Y14650D02*Y14244D01*
Y14650D02*X51352Y14853D01*
X51000Y14650D02*X50648Y14853D01*
X49800Y18750D02*Y18344D01*
Y18750D02*X50152Y18953D01*
X49800Y18750D02*X49448Y18953D01*
X50500Y18750D02*Y18344D01*
Y18750D02*X50852Y18953D01*
X50500Y18750D02*X50148Y18953D01*
X53700Y13350D02*Y12944D01*
Y13350D02*X54052Y13553D01*
X53700Y13350D02*X53348Y13553D01*
X54400Y13350D02*Y12944D01*
Y13350D02*X54752Y13553D01*
X54400Y13350D02*X54048Y13553D01*
X53700Y12050D02*Y11644D01*
Y12050D02*X54052Y12253D01*
X53700Y12050D02*X53348Y12253D01*
X54400Y12050D02*Y11644D01*
Y12050D02*X54752Y12253D01*
X54400Y12050D02*X54048Y12253D01*
X55400Y16450D02*Y16044D01*
Y16450D02*X55752Y16653D01*
X55400Y16450D02*X55048Y16653D01*
X55400Y15550D02*Y15144D01*
Y15550D02*X55752Y15753D01*
X55400Y15550D02*X55048Y15753D01*
X57850Y17900D02*Y17494D01*
Y17900D02*X58202Y18103D01*
X57850Y17900D02*X57498Y18103D01*
X59850Y16800D02*Y16394D01*
Y16800D02*X60202Y17003D01*
X59850Y16800D02*X59498Y17003D01*
X57850Y17200D02*Y16794D01*
Y17200D02*X58202Y17403D01*
X57850Y17200D02*X57498Y17403D01*
X56750Y16900D02*Y16494D01*
Y16900D02*X57102Y17103D01*
X56750Y16900D02*X56398Y17103D01*
X59850Y19750D02*Y19344D01*
Y19750D02*X60202Y19953D01*
X59850Y19750D02*X59498Y19953D01*
X59850Y19100D02*Y18694D01*
Y19100D02*X60202Y19303D01*
X59850Y19100D02*X59498Y19303D01*
X53050Y15200D02*Y14794D01*
Y15200D02*X53402Y15403D01*
X53050Y15200D02*X52698Y15403D01*
X57800Y22850D02*Y22444D01*
Y22850D02*X58152Y23053D01*
X57800Y22850D02*X57448Y23053D01*
X61150Y22950D02*Y22544D01*
Y22950D02*X61502Y23153D01*
X61150Y22950D02*X60798Y23153D01*
X43900Y15700D02*Y15294D01*
Y15700D02*X44252Y15903D01*
X43900Y15700D02*X43548Y15903D01*
X42600Y15700D02*Y15294D01*
Y15700D02*X42952Y15903D01*
X42600Y15700D02*X42248Y15903D01*
X46700Y17950D02*Y17544D01*
Y17950D02*X47052Y18153D01*
X46700Y17950D02*X46348Y18153D01*
X57200Y23500D02*Y23094D01*
Y23500D02*X57552Y23703D01*
X57200Y23500D02*X56848Y23703D01*
X58400Y20600D02*Y20194D01*
Y20600D02*X58752Y20803D01*
X58400Y20600D02*X58048Y20803D01*
X34200Y14500D02*Y14094D01*
Y14500D02*X34552Y14703D01*
X34200Y14500D02*X33848Y14703D01*
X50750Y20700D02*Y20294D01*
Y20700D02*X51102Y20903D01*
X50750Y20700D02*X50398Y20903D01*
X51650Y20700D02*Y20294D01*
Y20700D02*X52002Y20903D01*
X51650Y20700D02*X51298Y20903D01*
X37550Y22000D02*Y21594D01*
Y22000D02*X37902Y22203D01*
X37550Y22000D02*X37198Y22203D01*
X36850Y22000D02*Y21594D01*
Y22000D02*X37202Y22203D01*
X36850Y22000D02*X36498Y22203D01*
X32000Y23200D02*Y22794D01*
Y23200D02*X32352Y23403D01*
X32000Y23200D02*X31648Y23403D01*
X36750Y24950D02*Y24544D01*
Y24950D02*X37102Y25153D01*
X36750Y24950D02*X36398Y25153D01*
X36750Y24250D02*Y23844D01*
Y24250D02*X37102Y24453D01*
X36750Y24250D02*X36398Y24453D01*
X37100Y32950D02*Y32544D01*
Y32950D02*X37452Y33153D01*
X37100Y32950D02*X36748Y33153D01*
X36400Y32950D02*Y32544D01*
Y32950D02*X36752Y33153D01*
X36400Y32950D02*X36048Y33153D01*
X36250Y34850D02*Y34444D01*
Y34850D02*X36602Y35053D01*
X36250Y34850D02*X35898Y35053D01*
X37150Y34850D02*Y34444D01*
Y34850D02*X37502Y35053D01*
X37150Y34850D02*X36798Y35053D01*
X37400Y31550D02*Y31144D01*
Y31550D02*X37752Y31753D01*
X37400Y31550D02*X37048Y31753D01*
X37400Y30600D02*Y30194D01*
Y30600D02*X37752Y30803D01*
X37400Y30600D02*X37048Y30803D01*
X37400Y29650D02*Y29244D01*
Y29650D02*X37752Y29853D01*
X37400Y29650D02*X37048Y29853D01*
X36700Y29650D02*Y29244D01*
Y29650D02*X37052Y29853D01*
X36700Y29650D02*X36348Y29853D01*
X37050Y28850D02*Y28444D01*
Y28850D02*X37402Y29053D01*
X37050Y28850D02*X36698Y29053D01*
X37400Y26350D02*Y25944D01*
Y26350D02*X37752Y26553D01*
X37400Y26350D02*X37048Y26553D01*
X38400Y25450D02*Y25044D01*
Y25450D02*X38752Y25653D01*
X38400Y25450D02*X38048Y25653D01*
X31050Y32950D02*Y32544D01*
Y32950D02*X31402Y33153D01*
X31050Y32950D02*X30698Y33153D01*
X30350Y32950D02*Y32544D01*
Y32950D02*X30702Y33153D01*
X30350Y32950D02*X29998Y33153D01*
X31050Y33900D02*Y33494D01*
Y33900D02*X31402Y34103D01*
X31050Y33900D02*X30698Y34103D01*
X31050Y34850D02*Y34444D01*
Y34850D02*X31402Y35053D01*
X31050Y34850D02*X30698Y35053D01*
X31050Y29650D02*Y29244D01*
Y29650D02*X31402Y29853D01*
X31050Y29650D02*X30698Y29853D01*
X30350Y29650D02*Y29244D01*
Y29650D02*X30702Y29853D01*
X30350Y29650D02*X29998Y29853D01*
X31050Y30600D02*Y30194D01*
Y30600D02*X31402Y30803D01*
X31050Y30600D02*X30698Y30803D01*
X31050Y31550D02*Y31144D01*
Y31550D02*X31402Y31753D01*
X31050Y31550D02*X30698Y31753D01*
X11750Y35150D02*Y34744D01*
Y35150D02*X12102Y35353D01*
X11750Y35150D02*X11398Y35353D01*
X14200Y31050D02*Y30644D01*
Y31050D02*X14552Y31253D01*
X14200Y31050D02*X13848Y31253D01*
X13550Y30500D02*Y30094D01*
Y30500D02*X13902Y30703D01*
X13550Y30500D02*X13198Y30703D01*
X13250Y27700D02*Y27294D01*
Y27700D02*X13602Y27903D01*
X13250Y27700D02*X12898Y27903D01*
X13250Y26500D02*Y26094D01*
Y26500D02*X13602Y26703D01*
X13250Y26500D02*X12898Y26703D01*
X16500Y23500D02*Y23094D01*
Y23500D02*X16852Y23703D01*
X16500Y23500D02*X16148Y23703D01*
X20150Y25600D02*Y25194D01*
Y25600D02*X20502Y25803D01*
X20150Y25600D02*X19798Y25803D01*
X21100Y25600D02*Y25194D01*
Y25600D02*X21452Y25803D01*
X21100Y25600D02*X20748Y25803D01*
X20950Y27950D02*Y27544D01*
Y27950D02*X21302Y28153D01*
X20950Y27950D02*X20598Y28153D01*
X20950Y28850D02*Y28444D01*
Y28850D02*X21302Y29053D01*
X20950Y28850D02*X20598Y29053D01*
X20950Y27050D02*Y26644D01*
Y27050D02*X21302Y27253D01*
X20950Y27050D02*X20598Y27253D01*
X24850Y33100D02*Y32694D01*
Y33100D02*X25202Y33303D01*
X24850Y33100D02*X24498Y33303D01*
X21850Y30600D02*Y30194D01*
Y30600D02*X22202Y30803D01*
X21850Y30600D02*X21498Y30803D01*
X24850Y32100D02*Y31694D01*
Y32100D02*X25202Y32303D01*
X24850Y32100D02*X24498Y32303D01*
X19650Y32550D02*Y32144D01*
Y32550D02*X20002Y32753D01*
X19650Y32550D02*X19298Y32753D01*
X22200Y26450D02*Y26044D01*
Y26450D02*X22552Y26653D01*
X22200Y26450D02*X21848Y26653D01*
X19550Y27050D02*Y26644D01*
Y27050D02*X19902Y27253D01*
X19550Y27050D02*X19198Y27253D01*
X18300Y35200D02*Y34794D01*
Y35200D02*X18652Y35403D01*
X18300Y35200D02*X17948Y35403D01*
X17450Y35300D02*Y34894D01*
Y35300D02*X17802Y35503D01*
X17450Y35300D02*X17098Y35503D01*
X15050Y29200D02*Y28794D01*
Y29200D02*X15402Y29403D01*
X15050Y29200D02*X14698Y29403D01*
X12600Y32500D02*Y32094D01*
Y32500D02*X12952Y32703D01*
X12600Y32500D02*X12248Y32703D01*
X11850Y32950D02*Y32544D01*
Y32950D02*X12202Y33153D01*
X11850Y32950D02*X11498Y33153D01*
X17350Y32150D02*Y31744D01*
Y32150D02*X17702Y32353D01*
X17350Y32150D02*X16998Y32353D01*
X17350Y30800D02*Y30394D01*
Y30800D02*X17702Y31003D01*
X17350Y30800D02*X16998Y31003D01*
X16750Y31450D02*Y31044D01*
Y31450D02*X17102Y31653D01*
X16750Y31450D02*X16398Y31653D01*
X16100Y28700D02*Y28294D01*
Y28700D02*X16452Y28903D01*
X16100Y28700D02*X15748Y28903D01*
X41250Y21150D02*Y20744D01*
Y21150D02*X41602Y21353D01*
X41250Y21150D02*X40898Y21353D01*
X26900Y30700D02*Y30294D01*
Y30700D02*X27252Y30903D01*
X26900Y30700D02*X26548Y30903D01*
X20450Y20550D02*Y20144D01*
Y20550D02*X20802Y20753D01*
X20450Y20550D02*X20098Y20753D01*
X20500Y18800D02*Y18394D01*
Y18800D02*X20852Y19003D01*
X20500Y18800D02*X20148Y19003D01*
X19450Y19700D02*Y19294D01*
Y19700D02*X19802Y19903D01*
X19450Y19700D02*X19098Y19903D01*
X37300Y21050D02*Y20644D01*
Y21050D02*X37652Y21253D01*
X37300Y21050D02*X36948Y21253D01*
X39800Y21800D02*Y21394D01*
Y21800D02*X40152Y22003D01*
X39800Y21800D02*X39448Y22003D01*
X22400Y47400D02*Y46994D01*
Y47400D02*X22752Y47603D01*
X22400Y47400D02*X22048Y47603D01*
X14100Y49450D02*Y49044D01*
Y49450D02*X14452Y49653D01*
X14100Y49450D02*X13748Y49653D01*
X25900Y51850D02*Y51444D01*
Y51850D02*X26252Y52053D01*
X25900Y51850D02*X25548Y52053D01*
X20000Y51850D02*Y51444D01*
Y51850D02*X20352Y52053D01*
X20000Y51850D02*X19648Y52053D01*
X20550Y47400D02*Y46994D01*
Y47400D02*X20902Y47603D01*
X20550Y47400D02*X20198Y47603D01*
X17750Y48100D02*Y47694D01*
Y48100D02*X18102Y48303D01*
X17750Y48100D02*X17398Y48303D01*
X30200Y62350D02*Y61944D01*
Y62350D02*X30552Y62553D01*
X30200Y62350D02*X29848Y62553D01*
X41800Y62350D02*Y61944D01*
Y62350D02*X42152Y62553D01*
X41800Y62350D02*X41448Y62553D01*
X41800Y57000D02*Y56594D01*
Y57000D02*X42152Y57203D01*
X41800Y57000D02*X41448Y57203D01*
X30200Y57000D02*Y56594D01*
Y57000D02*X30552Y57203D01*
X30200Y57000D02*X29848Y57203D01*
X29800Y70050D02*Y69644D01*
Y70050D02*X30152Y70253D01*
X29800Y70050D02*X29448Y70253D01*
X42200Y70050D02*Y69644D01*
Y70050D02*X42552Y70253D01*
X42200Y70050D02*X41848Y70253D01*
X10750Y25950D02*Y25544D01*
Y25950D02*X11102Y26153D01*
X10750Y25950D02*X10398Y26153D01*
X29550Y79300D02*Y78894D01*
Y79300D02*X29902Y79503D01*
X29550Y79300D02*X29198Y79503D01*
X11000Y30450D02*Y30044D01*
Y30450D02*X11352Y30653D01*
X11000Y30450D02*X10648Y30653D01*
X11000Y31350D02*Y30944D01*
Y31350D02*X11352Y31553D01*
X11000Y31350D02*X10648Y31553D01*
X28850Y77850D02*Y77444D01*
Y77850D02*X29202Y78053D01*
X28850Y77850D02*X28498Y78053D01*
X46100Y49450D02*Y49044D01*
Y49450D02*X46452Y49653D01*
X46100Y49450D02*X45748Y49653D01*
X52000Y51850D02*Y51444D01*
Y51850D02*X52352Y52053D01*
X52000Y51850D02*X51648Y52053D01*
X53000Y48100D02*Y47694D01*
Y48100D02*X53352Y48303D01*
X53000Y48100D02*X52648Y48303D01*
X58000Y51850D02*Y51444D01*
Y51850D02*X58352Y52053D01*
X58000Y51850D02*X57648Y52053D01*
X49000Y19050D02*Y18644D01*
Y19050D02*X49352Y19253D01*
X49000Y19050D02*X48648Y19253D01*
X16300Y41900D02*Y41494D01*
Y41900D02*X16652Y42103D01*
X16300Y41900D02*X15948Y42103D01*
X20550Y41900D02*Y41494D01*
Y41900D02*X20902Y42103D01*
X20550Y41900D02*X20198Y42103D01*
X22500Y41650D02*Y41244D01*
Y41650D02*X22852Y41853D01*
X22500Y41650D02*X22148Y41853D01*
X12100Y42100D02*Y41694D01*
Y42100D02*X12452Y42303D01*
X12100Y42100D02*X11748Y42303D01*
X12500Y41300D02*Y40894D01*
Y41300D02*X12852Y41503D01*
X12500Y41300D02*X12148Y41503D01*
X14550Y42500D02*Y42094D01*
Y42500D02*X14902Y42703D01*
X14550Y42500D02*X14198Y42703D01*
X18550Y39700D02*Y39294D01*
Y39700D02*X18902Y39903D01*
X18550Y39700D02*X18198Y39903D01*
X18550Y38500D02*Y38094D01*
Y38500D02*X18902Y38703D01*
X18550Y38500D02*X18198Y38703D01*
X25450Y39700D02*Y39294D01*
Y39700D02*X25802Y39903D01*
X25450Y39700D02*X25098Y39903D01*
X25450Y38500D02*Y38094D01*
Y38500D02*X25802Y38703D01*
X25450Y38500D02*X25098Y38703D01*
X30550Y39700D02*Y39294D01*
Y39700D02*X30902Y39903D01*
X30550Y39700D02*X30198Y39903D01*
X30550Y38500D02*Y38094D01*
Y38500D02*X30902Y38703D01*
X30550Y38500D02*X30198Y38703D01*
X41450Y39100D02*Y38694D01*
Y39100D02*X41802Y39303D01*
X41450Y39100D02*X41098Y39303D01*
X41450Y39700D02*Y39294D01*
Y39700D02*X41802Y39903D01*
X41450Y39700D02*X41098Y39903D01*
X46550Y39700D02*Y39294D01*
Y39700D02*X46902Y39903D01*
X46550Y39700D02*X46198Y39903D01*
X46550Y38500D02*Y38094D01*
Y38500D02*X46902Y38703D01*
X46550Y38500D02*X46198Y38703D01*
X27050Y35300D02*Y34894D01*
Y35300D02*X27402Y35503D01*
X27050Y35300D02*X26698Y35503D01*
X27000Y31600D02*Y31194D01*
Y31600D02*X27352Y31803D01*
X27000Y31600D02*X26648Y31803D01*
X17450Y36650D02*Y36244D01*
Y36650D02*X17802Y36853D01*
X17450Y36650D02*X17098Y36853D01*
X33350Y34900D02*Y34494D01*
Y34900D02*X33702Y35103D01*
X33350Y34900D02*X32998Y35103D01*
X39550Y31600D02*Y31194D01*
Y31600D02*X39902Y31803D01*
X39550Y31600D02*X39198Y31803D01*
X39600Y25100D02*Y24694D01*
Y25100D02*X39952Y25303D01*
X39600Y25100D02*X39248Y25303D01*
X39500Y29800D02*Y29394D01*
Y29800D02*X39852Y30003D01*
X39500Y29800D02*X39148Y30003D01*
X39500Y33400D02*Y32994D01*
Y33400D02*X39852Y33603D01*
X39500Y33400D02*X39148Y33603D01*
X26550Y36700D02*Y36294D01*
Y36700D02*X26902Y36903D01*
X26550Y36700D02*X26198Y36903D01*
X29450Y36700D02*Y36294D01*
Y36700D02*X29802Y36903D01*
X29450Y36700D02*X29098Y36903D01*
X39500Y32500D02*Y32094D01*
Y32500D02*X39852Y32703D01*
X39500Y32500D02*X39148Y32703D01*
X39500Y26000D02*Y25594D01*
Y26000D02*X39852Y26203D01*
X39500Y26000D02*X39148Y26203D01*
X39500Y23300D02*Y22894D01*
Y23300D02*X39852Y23503D01*
X39500Y23300D02*X39148Y23503D01*
X39500Y24200D02*Y23794D01*
Y24200D02*X39852Y24403D01*
X39500Y24200D02*X39148Y24403D01*
X40150Y35500D02*Y35094D01*
Y35500D02*X40502Y35703D01*
X40150Y35500D02*X39798Y35703D01*
X41250Y28950D02*Y28544D01*
Y28950D02*X41602Y29153D01*
X41250Y28950D02*X40898Y29153D01*
X19450Y36800D02*Y36394D01*
Y36800D02*X19802Y37003D01*
X19450Y36800D02*X19098Y37003D01*
X25650Y36950D02*Y36544D01*
Y36950D02*X26002Y37153D01*
X25650Y36950D02*X25298Y37153D01*
X30350Y36700D02*Y36294D01*
Y36700D02*X30702Y36903D01*
X30350Y36700D02*X29998Y36903D01*
X29600Y35300D02*Y34894D01*
Y35300D02*X29952Y35503D01*
X29600Y35300D02*X29248Y35503D01*
X20150Y37350D02*Y36944D01*
Y37350D02*X20502Y37553D01*
X20150Y37350D02*X19798Y37553D01*
X24750Y37300D02*Y36894D01*
Y37300D02*X25102Y37503D01*
X24750Y37300D02*X24398Y37503D01*
X31150Y37100D02*Y36694D01*
Y37100D02*X31502Y37303D01*
X31150Y37100D02*X30798Y37303D01*
X23850Y34450D02*Y34044D01*
Y34450D02*X24202Y34653D01*
X23850Y34450D02*X23498Y34653D01*
X35900Y29100D02*Y28694D01*
Y29100D02*X36252Y29303D01*
X35900Y29100D02*X35548Y29303D01*
X47650Y47400D02*Y46994D01*
Y47400D02*X48002Y47603D01*
X47650Y47400D02*X47298Y47603D01*
X50200Y47400D02*Y46994D01*
Y47400D02*X50552Y47603D01*
X50200Y47400D02*X49848Y47603D01*
X39500Y26900D02*Y26494D01*
Y26900D02*X39852Y27103D01*
X39500Y26900D02*X39148Y27103D01*
X35950Y28250D02*Y27844D01*
Y28250D02*X36302Y28453D01*
X35950Y28250D02*X35598Y28453D01*
X17350Y29900D02*Y29494D01*
Y29900D02*X17702Y30103D01*
X17350Y29900D02*X16998Y30103D01*
X13550Y25150D02*Y24744D01*
Y25150D02*X13902Y25353D01*
X13550Y25150D02*X13198Y25353D01*
X19600Y18800D02*Y18394D01*
Y18800D02*X19952Y19003D01*
X19600Y18800D02*X19248Y19003D01*
X19600Y17900D02*Y17494D01*
Y17900D02*X19952Y18103D01*
X19600Y17900D02*X19248Y18103D01*
X24550Y19250D02*Y18844D01*
Y19250D02*X24902Y19453D01*
X24550Y19250D02*X24198Y19453D01*
X24650Y18400D02*Y17994D01*
Y18400D02*X25002Y18603D01*
X24650Y18400D02*X24298Y18603D01*
X33250Y33900D02*Y33494D01*
Y33900D02*X33602Y34103D01*
X33250Y33900D02*X32898Y34103D01*
X32350Y33900D02*Y33494D01*
Y33900D02*X32702Y34103D01*
X32350Y33900D02*X31998Y34103D01*
X37050Y23000D02*Y22594D01*
Y23000D02*X37402Y23203D01*
X37050Y23000D02*X36698Y23203D01*
X37750Y23000D02*Y22594D01*
Y23000D02*X38102Y23203D01*
X37750Y23000D02*X37398Y23203D01*
X49150Y35050D02*Y34644D01*
Y35050D02*X49502Y35253D01*
X49150Y35050D02*X48798Y35253D01*
X49850Y35050D02*Y34644D01*
Y35050D02*X50202Y35253D01*
X49850Y35050D02*X49498Y35253D01*
X43250Y42650D02*Y42244D01*
Y42650D02*X43602Y42853D01*
X43250Y42650D02*X42898Y42853D01*
X55200Y42000D02*Y41594D01*
Y42000D02*X55552Y42203D01*
X55200Y42000D02*X54848Y42203D01*
X42150Y36100D02*Y35694D01*
Y36100D02*X42502Y36303D01*
X42150Y36100D02*X41798Y36303D01*
X42650Y36800D02*Y36394D01*
Y36800D02*X43002Y37003D01*
X42650Y36800D02*X42298Y37003D01*
X52600Y36750D02*Y36344D01*
Y36750D02*X52952Y36953D01*
X52600Y36750D02*X52248Y36953D01*
X50000Y36750D02*Y36344D01*
Y36750D02*X50352Y36953D01*
X50000Y36750D02*X49648Y36953D01*
X61350Y43250D02*Y42844D01*
Y43250D02*X61702Y43453D01*
X61350Y43250D02*X60998Y43453D01*
X61350Y42550D02*Y42144D01*
Y42550D02*X61702Y42753D01*
X61350Y42550D02*X60998Y42753D01*
X34350Y42900D02*Y42494D01*
Y42900D02*X34702Y43103D01*
X34350Y42900D02*X33998Y43103D01*
X19500Y76650D02*Y76244D01*
Y76650D02*X19852Y76853D01*
X19500Y76650D02*X19148Y76853D01*
X19500Y77350D02*Y76944D01*
Y77350D02*X19852Y77553D01*
X19500Y77350D02*X19148Y77553D01*
X26400Y76650D02*Y76244D01*
Y76650D02*X26752Y76853D01*
X26400Y76650D02*X26048Y76853D01*
X26400Y77350D02*Y76944D01*
Y77350D02*X26752Y77553D01*
X26400Y77350D02*X26048Y77553D01*
X45650Y76700D02*Y76294D01*
Y76700D02*X46002Y76903D01*
X45650Y76700D02*X45298Y76903D01*
X45650Y77350D02*Y76944D01*
Y77350D02*X46002Y77553D01*
X45650Y77350D02*X45298Y77553D01*
X52350Y77350D02*Y76944D01*
Y77350D02*X52702Y77553D01*
X52350Y77350D02*X51998Y77553D01*
X52350Y76650D02*Y76244D01*
Y76650D02*X52702Y76853D01*
X52350Y76650D02*X51998Y76853D01*
X43700Y62700D02*Y62294D01*
Y62700D02*X44052Y62903D01*
X43700Y62700D02*X43348Y62903D01*
X43700Y63400D02*Y62994D01*
Y63400D02*X44052Y63603D01*
X43700Y63400D02*X43348Y63603D01*
X43700Y64100D02*Y63694D01*
Y64100D02*X44052Y64303D01*
X43700Y64100D02*X43348Y64303D01*
X44300Y65150D02*Y64744D01*
Y65150D02*X44652Y65353D01*
X44300Y65150D02*X43948Y65353D01*
X43700Y64800D02*Y64394D01*
Y64800D02*X44052Y65003D01*
X43700Y64800D02*X43348Y65003D01*
X44300Y64450D02*Y64044D01*
Y64450D02*X44652Y64653D01*
X44300Y64450D02*X43948Y64653D01*
X44300Y63750D02*Y63344D01*
Y63750D02*X44652Y63953D01*
X44300Y63750D02*X43948Y63953D01*
X44300Y63050D02*Y62644D01*
Y63050D02*X44652Y63253D01*
X44300Y63050D02*X43948Y63253D01*
X44300Y62350D02*Y61944D01*
Y62350D02*X44652Y62553D01*
X44300Y62350D02*X43948Y62553D01*
X44300Y61650D02*Y61244D01*
Y61650D02*X44652Y61853D01*
X44300Y61650D02*X43948Y61853D01*
X43700Y61300D02*Y60894D01*
Y61300D02*X44052Y61503D01*
X43700Y61300D02*X43348Y61503D01*
X43700Y62000D02*Y61594D01*
Y62000D02*X44052Y62203D01*
X43700Y62000D02*X43348Y62203D01*
X27700Y65150D02*Y64744D01*
Y65150D02*X28052Y65353D01*
X27700Y65150D02*X27348Y65353D01*
X28300Y61300D02*Y60894D01*
Y61300D02*X28652Y61503D01*
X28300Y61300D02*X27948Y61503D01*
X27700Y64450D02*Y64044D01*
Y64450D02*X28052Y64653D01*
X27700Y64450D02*X27348Y64653D01*
X28300Y64100D02*Y63694D01*
Y64100D02*X28652Y64303D01*
X28300Y64100D02*X27948Y64303D01*
X27700Y63750D02*Y63344D01*
Y63750D02*X28052Y63953D01*
X27700Y63750D02*X27348Y63953D01*
X27700Y63050D02*Y62644D01*
Y63050D02*X28052Y63253D01*
X27700Y63050D02*X27348Y63253D01*
X27700Y62350D02*Y61944D01*
Y62350D02*X28052Y62553D01*
X27700Y62350D02*X27348Y62553D01*
X28300Y63400D02*Y62994D01*
Y63400D02*X28652Y63603D01*
X28300Y63400D02*X27948Y63603D01*
X28300Y62700D02*Y62294D01*
Y62700D02*X28652Y62903D01*
X28300Y62700D02*X27948Y62903D01*
X28300Y62000D02*Y61594D01*
Y62000D02*X28652Y62203D01*
X28300Y62000D02*X27948Y62203D01*
X27700Y61650D02*Y61244D01*
Y61650D02*X28052Y61853D01*
X27700Y61650D02*X27348Y61853D01*
X28300Y64800D02*Y64394D01*
Y64800D02*X28652Y65003D01*
X28300Y64800D02*X27948Y65003D01*
X22500Y25650D02*Y25244D01*
Y25650D02*X22852Y25853D01*
X22500Y25650D02*X22148Y25853D01*
X22500Y16700D02*Y16294D01*
Y16700D02*X22852Y16903D01*
X22500Y16700D02*X22148Y16903D01*
X3810Y123338D02*Y122931D01*
Y123338D02*X4162Y123541D01*
X3810Y123338D02*X3458Y123541D01*
X34290Y123909D02*X34671Y123147D01*
X35052Y123909D01*
X34671Y123147D02*Y122385D01*
X35509Y123223D02*X36081D01*
X35509Y122385D02*X36271D01*
X35509Y123909D02*Y122385D01*
Y123909D02*X36271D01*
X37490D02*X37681Y123718D01*
X36919Y123909D02*X37490D01*
X36728Y123718D02*X36919Y123909D01*
X36728Y123718D02*Y123338D01*
X36919Y123147D01*
X37490D01*
X37681Y122956D01*
Y122576D01*
X37490Y122385D02*X37681Y122576D01*
X36919Y122385D02*X37490D01*
X36728Y122576D02*X36919Y122385D01*
X25464Y123909D02*X25654Y123718D01*
X25082Y123909D02*X25464D01*
X24892Y123718D02*X25082Y123909D01*
X24892Y123718D02*Y122576D01*
X25082Y122385D01*
X25464Y123223D02*X25654Y123033D01*
X24892Y123223D02*X25464D01*
X25082Y122385D02*X25464D01*
X25654Y122576D01*
Y123033D02*Y122576D01*
X26111Y122956D02*X26873Y123909D01*
X26111Y122956D02*X27064D01*
X26873Y123909D02*Y122385D01*
X27711D02*X28283Y123147D01*
Y123718D02*Y123147D01*
X28092Y123909D02*X28283Y123718D01*
X27711Y123909D02*X28092D01*
X27521Y123718D02*X27711Y123909D01*
X27521Y123718D02*Y123338D01*
X27711Y123147D01*
X28283D01*
X11430Y122576D02*X11620Y122385D01*
X11430Y123718D02*Y122576D01*
Y123718D02*X11620Y123909D01*
X12002D01*
X12192Y123718D01*
Y122576D01*
X12002Y122385D02*X12192Y122576D01*
X11620Y122385D02*X12002D01*
X11430Y122766D02*X12192Y123528D01*
X12649Y122385D02*X12840D01*
X13297Y122576D02*X13487Y122385D01*
X13297Y123718D02*Y122576D01*
Y123718D02*X13487Y123909D01*
X13868D01*
X14059Y123718D01*
Y122576D01*
X13868Y122385D02*X14059Y122576D01*
X13487Y122385D02*X13868D01*
X13297Y122766D02*X14059Y123528D01*
X14516Y123604D02*X14821Y123909D01*
Y122385D01*
X14516D02*X15088D01*
X15545Y123718D02*X15735Y123909D01*
X16307D01*
X16497Y123718D01*
Y123338D01*
X15545Y122385D02*X16497Y123338D01*
X15545Y122385D02*X16497D01*
X762Y127719D02*X952Y127528D01*
X190Y127719D02*X762D01*
X0Y127528D02*X190Y127719D01*
X0Y127528D02*Y127148D01*
X190Y126957D01*
X762D01*
X952Y126766D01*
Y126386D01*
X762Y126195D02*X952Y126386D01*
X190Y126195D02*X762D01*
X0Y126386D02*X190Y126195D01*
X1410Y126957D02*Y126386D01*
X1600Y126195D01*
X2172Y126957D02*Y125814D01*
X1981Y125624D02*X2172Y125814D01*
X1600Y125624D02*X1981D01*
X1410Y125814D02*X1600Y125624D01*
Y126195D02*X1981D01*
X2172Y126386D01*
X2819Y126766D02*Y126195D01*
Y126766D02*X3010Y126957D01*
X3200D01*
X3391Y126766D01*
Y126195D01*
Y126766D02*X3581Y126957D01*
X3772D01*
X3962Y126766D01*
Y126195D01*
X2629Y126957D02*X2819Y126766D01*
X4420Y127719D02*Y126195D01*
Y126386D02*X4610Y126195D01*
X4991D01*
X5182Y126386D01*
Y126766D02*Y126386D01*
X4991Y126957D02*X5182Y126766D01*
X4610Y126957D02*X4991D01*
X4420Y126766D02*X4610Y126957D01*
X5639Y126766D02*Y126386D01*
Y126766D02*X5829Y126957D01*
X6210D01*
X6401Y126766D01*
Y126386D01*
X6210Y126195D02*X6401Y126386D01*
X5829Y126195D02*X6210D01*
X5639Y126386D02*X5829Y126195D01*
X6858Y127719D02*Y126386D01*
X7049Y126195D01*
X0Y125369D02*X7430D01*
X10604Y127719D02*Y126195D01*
X11100Y127719D02*X11366Y127452D01*
Y126462D01*
X11100Y126195D02*X11366Y126462D01*
X10414Y126195D02*X11100D01*
X10414Y127719D02*X11100D01*
G54D199*X11824Y127338D02*Y127300D01*
G54D198*Y126766D02*Y126195D01*
X12776Y126957D02*X12967Y126766D01*
X12395Y126957D02*X12776D01*
X12205Y126766D02*X12395Y126957D01*
X12205Y126766D02*Y126386D01*
X12395Y126195D01*
X12967Y126957D02*Y126386D01*
X13157Y126195D01*
X12395D02*X12776D01*
X12967Y126386D01*
X13805Y126766D02*Y126195D01*
Y126766D02*X13995Y126957D01*
X14186D01*
X14376Y126766D01*
Y126195D01*
Y126766D02*X14567Y126957D01*
X14757D01*
X14948Y126766D01*
Y126195D01*
X13614Y126957D02*X13805Y126766D01*
X15405Y126195D02*X15596D01*
X16739Y126386D02*X16929Y126195D01*
X16739Y127528D02*X16929Y127719D01*
X16739Y127528D02*Y126386D01*
X17386Y127719D02*X17767D01*
X17577D02*Y126195D01*
X17386D02*X17767D01*
X18415Y126766D02*Y126195D01*
Y126766D02*X18606Y126957D01*
X18796D01*
X18987Y126766D01*
Y126195D01*
X18225Y126957D02*X18415Y126766D01*
X19634Y126957D02*X20206D01*
X19444Y126766D02*X19634Y126957D01*
X19444Y126766D02*Y126386D01*
X19634Y126195D01*
X20206D01*
X20663Y127719D02*Y126195D01*
Y126766D02*X20853Y126957D01*
X21234D01*
X21425Y126766D01*
Y126195D01*
X21882Y127719D02*X22073Y127528D01*
Y126386D01*
X21882Y126195D02*X22073Y126386D01*
X10414Y125369D02*X22530D01*
X24397Y126195D02*X24892D01*
X24130Y126462D02*X24397Y126195D01*
X24130Y127452D02*Y126462D01*
Y127452D02*X24397Y127719D01*
X24892D01*
X25349Y126766D02*Y126386D01*
Y126766D02*X25540Y126957D01*
X25921D01*
X26111Y126766D01*
Y126386D01*
X25921Y126195D02*X26111Y126386D01*
X25540Y126195D02*X25921D01*
X25349Y126386D02*X25540Y126195D01*
X26568Y126957D02*Y126386D01*
X26759Y126195D01*
X27140D01*
X27330Y126386D01*
Y126957D02*Y126386D01*
X27978Y126766D02*Y126195D01*
Y126766D02*X28169Y126957D01*
X28359D01*
X28550Y126766D01*
Y126195D01*
X27788Y126957D02*X27978Y126766D01*
X29197Y127719D02*Y126386D01*
X29388Y126195D01*
X29007Y127148D02*X29388D01*
X24130Y125369D02*X29769D01*
X33210Y127719D02*Y126195D01*
X33020Y127719D02*X33782D01*
X33972Y127528D01*
Y127148D01*
X33782Y126957D02*X33972Y127148D01*
X33210Y126957D02*X33782D01*
X34430Y127719D02*Y126386D01*
X34620Y126195D01*
X35573Y126957D02*X35763Y126766D01*
X35192Y126957D02*X35573D01*
X35001Y126766D02*X35192Y126957D01*
X35001Y126766D02*Y126386D01*
X35192Y126195D01*
X35763Y126957D02*Y126386D01*
X35954Y126195D01*
X35192D02*X35573D01*
X35763Y126386D01*
X36601Y127719D02*Y126386D01*
X36792Y126195D01*
X36411Y127148D02*X36792D01*
X37363Y126195D02*X37935D01*
X37173Y126386D02*X37363Y126195D01*
X37173Y126766D02*Y126386D01*
Y126766D02*X37363Y126957D01*
X37744D01*
X37935Y126766D01*
X37173Y126576D02*X37935D01*
Y126766D02*Y126576D01*
X39154Y127719D02*Y126195D01*
X38964D02*X39154Y126386D01*
X38583Y126195D02*X38964D01*
X38392Y126386D02*X38583Y126195D01*
X38392Y126766D02*Y126386D01*
Y126766D02*X38583Y126957D01*
X38964D01*
X39154Y126766D01*
X39992Y126957D02*Y126766D01*
Y126386D02*Y126195D01*
X39611Y127528D02*Y127338D01*
Y127528D02*X39802Y127719D01*
X40183D01*
X40373Y127528D01*
Y127338D01*
X39992Y126957D02*X40373Y127338D01*
X33020Y125369D02*X40831D01*
X0Y131529D02*X762D01*
X381D02*Y130005D01*
X1219Y131529D02*Y130005D01*
Y130577D02*X1410Y130767D01*
X1791D01*
X1981Y130577D01*
Y130005D01*
X2629D02*X3200D01*
X2438Y130196D02*X2629Y130005D01*
X2438Y130577D02*Y130196D01*
Y130577D02*X2629Y130767D01*
X3010D01*
X3200Y130577D01*
X2438Y130386D02*X3200D01*
Y130577D02*Y130386D01*
X3848Y130577D02*Y130005D01*
Y130577D02*X4039Y130767D01*
X4420D01*
X3658D02*X3848Y130577D01*
X5067Y130005D02*X5639D01*
X4877Y130196D02*X5067Y130005D01*
X4877Y130577D02*Y130196D01*
Y130577D02*X5067Y130767D01*
X5448D01*
X5639Y130577D01*
X4877Y130386D02*X5639D01*
Y130577D02*Y130386D01*
X7353Y130767D02*X7544Y130577D01*
X6972Y130767D02*X7353D01*
X6782Y130577D02*X6972Y130767D01*
X6782Y130577D02*Y130196D01*
X6972Y130005D01*
X7544Y130767D02*Y130196D01*
X7734Y130005D01*
X6972D02*X7353D01*
X7544Y130196D01*
X8382Y130577D02*Y130005D01*
Y130577D02*X8573Y130767D01*
X8954D01*
X8192D02*X8382Y130577D01*
X9601Y130005D02*X10173D01*
X9411Y130196D02*X9601Y130005D01*
X9411Y130577D02*Y130196D01*
Y130577D02*X9601Y130767D01*
X9982D01*
X10173Y130577D01*
X9411Y130386D02*X10173D01*
Y130577D02*Y130386D01*
X11506Y130005D02*X12078Y130767D01*
Y131338D02*Y130767D01*
X11887Y131529D02*X12078Y131338D01*
X11506Y131529D02*X11887D01*
X11316Y131338D02*X11506Y131529D01*
X11316Y131338D02*Y130958D01*
X11506Y130767D01*
X12078D01*
X13983Y131529D02*Y130005D01*
X13792D02*X13983Y130196D01*
X13411Y130005D02*X13792D01*
X13221Y130196D02*X13411Y130005D01*
X13221Y130577D02*Y130196D01*
Y130577D02*X13411Y130767D01*
X13792D01*
X13983Y130577D01*
G54D199*X14440Y131148D02*Y131110D01*
G54D198*Y130577D02*Y130005D01*
X15011Y131338D02*Y130005D01*
Y131338D02*X15202Y131529D01*
X15392D01*
X14821Y130767D02*X15202D01*
X15964Y131338D02*Y130005D01*
Y131338D02*X16154Y131529D01*
X16345D01*
X15773Y130767D02*X16154D01*
X16916Y130005D02*X17488D01*
X16726Y130196D02*X16916Y130005D01*
X16726Y130577D02*Y130196D01*
Y130577D02*X16916Y130767D01*
X17297D01*
X17488Y130577D01*
X16726Y130386D02*X17488D01*
Y130577D02*Y130386D01*
X18136Y130577D02*Y130005D01*
Y130577D02*X18326Y130767D01*
X18707D01*
X17945D02*X18136Y130577D01*
X19355Y130005D02*X19926D01*
X19164Y130196D02*X19355Y130005D01*
X19164Y130577D02*Y130196D01*
Y130577D02*X19355Y130767D01*
X19736D01*
X19926Y130577D01*
X19164Y130386D02*X19926D01*
Y130577D02*Y130386D01*
X20574Y130577D02*Y130005D01*
Y130577D02*X20765Y130767D01*
X20955D01*
X21146Y130577D01*
Y130005D01*
X20384Y130767D02*X20574Y130577D01*
X21793Y131529D02*Y130196D01*
X21984Y130005D01*
X21603Y130958D02*X21984D01*
X23813Y131529D02*Y130005D01*
X23622D02*X23813Y130196D01*
X23241Y130005D02*X23622D01*
X23051Y130196D02*X23241Y130005D01*
X23051Y130577D02*Y130196D01*
Y130577D02*X23241Y130767D01*
X23622D01*
X23813Y130577D01*
X24460D02*Y130005D01*
Y130577D02*X24651Y130767D01*
X25032D01*
X24270D02*X24460Y130577D01*
G54D199*X25489Y131148D02*Y131110D01*
G54D198*Y130577D02*Y130005D01*
X25870Y131529D02*Y130196D01*
X26060Y130005D01*
X26441Y131529D02*Y130196D01*
X26632Y130005D01*
X27889D02*X28461D01*
X28651Y130196D01*
X28461Y130386D02*X28651Y130196D01*
X27889Y130386D02*X28461D01*
X27699Y130577D02*X27889Y130386D01*
X27699Y130577D02*X27889Y130767D01*
X28461D01*
X28651Y130577D01*
X27699Y130196D02*X27889Y130005D01*
G54D199*X29108Y131148D02*Y131110D01*
G54D198*Y130577D02*Y130005D01*
X29489Y130767D02*X30251D01*
X29489Y130005D02*X30251Y130767D01*
X29489Y130005D02*X30251D01*
X30899D02*X31471D01*
X30709Y130196D02*X30899Y130005D01*
X30709Y130577D02*Y130196D01*
Y130577D02*X30899Y130767D01*
X31280D01*
X31471Y130577D01*
X30709Y130386D02*X31471D01*
Y130577D02*Y130386D01*
X32118Y130005D02*X32690D01*
X32880Y130196D01*
X32690Y130386D02*X32880Y130196D01*
X32118Y130386D02*X32690D01*
X31928Y130577D02*X32118Y130386D01*
X31928Y130577D02*X32118Y130767D01*
X32690D01*
X32880Y130577D01*
X31928Y130196D02*X32118Y130005D01*
X34023Y130767D02*Y130196D01*
X34214Y130005D01*
X34595D01*
X34785Y130196D01*
Y130767D02*Y130196D01*
X35433Y130005D02*X36005D01*
X36195Y130196D01*
X36005Y130386D02*X36195Y130196D01*
X35433Y130386D02*X36005D01*
X35243Y130577D02*X35433Y130386D01*
X35243Y130577D02*X35433Y130767D01*
X36005D01*
X36195Y130577D01*
X35243Y130196D02*X35433Y130005D01*
X36843D02*X37414D01*
X36652Y130196D02*X36843Y130005D01*
X36652Y130577D02*Y130196D01*
Y130577D02*X36843Y130767D01*
X37224D01*
X37414Y130577D01*
X36652Y130386D02*X37414D01*
Y130577D02*Y130386D01*
X38633Y131529D02*Y130005D01*
X38443D02*X38633Y130196D01*
X38062Y130005D02*X38443D01*
X37871Y130196D02*X38062Y130005D01*
X37871Y130577D02*Y130196D01*
Y130577D02*X38062Y130767D01*
X38443D01*
X38633Y130577D01*
G54D199*X39776Y131148D02*Y131110D01*
G54D198*Y130577D02*Y130005D01*
X40348Y130577D02*Y130005D01*
Y130577D02*X40538Y130767D01*
X40729D01*
X40919Y130577D01*
Y130005D01*
X40157Y130767D02*X40348Y130577D01*
X42253Y131529D02*Y130196D01*
X42443Y130005D01*
X42062Y130958D02*X42443D01*
X42824Y131529D02*Y130005D01*
Y130577D02*X43015Y130767D01*
X43396D01*
X43586Y130577D01*
Y130005D01*
G54D199*X44044Y131148D02*Y131110D01*
G54D198*Y130577D02*Y130005D01*
X44615D02*X45187D01*
X45377Y130196D01*
X45187Y130386D02*X45377Y130196D01*
X44615Y130386D02*X45187D01*
X44425Y130577D02*X44615Y130386D01*
X44425Y130577D02*X44615Y130767D01*
X45187D01*
X45377Y130577D01*
X44425Y130196D02*X44615Y130005D01*
X46520Y131529D02*Y130196D01*
X46711Y130005D01*
X47663Y130767D02*X47854Y130577D01*
X47282Y130767D02*X47663D01*
X47092Y130577D02*X47282Y130767D01*
X47092Y130577D02*Y130196D01*
X47282Y130005D01*
X47854Y130767D02*Y130196D01*
X48044Y130005D01*
X47282D02*X47663D01*
X47854Y130196D01*
X48501Y130767D02*Y130196D01*
X48692Y130005D01*
X49263Y130767D02*Y129624D01*
X49073Y129434D02*X49263Y129624D01*
X48692Y129434D02*X49073D01*
X48501Y129624D02*X48692Y129434D01*
Y130005D02*X49073D01*
X49263Y130196D01*
X49721Y130577D02*Y130196D01*
Y130577D02*X49911Y130767D01*
X50292D01*
X50483Y130577D01*
Y130196D01*
X50292Y130005D02*X50483Y130196D01*
X49911Y130005D02*X50292D01*
X49721Y130196D02*X49911Y130005D01*
X50940Y130767D02*Y130196D01*
X51130Y130005D01*
X51511D01*
X51702Y130196D01*
Y130767D02*Y130196D01*
X52349Y131529D02*Y130196D01*
X52540Y130005D01*
X52159Y130958D02*X52540D01*
X52921Y129624D02*X53302Y130005D01*
X55016Y131529D02*X55207Y131338D01*
X54635Y131529D02*X55016D01*
X54445Y131338D02*X54635Y131529D01*
X54445Y131338D02*Y130196D01*
X54635Y130005D01*
X55016Y130843D02*X55207Y130653D01*
X54445Y130843D02*X55016D01*
X54635Y130005D02*X55016D01*
X55207Y130196D01*
Y130653D02*Y130196D01*
X55855Y130005D02*X56426Y130767D01*
Y131338D02*Y130767D01*
X56236Y131529D02*X56426Y131338D01*
X55855Y131529D02*X56236D01*
X55664Y131338D02*X55855Y131529D01*
X55664Y131338D02*Y130958D01*
X55855Y130767D01*
X56426D01*
X56883Y131338D02*X57074Y131529D01*
X57455D01*
X57645Y131338D01*
X57455Y130005D02*X57645Y130196D01*
X57074Y130005D02*X57455D01*
X56883Y130196D02*X57074Y130005D01*
Y130843D02*X57455D01*
X57645Y131338D02*Y131034D01*
Y130653D02*Y130196D01*
Y130653D02*X57455Y130843D01*
X57645Y131034D02*X57455Y130843D01*
X58788Y131529D02*Y130005D01*
Y130577D02*X58979Y130767D01*
X59360D01*
X59550Y130577D01*
Y130005D01*
X60008Y130577D02*Y130196D01*
Y130577D02*X60198Y130767D01*
X60579D01*
X60770Y130577D01*
Y130196D01*
X60579Y130005D02*X60770Y130196D01*
X60198Y130005D02*X60579D01*
X60008Y130196D02*X60198Y130005D01*
X61227Y131529D02*Y130196D01*
X61417Y130005D01*
X61989D02*X62560D01*
X61798Y130196D02*X61989Y130005D01*
X61798Y130577D02*Y130196D01*
Y130577D02*X61989Y130767D01*
X62370D01*
X62560Y130577D01*
X61798Y130386D02*X62560D01*
Y130577D02*Y130386D01*
X63208Y130005D02*X63779D01*
X63970Y130196D01*
X63779Y130386D02*X63970Y130196D01*
X63208Y130386D02*X63779D01*
X63017Y130577D02*X63208Y130386D01*
X63017Y130577D02*X63208Y130767D01*
X63779D01*
X63970Y130577D01*
X63017Y130196D02*X63208Y130005D01*
X65303Y131529D02*Y130196D01*
X65494Y130005D01*
X65113Y130958D02*X65494D01*
X65875Y130577D02*Y130196D01*
Y130577D02*X66065Y130767D01*
X66446D01*
X66637Y130577D01*
Y130196D01*
X66446Y130005D02*X66637Y130196D01*
X66065Y130005D02*X66446D01*
X65875Y130196D02*X66065Y130005D01*
X67285Y131529D02*Y130196D01*
X67475Y130005D01*
X67094Y130958D02*X67475D01*
X68428Y130767D02*X68618Y130577D01*
X68047Y130767D02*X68428D01*
X67856Y130577D02*X68047Y130767D01*
X67856Y130577D02*Y130196D01*
X68047Y130005D01*
X68618Y130767D02*Y130196D01*
X68809Y130005D01*
X68047D02*X68428D01*
X68618Y130196D01*
X69266Y131529D02*Y130196D01*
X69456Y130005D01*
G54D200*X13500Y80000D02*X58500D01*
X62000Y76500D02*Y13500D01*
X58500Y10000D02*X13500D01*
X10000Y13500D02*Y76500D01*
G75*G02X13500Y80000I3500J0D01*G01*
X58500D02*G75*G02X62000Y76500I0J-3500D01*G01*
X10000Y13500D02*G75*G03X13500Y10000I3500J0D01*G01*
X58500D02*G75*G03X62000Y13500I0J3500D01*G01*
G54D198*X13073Y-2413D02*X13835D01*
X14026Y-2222D01*
Y-1765D02*Y-2222D01*
X13835Y-1575D02*X14026Y-1765D01*
X13264Y-1575D02*X13835D01*
X13264Y-889D02*Y-2413D01*
X13073Y-889D02*X13835D01*
X14026Y-1080D01*
Y-1384D01*
X13835Y-1575D02*X14026Y-1384D01*
X14483Y-1842D02*Y-2222D01*
Y-1842D02*X14674Y-1651D01*
X15055D01*
X15245Y-1842D01*
Y-2222D01*
X15055Y-2413D02*X15245Y-2222D01*
X14674Y-2413D02*X15055D01*
X14483Y-2222D02*X14674Y-2413D01*
X16274Y-1651D02*X16464Y-1842D01*
X15893Y-1651D02*X16274D01*
X15702Y-1842D02*X15893Y-1651D01*
X15702Y-1842D02*Y-2222D01*
X15893Y-2413D01*
X16464Y-1651D02*Y-2222D01*
X16655Y-2413D01*
X15893D02*X16274D01*
X16464Y-2222D01*
X17303Y-1842D02*Y-2413D01*
Y-1842D02*X17493Y-1651D01*
X17874D01*
X17112D02*X17303Y-1842D01*
X19093Y-889D02*Y-2413D01*
X18903D02*X19093Y-2222D01*
X18522Y-2413D02*X18903D01*
X18331Y-2222D02*X18522Y-2413D01*
X18331Y-1842D02*Y-2222D01*
Y-1842D02*X18522Y-1651D01*
X18903D01*
X19093Y-1842D01*
X20236D02*Y-2222D01*
Y-1842D02*X20427Y-1651D01*
X20808D01*
X20998Y-1842D01*
Y-2222D01*
X20808Y-2413D02*X20998Y-2222D01*
X20427Y-2413D02*X20808D01*
X20236Y-2222D02*X20427Y-2413D01*
X21455Y-1651D02*Y-2222D01*
X21646Y-2413D01*
X22027D01*
X22217Y-2222D01*
Y-1651D02*Y-2222D01*
X22865Y-889D02*Y-2222D01*
X23056Y-2413D01*
X22675Y-1460D02*X23056D01*
X23437Y-889D02*Y-2222D01*
X23627Y-2413D01*
G54D199*X24008Y-1270D02*Y-1308D01*
G54D198*Y-1842D02*Y-2413D01*
X24580Y-1842D02*Y-2413D01*
Y-1842D02*X24770Y-1651D01*
X24961D01*
X25151Y-1842D01*
Y-2413D01*
X24389Y-1651D02*X24580Y-1842D01*
X25799Y-2413D02*X26370D01*
X25608Y-2222D02*X25799Y-2413D01*
X25608Y-1842D02*Y-2222D01*
Y-1842D02*X25799Y-1651D01*
X26180D01*
X26370Y-1842D01*
X25608Y-2032D02*X26370D01*
Y-1842D02*Y-2032D01*
G54D199*X27513Y-1270D02*Y-1308D01*
G54D198*Y-1842D02*Y-2413D01*
X28085D02*X28656D01*
X28847Y-2222D01*
X28656Y-2032D02*X28847Y-2222D01*
X28085Y-2032D02*X28656D01*
X27894Y-1842D02*X28085Y-2032D01*
X27894Y-1842D02*X28085Y-1651D01*
X28656D01*
X28847Y-1842D01*
X27894Y-2222D02*X28085Y-2413D01*
X30180Y-889D02*Y-2222D01*
X30371Y-2413D01*
X29990Y-1460D02*X30371D01*
X30752Y-889D02*Y-2413D01*
Y-1842D02*X30942Y-1651D01*
X31323D01*
X31514Y-1842D01*
Y-2413D01*
X32162D02*X32733D01*
X31971Y-2222D02*X32162Y-2413D01*
X31971Y-1842D02*Y-2222D01*
Y-1842D02*X32162Y-1651D01*
X32543D01*
X32733Y-1842D01*
X31971Y-2032D02*X32733D01*
Y-1842D02*Y-2032D01*
X34067Y-1651D02*X34638D01*
X33876Y-1842D02*X34067Y-1651D01*
X33876Y-1842D02*Y-2222D01*
X34067Y-2413D01*
X34638D01*
X35286D02*X35857D01*
X35095Y-2222D02*X35286Y-2413D01*
X35095Y-1842D02*Y-2222D01*
Y-1842D02*X35286Y-1651D01*
X35667D01*
X35857Y-1842D01*
X35095Y-2032D02*X35857D01*
Y-1842D02*Y-2032D01*
X36505Y-1842D02*Y-2413D01*
Y-1842D02*X36695Y-1651D01*
X36886D01*
X37076Y-1842D01*
Y-2413D01*
X36314Y-1651D02*X36505Y-1842D01*
X37724Y-889D02*Y-2222D01*
X37915Y-2413D01*
X37534Y-1460D02*X37915D01*
X38486Y-2413D02*X39058D01*
X38296Y-2222D02*X38486Y-2413D01*
X38296Y-1842D02*Y-2222D01*
Y-1842D02*X38486Y-1651D01*
X38867D01*
X39058Y-1842D01*
X38296Y-2032D02*X39058D01*
Y-1842D02*Y-2032D01*
X39705Y-1842D02*Y-2413D01*
Y-1842D02*X39896Y-1651D01*
X40277D01*
X39515D02*X39705Y-1842D01*
X40734Y-889D02*Y-2222D01*
X40925Y-2413D01*
G54D199*X41306Y-1270D02*Y-1308D01*
G54D198*Y-1842D02*Y-2413D01*
X41877Y-1842D02*Y-2413D01*
Y-1842D02*X42068Y-1651D01*
X42258D01*
X42449Y-1842D01*
Y-2413D01*
X41687Y-1651D02*X41877Y-1842D01*
X43096Y-2413D02*X43668D01*
X42906Y-2222D02*X43096Y-2413D01*
X42906Y-1842D02*Y-2222D01*
Y-1842D02*X43096Y-1651D01*
X43477D01*
X43668Y-1842D01*
X42906Y-2032D02*X43668D01*
Y-1842D02*Y-2032D01*
X44811Y-1842D02*Y-2222D01*
Y-1842D02*X45001Y-1651D01*
X45382D01*
X45573Y-1842D01*
Y-2222D01*
X45382Y-2413D02*X45573Y-2222D01*
X45001Y-2413D02*X45382D01*
X44811Y-2222D02*X45001Y-2413D01*
X46220Y-1080D02*Y-2413D01*
Y-1080D02*X46411Y-889D01*
X46601D01*
X46030Y-1651D02*X46411D01*
X47859Y-889D02*Y-2222D01*
X48049Y-2413D01*
X47668Y-1460D02*X48049D01*
X48430Y-889D02*Y-2413D01*
Y-1842D02*X48621Y-1651D01*
X49002D01*
X49192Y-1842D01*
Y-2413D01*
G54D199*X49649Y-1270D02*Y-1308D01*
G54D198*Y-1842D02*Y-2413D01*
X50221D02*X50792D01*
X50983Y-2222D01*
X50792Y-2032D02*X50983Y-2222D01*
X50221Y-2032D02*X50792D01*
X50030Y-1842D02*X50221Y-2032D01*
X50030Y-1842D02*X50221Y-1651D01*
X50792D01*
X50983Y-1842D01*
X50030Y-2222D02*X50221Y-2413D01*
X52316Y-1842D02*Y-2984D01*
X52126Y-1651D02*X52316Y-1842D01*
X52507Y-1651D01*
X52888D01*
X53078Y-1842D01*
Y-2222D01*
X52888Y-2413D02*X53078Y-2222D01*
X52507Y-2413D02*X52888D01*
X52316Y-2222D02*X52507Y-2413D01*
X54107Y-1651D02*X54298Y-1842D01*
X53726Y-1651D02*X54107D01*
X53536Y-1842D02*X53726Y-1651D01*
X53536Y-1842D02*Y-2222D01*
X53726Y-2413D01*
X54298Y-1651D02*Y-2222D01*
X54488Y-2413D01*
X53726D02*X54107D01*
X54298Y-2222D01*
X55136Y-889D02*Y-2222D01*
X55326Y-2413D01*
X54945Y-1460D02*X55326D01*
X55707Y-889D02*Y-2413D01*
Y-1842D02*X55898Y-1651D01*
X56279D01*
X56469Y-1842D01*
Y-2413D01*
X50990Y97239D02*Y95715D01*
X51486Y97239D02*X51752Y96972D01*
Y95982D01*
X51486Y95715D02*X51752Y95982D01*
X50800Y95715D02*X51486D01*
X50800Y97239D02*X51486D01*
X52781Y96477D02*X52972Y96286D01*
X52400Y96477D02*X52781D01*
X52210Y96286D02*X52400Y96477D01*
X52210Y96286D02*Y95906D01*
X52400Y95715D01*
X52972Y96477D02*Y95906D01*
X53162Y95715D01*
X52400D02*X52781D01*
X52972Y95906D01*
X53810Y97239D02*Y95906D01*
X54000Y95715D01*
X53619Y96668D02*X54000D01*
X54572Y95715D02*X55143D01*
X54381Y95906D02*X54572Y95715D01*
X54381Y96286D02*Y95906D01*
Y96286D02*X54572Y96477D01*
X54953D01*
X55143Y96286D01*
X54381Y96096D02*X55143D01*
Y96286D02*Y96096D01*
X55601Y96668D02*X55791D01*
X55601Y96286D02*X55791D01*
X56934Y97239D02*Y95715D01*
Y97239D02*X57506Y96477D01*
X58077Y97239D01*
Y95715D01*
X58534Y96286D02*Y95906D01*
Y96286D02*X58725Y96477D01*
X59106D01*
X59296Y96286D01*
Y95906D01*
X59106Y95715D02*X59296Y95906D01*
X58725Y95715D02*X59106D01*
X58534Y95906D02*X58725Y95715D01*
X59944Y96286D02*Y95715D01*
Y96286D02*X60135Y96477D01*
X60325D01*
X60516Y96286D01*
Y95715D01*
X59754Y96477D02*X59944Y96286D01*
X61659Y97048D02*X61849Y97239D01*
X62421D01*
X62611Y97048D01*
Y96668D01*
X61659Y95715D02*X62611Y96668D01*
X61659Y95715D02*X62611D01*
X63259D02*X64021Y97239D01*
X63068D02*X64021D01*
X65164D02*Y95715D01*
Y97239D02*X65735Y96477D01*
X66307Y97239D01*
Y95715D01*
X67335Y96477D02*X67526Y96286D01*
X66954Y96477D02*X67335D01*
X66764Y96286D02*X66954Y96477D01*
X66764Y96286D02*Y95906D01*
X66954Y95715D01*
X67526Y96477D02*Y95906D01*
X67716Y95715D01*
X66954D02*X67335D01*
X67526Y95906D01*
X68174Y96477D02*Y95906D01*
X68364Y95715D01*
X68936Y96477D02*Y95334D01*
X68745Y95144D02*X68936Y95334D01*
X68364Y95144D02*X68745D01*
X68174Y95334D02*X68364Y95144D01*
Y95715D02*X68745D01*
X68936Y95906D01*
X70079Y97048D02*X70269Y97239D01*
X70841D01*
X71031Y97048D01*
Y96668D01*
X70079Y95715D02*X71031Y96668D01*
X70079Y95715D02*X71031D01*
X71488Y95906D02*X71679Y95715D01*
X71488Y97048D02*Y95906D01*
Y97048D02*X71679Y97239D01*
X72060D01*
X72250Y97048D01*
Y95906D01*
X72060Y95715D02*X72250Y95906D01*
X71679Y95715D02*X72060D01*
X71488Y96096D02*X72250Y96858D01*
X72708Y96934D02*X73012Y97239D01*
Y95715D01*
X72708D02*X73279D01*
X73736Y97048D02*X73927Y97239D01*
X74308D01*
X74498Y97048D01*
X74308Y95715D02*X74498Y95906D01*
X73927Y95715D02*X74308D01*
X73736Y95906D02*X73927Y95715D01*
Y96553D02*X74308D01*
X74498Y97048D02*Y96744D01*
Y96363D02*Y95906D01*
Y96363D02*X74308Y96553D01*
X74498Y96744D02*X74308Y96553D01*
X75641Y97048D02*X75832Y97239D01*
X76403D01*
X76594Y97048D01*
Y96668D01*
X75641Y95715D02*X76594Y96668D01*
X75641Y95715D02*X76594D01*
X77051Y97048D02*X77241Y97239D01*
X77813D01*
X78003Y97048D01*
Y96668D01*
X77051Y95715D02*X78003Y96668D01*
X77051Y95715D02*X78003D01*
X78461Y96668D02*X78651D01*
X78461Y96286D02*X78651D01*
X79108Y97048D02*X79299Y97239D01*
X79870D01*
X80061Y97048D01*
Y96668D01*
X79108Y95715D02*X80061Y96668D01*
X79108Y95715D02*X80061D01*
X80518Y95906D02*X80709Y95715D01*
X80518Y96210D02*Y95906D01*
Y96210D02*X80785Y96477D01*
X81013D01*
X81280Y96210D01*
Y95906D01*
X81090Y95715D02*X81280Y95906D01*
X80709Y95715D02*X81090D01*
X80518Y96744D02*X80785Y96477D01*
X80518Y97048D02*Y96744D01*
Y97048D02*X80709Y97239D01*
X81090D01*
X81280Y97048D01*
Y96744D01*
X81013Y96477D02*X81280Y96744D01*
X81737Y96668D02*X81928D01*
X81737Y96286D02*X81928D01*
X82385Y97048D02*X82575Y97239D01*
X83147D01*
X83337Y97048D01*
Y96668D01*
X82385Y95715D02*X83337Y96668D01*
X82385Y95715D02*X83337D01*
X83795Y96934D02*X84099Y97239D01*
Y95715D01*
X83795D02*X84366D01*
X86271Y97239D02*X86462Y97048D01*
X85700Y97239D02*X86271D01*
X85509Y97048D02*X85700Y97239D01*
X85509Y97048D02*Y95906D01*
X85700Y95715D01*
X86271D01*
X86462Y95906D01*
Y96286D02*Y95906D01*
X86271Y96477D02*X86462Y96286D01*
X85890Y96477D02*X86271D01*
X86919Y97239D02*Y95715D01*
Y97239D02*X87490Y96477D01*
X88062Y97239D01*
Y95715D01*
X88519Y97239D02*X89281D01*
X88900D02*Y95715D01*
X90424Y97239D02*Y95906D01*
X90615Y95715D01*
X90996D01*
X91186Y95906D01*
Y97239D02*Y95906D01*
X91643Y97239D02*X92405D01*
X92024D02*Y95715D01*
X93129D02*X93624D01*
X92862Y95982D02*X93129Y95715D01*
X92862Y96972D02*Y95982D01*
Y96972D02*X93129Y97239D01*
X93624D01*
X50800Y100668D02*Y99525D01*
Y100668D02*X51067Y101049D01*
X51486D01*
X51752Y100668D01*
Y99525D01*
X50800Y100287D02*X51752D01*
X52210D02*Y99716D01*
X52400Y99525D01*
X52781D01*
X52972Y99716D01*
Y100287D02*Y99716D01*
X53619Y101049D02*Y99716D01*
X53810Y99525D01*
X53429Y100478D02*X53810D01*
X54191Y101049D02*Y99525D01*
Y100096D02*X54381Y100287D01*
X54762D01*
X54953Y100096D01*
Y99525D01*
X55410Y100096D02*Y99716D01*
Y100096D02*X55601Y100287D01*
X55982D01*
X56172Y100096D01*
Y99716D01*
X55982Y99525D02*X56172Y99716D01*
X55601Y99525D02*X55982D01*
X55410Y99716D02*X55601Y99525D01*
X56820Y100096D02*Y99525D01*
Y100096D02*X57010Y100287D01*
X57391D01*
X56629D02*X56820Y100096D01*
X57849Y100478D02*X58039D01*
X57849Y100096D02*X58039D01*
X59182Y101049D02*X59944D01*
X60135Y100858D01*
Y100478D01*
X59944Y100287D02*X60135Y100478D01*
X59373Y100287D02*X59944D01*
X59373Y101049D02*Y99525D01*
X59677Y100287D02*X60135Y99525D01*
G54D199*X60592Y100668D02*Y100630D01*
G54D198*Y100096D02*Y99525D01*
X61163Y100287D02*X61735D01*
X60973Y100096D02*X61163Y100287D01*
X60973Y100096D02*Y99716D01*
X61163Y99525D01*
X61735D01*
X62192Y101049D02*Y99525D01*
Y100096D02*X62382Y100287D01*
X62763D01*
X62954Y100096D01*
Y99525D01*
X63983Y100287D02*X64173Y100096D01*
X63602Y100287D02*X63983D01*
X63411Y100096D02*X63602Y100287D01*
X63411Y100096D02*Y99716D01*
X63602Y99525D01*
X64173Y100287D02*Y99716D01*
X64364Y99525D01*
X63602D02*X63983D01*
X64173Y99716D01*
X65011Y100096D02*Y99525D01*
Y100096D02*X65202Y100287D01*
X65583D01*
X64821D02*X65011Y100096D01*
X66802Y101049D02*Y99525D01*
X66612D02*X66802Y99716D01*
X66231Y99525D02*X66612D01*
X66040Y99716D02*X66231Y99525D01*
X66040Y100096D02*Y99716D01*
Y100096D02*X66231Y100287D01*
X66612D01*
X66802Y100096D01*
X67945Y99525D02*X68707D01*
X68898Y99716D01*
Y100173D02*Y99716D01*
X68707Y100363D02*X68898Y100173D01*
X68136Y100363D02*X68707D01*
X68136Y101049D02*Y99525D01*
X67945Y101049D02*X68707D01*
X68898Y100858D01*
Y100554D01*
X68707Y100363D02*X68898Y100554D01*
X69926Y100287D02*X70117Y100096D01*
X69545Y100287D02*X69926D01*
X69355Y100096D02*X69545Y100287D01*
X69355Y100096D02*Y99716D01*
X69545Y99525D01*
X70117Y100287D02*Y99716D01*
X70307Y99525D01*
X69545D02*X69926D01*
X70117Y99716D01*
X70955Y100096D02*Y99525D01*
Y100096D02*X71145Y100287D01*
X71526D01*
X70764D02*X70955Y100096D01*
X71984Y101049D02*Y99716D01*
X72174Y99525D01*
X72555Y100096D02*Y99716D01*
Y100096D02*X72746Y100287D01*
X73127D01*
X73317Y100096D01*
Y99716D01*
X73127Y99525D02*X73317Y99716D01*
X72746Y99525D02*X73127D01*
X72555Y99716D02*X72746Y99525D01*
X73774Y100287D02*Y99716D01*
X73965Y99525D01*
X74155D01*
X74346Y99716D01*
Y100287D02*Y99716D01*
X74536Y99525D01*
X74727D01*
X74917Y99716D01*
Y100287D02*Y99716D01*
X50800Y104859D02*X51562D01*
X51181D02*Y103335D01*
G54D199*X52019Y104478D02*Y104440D01*
G54D198*Y103906D02*Y103335D01*
X52591Y104859D02*Y103526D01*
X52781Y103335D01*
X52400Y104288D02*X52781D01*
X53162Y104859D02*Y103526D01*
X53353Y103335D01*
X53924D02*X54496D01*
X53734Y103526D02*X53924Y103335D01*
X53734Y103906D02*Y103526D01*
Y103906D02*X53924Y104097D01*
X54305D01*
X54496Y103906D01*
X53734Y103716D02*X54496D01*
Y103906D02*Y103716D01*
X54953Y104288D02*X55143D01*
X54953Y103906D02*X55143D01*
X56286Y103526D02*X56477Y103335D01*
X56286Y104668D02*X56477Y104859D01*
X56286Y104668D02*Y103526D01*
X56934Y104097D02*Y103526D01*
X57125Y103335D01*
X57506D01*
X57696Y103526D01*
Y104097D02*Y103526D01*
X58344Y103906D02*Y103335D01*
Y103906D02*X58534Y104097D01*
X58725D01*
X58915Y103906D01*
Y103335D01*
X58153Y104097D02*X58344Y103906D01*
X59373Y104859D02*Y103335D01*
Y103906D02*X59944Y103335D01*
X59373Y103906D02*X59754Y104288D01*
X60592Y103906D02*Y103335D01*
Y103906D02*X60782Y104097D01*
X60973D01*
X61163Y103906D01*
Y103335D01*
X60401Y104097D02*X60592Y103906D01*
X61620D02*Y103526D01*
Y103906D02*X61811Y104097D01*
X62192D01*
X62382Y103906D01*
Y103526D01*
X62192Y103335D02*X62382Y103526D01*
X61811Y103335D02*X62192D01*
X61620Y103526D02*X61811Y103335D01*
X62840Y104097D02*Y103526D01*
X63030Y103335D01*
X63221D01*
X63411Y103526D01*
Y104097D02*Y103526D01*
X63602Y103335D01*
X63792D01*
X63983Y103526D01*
Y104097D02*Y103526D01*
X64630Y103906D02*Y103335D01*
Y103906D02*X64821Y104097D01*
X65011D01*
X65202Y103906D01*
Y103335D01*
X64440Y104097D02*X64630Y103906D01*
X65659Y104859D02*X65850Y104668D01*
Y103526D01*
X65659Y103335D02*X65850Y103526D01*
X66993Y104097D02*X67755D01*
X68898Y104859D02*Y103335D01*
Y104859D02*X69660D01*
X68898Y104173D02*X69469D01*
X70688Y104097D02*X70879Y103906D01*
X70307Y104097D02*X70688D01*
X70117Y103906D02*X70307Y104097D01*
X70117Y103906D02*Y103526D01*
X70307Y103335D01*
X70879Y104097D02*Y103526D01*
X71069Y103335D01*
X70307D02*X70688D01*
X70879Y103526D01*
X71526Y104859D02*Y103335D01*
Y103526D02*X71717Y103335D01*
X72098D01*
X72288Y103526D01*
Y103906D02*Y103526D01*
X72098Y104097D02*X72288Y103906D01*
X71717Y104097D02*X72098D01*
X71526Y103906D02*X71717Y104097D01*
X72936Y103906D02*Y103335D01*
Y103906D02*X73127Y104097D01*
X73508D01*
X72746D02*X72936Y103906D01*
G54D199*X73965Y104478D02*Y104440D01*
G54D198*Y103906D02*Y103335D01*
X74536Y104097D02*X75108D01*
X74346Y103906D02*X74536Y104097D01*
X74346Y103906D02*Y103526D01*
X74536Y103335D01*
X75108D01*
X76137Y104097D02*X76327Y103906D01*
X75756Y104097D02*X76137D01*
X75565Y103906D02*X75756Y104097D01*
X75565Y103906D02*Y103526D01*
X75756Y103335D01*
X76327Y104097D02*Y103526D01*
X76518Y103335D01*
X75756D02*X76137D01*
X76327Y103526D01*
X77165Y104859D02*Y103526D01*
X77356Y103335D01*
X76975Y104288D02*X77356D01*
G54D199*X77737Y104478D02*Y104440D01*
G54D198*Y103906D02*Y103335D01*
X78118Y103906D02*Y103526D01*
Y103906D02*X78308Y104097D01*
X78689D01*
X78880Y103906D01*
Y103526D01*
X78689Y103335D02*X78880Y103526D01*
X78308Y103335D02*X78689D01*
X78118Y103526D02*X78308Y103335D01*
X79527Y103906D02*Y103335D01*
Y103906D02*X79718Y104097D01*
X79908D01*
X80099Y103906D01*
Y103335D01*
X79337Y104097D02*X79527Y103906D01*
X81432Y104859D02*Y103335D01*
X81928Y104859D02*X82194Y104592D01*
Y103602D01*
X81928Y103335D02*X82194Y103602D01*
X81242Y103335D02*X81928D01*
X81242Y104859D02*X81928D01*
X82842Y103906D02*Y103335D01*
Y103906D02*X83033Y104097D01*
X83414D01*
X82652D02*X82842Y103906D01*
X84442Y104097D02*X84633Y103906D01*
X84061Y104097D02*X84442D01*
X83871Y103906D02*X84061Y104097D01*
X83871Y103906D02*Y103526D01*
X84061Y103335D01*
X84633Y104097D02*Y103526D01*
X84823Y103335D01*
X84061D02*X84442D01*
X84633Y103526D01*
X85281Y104097D02*Y103526D01*
X85471Y103335D01*
X85662D01*
X85852Y103526D01*
Y104097D02*Y103526D01*
X86043Y103335D01*
X86233D01*
X86424Y103526D01*
Y104097D02*Y103526D01*
G54D199*X86881Y104478D02*Y104440D01*
G54D198*Y103906D02*Y103335D01*
X87452Y103906D02*Y103335D01*
Y103906D02*X87643Y104097D01*
X87833D01*
X88024Y103906D01*
Y103335D01*
X87262Y104097D02*X87452Y103906D01*
X89052Y104097D02*X89243Y103906D01*
X88671Y104097D02*X89052D01*
X88481Y103906D02*X88671Y104097D01*
X88481Y103906D02*Y103526D01*
X88671Y103335D01*
X89052D01*
X89243Y103526D01*
X88481Y102954D02*X88671Y102764D01*
X89052D01*
X89243Y102954D01*
Y104097D02*Y102954D01*
M02*
